<svg width="44" height="44" viewBox="0 0 44 44" fill="none" xmlns="http://www.w3.org/2000/svg">
<rect x="1.14385" y="1.13115" width="41.7125" height="41.7125" rx="6.75625" stroke="#08237D" stroke-width="0.5875"/>
<path d="M22.0002 34.6184C21.1777 34.6184 20.3434 34.3011 19.7207 33.6784L17.7115 31.6927C17.2062 31.1992 16.5482 30.9289 15.8432 30.9289H14.9502C12.5179 30.9289 10.5439 28.9667 10.5439 26.5579V13.7386C10.5439 11.3299 12.5179 9.36768 14.9502 9.36768H29.0502C31.4824 9.36768 33.4564 11.3299 33.4564 13.7386V26.5579C33.4564 28.9667 31.4824 30.9289 29.0502 30.9289H28.1572C27.4522 30.9289 26.7824 31.1992 26.2889 31.6927L24.2797 33.6784C23.6569 34.3011 22.8227 34.6184 22.0002 34.6184ZM14.9502 11.1184C13.4932 11.1184 12.3064 12.2934 12.3064 13.7269V26.5462C12.3064 27.9914 13.4932 29.1546 14.9502 29.1546H15.8432C17.0182 29.1546 18.1227 29.6128 18.957 30.4353L20.9662 32.4212C21.5419 32.9852 22.4702 32.9852 23.0459 32.4212L25.0552 30.4353C25.8895 29.6128 26.9939 29.1546 28.1689 29.1546H29.0502C30.5072 29.1546 31.6939 27.9797 31.6939 26.5462V13.7269C31.6939 12.2816 30.5072 11.1184 29.0502 11.1184H14.9502Z" fill="#194BF0"/>
<path d="M20.0969 24.9373H16.9479C16.4309 24.9373 15.9492 24.6904 15.6437 24.2674C15.3499 23.8679 15.2794 23.3745 15.4204 22.9045C15.8317 21.6473 16.8422 20.9657 17.7352 20.3547C18.6752 19.7202 19.2039 19.3208 19.2039 18.6393C19.2039 18.0283 18.7104 17.5347 18.0994 17.5347C17.4884 17.5347 16.9949 18.0283 16.9949 18.6393C16.9949 19.121 16.5954 19.5205 16.1137 19.5205C15.6319 19.5205 15.2324 19.121 15.2324 18.6393C15.2324 17.0648 16.5132 15.7722 18.0994 15.7722C19.6857 15.7722 20.9664 17.053 20.9664 18.6393C20.9664 20.296 19.7209 21.142 18.7222 21.8235C18.0994 22.2465 17.5119 22.646 17.2182 23.1748H20.0852C20.5669 23.1748 20.9664 23.5743 20.9664 24.056C20.9664 24.5378 20.5787 24.9373 20.0969 24.9373Z" fill="#194BF0"/>
<path d="M26.7481 24.936C26.2664 24.936 25.8669 24.5365 25.8669 24.0547V23.2439H23.5639C23.5639 23.2439 23.5639 23.2439 23.5522 23.2439C22.9764 23.2439 22.4477 22.9385 22.1539 22.445C21.8602 21.9397 21.8602 21.317 22.1539 20.8235C22.9529 19.4487 23.8812 17.8859 24.7272 16.5229C25.1032 15.9237 25.8199 15.6535 26.4897 15.8415C27.1594 16.0412 27.6294 16.6523 27.6176 17.3573V21.4932H27.8762C28.3579 21.4932 28.7574 21.8927 28.7574 22.3744C28.7574 22.8562 28.3579 23.2557 27.8762 23.2557H27.6294V24.0665C27.6294 24.5482 27.2416 24.936 26.7481 24.936ZM25.8669 18.0387C25.1736 19.1667 24.4569 20.3769 23.8106 21.4814H25.8669V18.0387Z" fill="#194BF0"/>
</svg>
