<svg width="43" height="44" viewBox="0 0 43 44" fill="none" xmlns="http://www.w3.org/2000/svg">
<rect x="0.343799" y="1.13115" width="41.7125" height="41.7125" rx="6.75625" stroke="#08237D" stroke-width="0.5875"/>
<path d="M24.1376 27.5687H18.2626C17.7808 27.5687 17.3813 27.1692 17.3813 26.6874C17.3813 26.2057 17.7808 25.8062 18.2626 25.8062H24.1376C24.6193 25.8062 25.0188 26.2057 25.0188 26.6874C25.0188 27.1692 24.6193 27.5687 24.1376 27.5687Z" fill="#194BF0"/>
<path d="M13.2101 20.1781C12.9868 20.1781 12.7636 20.0841 12.5873 19.9195C12.3406 19.6728 12.2583 19.2851 12.3993 18.9561L14.5848 13.7391C14.6318 13.6333 14.6553 13.5628 14.6906 13.5041C16.4296 9.4973 18.6503 8.52205 22.5748 10.0261C22.7981 10.1083 22.9743 10.2846 23.0683 10.5078C23.1623 10.7311 23.1623 10.9778 23.0683 11.2011L19.6256 19.1911C19.4846 19.5083 19.1673 19.7198 18.8148 19.7198H15.4661C14.7963 19.7198 14.1618 19.849 13.5508 20.1075C13.4451 20.1545 13.3276 20.1781 13.2101 20.1781ZM19.5668 11.1188C18.1098 11.1188 17.2168 12.0706 16.2886 14.2326C16.2768 14.2678 16.2533 14.3031 16.2416 14.3383L14.7023 17.9926C14.9608 17.9691 15.2076 17.9573 15.4661 17.9573H18.2273L21.0591 11.3773C20.5068 11.2011 20.0133 11.1188 19.5668 11.1188Z" fill="#194BF0"/>
<path d="M28.5908 19.9547C28.5085 19.9547 28.4145 19.943 28.3323 19.9195C27.8975 19.7902 27.4158 19.7197 26.9223 19.7197H18.8148C18.521 19.7197 18.239 19.567 18.0745 19.3202C17.9218 19.0735 17.8865 18.7562 18.004 18.486L21.4115 10.5782C21.5878 10.1552 22.093 9.87322 22.5395 10.0142C22.6805 10.0612 22.8098 10.12 22.9508 10.1787L25.7238 11.342C27.3453 12.0117 28.4263 12.7167 29.1313 13.5627C29.2723 13.7272 29.3898 13.9035 29.4955 14.0797C29.6248 14.2795 29.7423 14.5262 29.8245 14.773C29.8598 14.8552 29.9185 15.008 29.9538 15.1725C30.2828 16.277 30.1183 17.6517 29.4133 19.4142C29.2723 19.7432 28.9433 19.9547 28.5908 19.9547ZM20.1543 17.9572H26.934C27.31 17.9572 27.6743 17.9925 28.0385 18.0512C28.3675 17.029 28.438 16.2417 28.25 15.6072C28.2265 15.5015 28.203 15.4545 28.1913 15.4075C28.1208 15.2195 28.0738 15.1137 28.015 15.0197C27.9328 14.8905 27.874 14.7847 27.78 14.679C27.2748 14.068 26.3818 13.504 25.054 12.9635L22.7275 11.9882L20.1543 17.9572Z" fill="#194BF0"/>
<path d="M25.7825 34.6185H16.6175C16.2885 34.6185 15.983 34.595 15.6775 34.5598C11.5533 34.2778 9.2033 31.9278 8.9213 27.7565C8.88605 27.498 8.86255 27.1808 8.86255 26.8635V24.5723C8.86255 21.9285 10.437 19.5433 12.8693 18.4858C13.6918 18.1333 14.573 17.957 15.4778 17.957H26.9458C27.6155 17.957 28.2618 18.051 28.861 18.239C31.6223 19.0733 33.561 21.6818 33.561 24.5723V26.8635C33.561 27.122 33.5493 27.3688 33.5375 27.6038C33.279 32.198 30.6 34.6185 25.7825 34.6185ZM15.466 19.7195C14.7963 19.7195 14.1618 19.8488 13.5508 20.1073C11.7648 20.8828 10.6133 22.6335 10.6133 24.5723V26.8635C10.6133 27.1103 10.6368 27.357 10.6603 27.592C10.8835 30.9408 12.5285 32.5858 15.8303 32.809C16.124 32.8443 16.359 32.8678 16.6058 32.8678H25.7708C29.6483 32.8678 31.5518 31.164 31.7398 27.5215C31.7515 27.31 31.7633 27.0985 31.7633 26.8635V24.5723C31.7633 22.4455 30.3415 20.542 28.3205 19.9193C27.8858 19.79 27.404 19.7195 26.9105 19.7195H15.466Z" fill="#194BF0"/>
<path d="M9.73208 25.4539C9.25033 25.4539 8.85083 25.0544 8.85083 24.5726V21.1299C8.85083 17.4286 11.4711 14.2326 15.0901 13.5276C15.4073 13.4689 15.7363 13.5864 15.9478 13.8331C16.1476 14.0799 16.2063 14.4324 16.0771 14.7261L14.0208 19.6376C13.9268 19.8491 13.7623 20.0136 13.5626 20.1076C11.7766 20.8831 10.6251 22.6339 10.6251 24.5726C10.6133 25.0544 10.2256 25.4539 9.73208 25.4539ZM13.6801 15.9011C12.1761 16.7471 11.0833 18.2276 10.7426 19.9549C11.2596 19.4261 11.8588 18.9796 12.5403 18.6506L13.6801 15.9011Z" fill="#194BF0"/>
<path d="M32.668 25.4538C32.1863 25.4538 31.7868 25.0543 31.7868 24.5726C31.7868 22.4458 30.365 20.5423 28.344 19.9196C28.109 19.8491 27.9093 19.6846 27.8035 19.4613C27.6978 19.2381 27.686 18.9796 27.78 18.7563C28.3323 17.3816 28.4733 16.3828 28.25 15.6073C28.2265 15.5016 28.203 15.4546 28.1913 15.4076C28.0385 15.0668 28.1208 14.6673 28.391 14.4088C28.6613 14.1503 29.0725 14.0916 29.4015 14.2678C31.963 15.6073 33.5493 18.2393 33.5493 21.1298V24.5726C33.5493 25.0543 33.1498 25.4538 32.668 25.4538ZM29.7188 18.5683C30.459 18.9091 31.117 19.3908 31.6693 19.9666C31.446 18.8151 30.8938 17.7693 30.083 16.9468C30.0243 17.4403 29.9068 17.9808 29.7188 18.5683Z" fill="#194BF0"/>
</svg>
