<svg width="43" height="44" viewBox="0 0 43 44" fill="none" xmlns="http://www.w3.org/2000/svg">
<rect x="0.943652" y="1.13115" width="41.7125" height="41.7125" rx="6.75625" stroke="#08237D" stroke-width="0.5875"/>
<path d="M21.8002 23.516C21.6475 23.516 21.4947 23.4808 21.3537 23.3986L10.9785 17.3943C10.5555 17.1476 10.4145 16.607 10.6612 16.184C10.908 15.761 11.4367 15.62 11.8715 15.8668L21.8002 21.6125L31.6702 15.9021C32.0932 15.6553 32.6337 15.8081 32.8805 16.2193C33.1272 16.6423 32.9745 17.1828 32.5632 17.4295L22.2585 23.3986C22.1057 23.4691 21.953 23.516 21.8002 23.516Z" fill="#194BF0"/>
<path d="M21.8 34.161C21.3182 34.161 20.9187 33.7615 20.9187 33.2797V22.6225C20.9187 22.1407 21.3182 21.7412 21.8 21.7412C22.2817 21.7412 22.6812 22.1407 22.6812 22.6225V33.2797C22.6812 33.7615 22.2817 34.161 21.8 34.161Z" fill="#194BF0"/>
<path d="M21.8007 34.6187C20.7667 34.6187 19.7444 34.3954 18.9337 33.9489L12.6592 30.4592C10.9554 29.5192 9.62769 27.2514 9.62769 25.301V18.6622C9.62769 16.7117 10.9554 14.4557 12.6592 13.504L18.9337 10.026C20.5434 9.13295 23.0579 9.13295 24.6677 10.026L30.9422 13.5157C32.6459 14.4557 33.9737 16.7234 33.9737 18.6739V25.3127C33.9737 27.2632 32.6459 29.5192 30.9422 30.4709L24.6677 33.9489C23.8569 34.3954 22.8347 34.6187 21.8007 34.6187ZM21.8007 11.1187C21.0604 11.1187 20.3319 11.2714 19.7914 11.5652L13.5169 15.0549C12.3889 15.6894 11.3902 17.3697 11.3902 18.6739V25.3127C11.3902 26.6052 12.3889 28.2972 13.5169 28.9317L19.7914 32.4214C20.8607 33.0207 22.7407 33.0207 23.8099 32.4214L30.0844 28.9317C31.2124 28.2972 32.2112 26.617 32.2112 25.3127V18.6739C32.2112 17.3814 31.2124 15.6894 30.0844 15.0549L23.8099 11.5652C23.2694 11.2714 22.5409 11.1187 21.8007 11.1187Z" fill="#194BF0"/>
<path d="M27.6763 24.3247C27.1946 24.3247 26.7951 23.9252 26.7951 23.4435V19.66L16.0791 13.4795C15.6561 13.2327 15.515 12.6922 15.7618 12.281C16.0085 11.858 16.5373 11.7169 16.9603 11.9637L28.1111 18.4027C28.3813 18.5555 28.5576 18.8492 28.5576 19.1665V23.467C28.5576 23.9252 28.1581 24.3247 27.6763 24.3247Z" fill="#194BF0"/>
</svg>
