<svg width="222" height="92" viewBox="0 0 222 92" fill="none" xmlns="http://www.w3.org/2000/svg">
<mask id="path-1-outside-1_7548_1663" maskUnits="userSpaceOnUse" x="3.9375" y="0.237305" width="43" height="64" fill="black">
<rect fill="white" x="3.9375" y="0.237305" width="43" height="64"/>
<path d="M6.42637 20.3751C6.22289 16.3635 6.93508 12.9189 8.56294 10.041C10.1908 7.13412 12.5018 4.8958 15.4959 3.32608C18.5191 1.72728 21.9928 0.927884 25.9171 0.927884C29.9287 0.927884 33.4315 1.68368 36.4256 3.19527C39.4488 4.70686 41.7743 6.82889 43.4021 9.56138C45.0591 12.2648 45.8875 15.4769 45.8875 19.1978C45.8875 22.7151 45.1899 25.7383 43.7946 28.2673C42.3993 30.7672 40.5098 32.9765 38.1261 34.895C35.7715 36.8136 33.1699 38.6449 30.3211 40.3891C27.9956 41.8134 25.7863 43.3105 23.6934 44.8802C21.6295 46.45 19.9144 48.0778 18.5481 49.7638C17.1819 51.4208 16.4261 53.1213 16.2808 54.8654H46.3236V63.2373H5.68511C5.56883 62.5106 5.48163 61.8129 5.42349 61.1443C5.39442 60.4467 5.37988 59.7926 5.37988 59.1822C5.37988 56.1299 5.96126 53.3974 7.12402 50.9847C8.31585 48.572 9.87105 46.4063 11.7896 44.4878C13.7372 42.5692 15.8302 40.8251 18.0685 39.2554C20.3359 37.6856 22.5451 36.2322 24.6962 34.895C27.2834 33.2962 29.5217 31.7701 31.4112 30.3167C33.3007 28.8632 34.7541 27.3371 35.7715 25.7383C36.818 24.1104 37.3413 22.25 37.3413 20.157C37.3413 16.8722 36.3093 14.2124 34.2454 12.1776C32.1815 10.1137 29.4345 9.08174 26.0043 9.08174C23.8532 9.08174 21.9202 9.50324 20.2051 10.3462C18.49 11.1602 17.1528 12.4101 16.1936 14.0961C15.2343 15.7531 14.7982 17.846 14.8855 20.3751H6.42637Z"/>
</mask>
<path d="M6.42637 20.3751L5.83962 20.4048L5.86791 20.9626H6.42637V20.3751ZM8.56294 10.041L9.0743 10.3303L9.07554 10.3281L8.56294 10.041ZM15.4959 3.32608L15.7687 3.84641L15.7706 3.84542L15.4959 3.32608ZM36.4256 3.19527L36.1608 3.71972L36.1628 3.72074L36.4256 3.19527ZM43.4021 9.56138L42.8974 9.86209L42.9012 9.86838L43.4021 9.56138ZM43.7946 28.2673L44.3076 28.5536L44.309 28.5511L43.7946 28.2673ZM38.1261 34.895L37.7577 34.4373L37.755 34.4396L38.1261 34.895ZM30.3211 40.3891L30.0143 39.888L30.0142 39.8881L30.3211 40.3891ZM23.6934 44.8802L23.3409 44.4102L23.3377 44.4126L23.6934 44.8802ZM18.5481 49.7638L19.0014 50.1376L19.0046 50.1337L18.5481 49.7638ZM16.2808 54.8654L15.6953 54.8166L15.6423 55.4529H16.2808V54.8654ZM46.3236 54.8654H46.9111V54.2779H46.3236V54.8654ZM46.3236 63.2373V63.8248H46.9111V63.2373H46.3236ZM5.68511 63.2373L5.10499 63.3301L5.18414 63.8248H5.68511V63.2373ZM5.42349 61.1443L4.8365 61.1688L4.83705 61.182L4.8382 61.1952L5.42349 61.1443ZM7.12402 50.9847L6.59726 50.7245L6.59478 50.7297L7.12402 50.9847ZM11.7896 44.4878L11.3773 44.0692L11.3742 44.0724L11.7896 44.4878ZM18.0685 39.2554L17.7341 38.7723L17.7312 38.7744L18.0685 39.2554ZM24.6962 34.895L24.3874 34.3952L24.3861 34.3961L24.6962 34.895ZM35.7715 25.7383L35.2773 25.4206L35.2759 25.4229L35.7715 25.7383ZM34.2454 12.1776L33.83 12.593L33.8329 12.596L34.2454 12.1776ZM20.2051 10.3462L20.457 10.8771L20.4642 10.8735L20.2051 10.3462ZM16.1936 14.0961L16.702 14.3905L16.7042 14.3867L16.1936 14.0961ZM14.8855 20.3751V20.9626H15.4936L15.4726 20.3548L14.8855 20.3751ZM7.01311 20.3453C6.81406 16.421 7.51209 13.092 9.0743 10.3303L8.05158 9.75176C6.35806 12.7457 5.63171 16.306 5.83962 20.4048L7.01311 20.3453ZM9.07554 10.3281C10.6469 7.52207 12.8739 5.36408 15.7687 3.8464L15.2231 2.80575C12.1297 4.42753 9.73471 6.74617 8.05034 9.75396L9.07554 10.3281ZM15.7706 3.84542C18.6974 2.29759 22.0743 1.51538 25.9171 1.51538V0.340384C21.9113 0.340384 18.3408 1.15697 15.2212 2.80673L15.7706 3.84542ZM25.9171 1.51538C29.8546 1.51538 33.2634 2.25695 36.1608 3.71972L36.6904 2.67081C33.5996 1.11041 30.0028 0.340384 25.9171 0.340384V1.51538ZM36.1628 3.72074C39.0921 5.18538 41.3307 7.23225 42.8974 9.86207L43.9069 9.26069C42.2178 6.42553 39.8054 4.22833 36.6883 2.66979L36.1628 3.72074ZM42.9012 9.86838C44.4924 12.4644 45.3 15.5662 45.3 19.1978H46.475C46.475 15.3876 45.6258 12.0652 43.9031 9.25437L42.9012 9.86838ZM45.3 19.1978C45.3 22.6373 44.6181 25.5584 43.2802 27.9835L44.309 28.5511C45.7616 25.9182 46.475 22.7929 46.475 19.1978H45.3ZM43.2816 27.981C41.9255 30.4106 40.0867 32.5628 37.7578 34.4374L38.4945 35.3527C40.9328 33.3901 42.873 31.1238 44.3076 28.5536L43.2816 27.981ZM37.755 34.4396C35.4227 36.34 32.8428 38.1563 30.0143 39.888L30.6279 40.8901C33.4969 39.1336 36.1203 37.2872 38.4972 35.3505L37.755 34.4396ZM30.0142 39.8881C27.6737 41.3217 25.4492 42.829 23.3409 44.4102L24.0459 45.3502C26.1235 43.792 28.3175 42.3052 30.628 40.8901L30.0142 39.8881ZM23.3377 44.4126C21.2434 46.0054 19.4926 47.6652 18.0917 49.3939L19.0046 50.1337C20.3362 48.4904 22.0155 46.8945 24.049 45.3478L23.3377 44.4126ZM18.0949 49.3901C16.67 51.1181 15.8526 52.9285 15.6953 54.8166L16.8662 54.9142C16.9996 53.3141 17.6938 51.7234 19.0014 50.1376L18.0949 49.3901ZM16.2808 55.4529H46.3236V54.2779H16.2808V55.4529ZM45.7361 54.8654V63.2373H46.9111V54.8654H45.7361ZM46.3236 62.6498H5.68511V63.8248H46.3236V62.6498ZM6.26523 63.1445C6.15097 62.4304 6.06559 61.7467 6.00878 61.0934L4.8382 61.1952C4.89766 61.8791 4.9867 62.5908 5.10499 63.3301L6.26523 63.1445ZM6.01048 61.1199C5.9817 60.4292 5.96738 59.7834 5.96738 59.1822H4.79238C4.79238 59.8018 4.80714 60.4641 4.8365 61.1688L6.01048 61.1199ZM5.96738 59.1822C5.96738 56.2059 6.53388 53.5625 7.65327 51.2398L6.59478 50.7297C5.38865 53.2324 4.79238 56.054 4.79238 59.1822H5.96738ZM7.65076 51.2449C8.81397 48.8901 10.3314 46.7768 12.205 44.9032L11.3742 44.0724C9.41068 46.0359 7.81774 48.2538 6.59729 50.7245L7.65076 51.2449ZM12.2019 44.9063C14.1263 43.0106 16.1942 41.2874 18.4058 39.7364L17.7312 38.7744C15.4662 40.3628 13.3481 42.1278 11.3773 44.0693L12.2019 44.9063ZM18.4029 39.7384C20.663 38.1737 22.8642 36.7256 25.0064 35.394L24.3861 34.3961C22.2261 35.7388 20.0087 37.1976 17.7341 38.7723L18.4029 39.7384ZM25.0051 35.3948C27.6049 33.7882 29.8604 32.2508 31.7694 30.7823L31.053 29.851C29.183 31.2895 26.9619 32.8043 24.3874 34.3953L25.0051 35.3948ZM31.7694 30.7823C33.6997 29.2975 35.205 27.7229 36.2672 26.0537L35.2759 25.4229C34.3033 26.9512 32.9016 28.4289 31.053 29.851L31.7694 30.7823ZM36.2657 26.056C37.3781 24.3256 37.9288 22.3531 37.9288 20.157H36.7538C36.7538 22.1469 36.2579 23.8952 35.2773 25.4206L36.2657 26.056ZM37.9288 20.157C37.9288 16.7379 36.8491 13.9196 34.6579 11.7592L33.8329 12.596C35.7695 14.5053 36.7538 17.0066 36.7538 20.157H37.9288ZM34.6608 11.7622C32.4676 9.5689 29.5609 8.49424 26.0043 8.49424V9.66924C29.3081 9.66924 31.8954 10.6585 33.83 12.593L34.6608 11.7622ZM26.0043 8.49424C23.7748 8.49424 21.7513 8.93162 19.9459 9.81899L20.4642 10.8735C22.089 10.0749 23.9317 9.66924 26.0043 9.66924V8.49424ZM19.9532 9.81548C18.1268 10.6823 16.7004 12.0173 15.6829 13.8056L16.7042 14.3867C17.6053 12.8029 18.8532 11.6381 20.457 10.877L19.9532 9.81548ZM15.6851 13.8018C14.6555 15.5802 14.2085 17.7907 14.2983 20.3953L15.4726 20.3548C15.388 17.9014 15.8131 15.9259 16.702 14.3905L15.6851 13.8018ZM14.8855 19.7876H6.42637V20.9626H14.8855V19.7876Z" fill="#0B2FA6" mask="url(#path-1-outside-1_7548_1663)"/>
<rect x="12.7437" y="39.9688" width="46.4125" height="46.4125" rx="9.10625" fill="white"/>
<rect x="12.7437" y="39.9688" width="46.4125" height="46.4125" rx="9.10625" stroke="#D7D7D7" stroke-width="0.5875"/>
<path d="M31.2499 55.8312C30.7682 55.8312 30.3687 55.4317 30.3687 54.95V51.425C30.3687 50.9432 30.7682 50.5437 31.2499 50.5437C31.7317 50.5437 32.1312 50.9432 32.1312 51.425V54.95C32.1312 55.4317 31.7317 55.8312 31.2499 55.8312Z" fill="#494949"/>
<path d="M40.6499 55.8312C40.1682 55.8312 39.7687 55.4317 39.7687 54.95V51.425C39.7687 50.9432 40.1682 50.5437 40.6499 50.5437C41.1317 50.5437 41.5312 50.9432 41.5312 51.425V54.95C41.5312 55.4317 41.1317 55.8312 40.6499 55.8312Z" fill="#494949"/>
<path d="M31.8374 66.1125C31.5319 66.1125 31.2264 65.9832 31.0032 65.7717C30.7917 65.5484 30.6624 65.2547 30.6624 64.9375C30.6624 64.7847 30.6977 64.6319 30.7564 64.4909C30.8152 64.3499 30.8974 64.2207 31.0032 64.1032C31.4379 63.6685 32.2252 63.6685 32.6717 64.1032C32.8832 64.3265 33.0124 64.632 33.0124 64.9375C33.0124 65.008 33.0007 65.0902 32.9889 65.1725C32.9772 65.243 32.9536 65.3135 32.9184 65.384C32.8949 65.4545 32.8597 65.525 32.8127 65.5955C32.7657 65.6542 32.7187 65.7129 32.6717 65.7717C32.4484 65.9832 32.1429 66.1125 31.8374 66.1125Z" fill="#494949"/>
<path d="M35.9499 66.1125C35.7972 66.1125 35.6444 66.0772 35.5034 66.0185C35.3507 65.9597 35.2332 65.8774 35.1157 65.7717C34.9042 65.5484 34.7749 65.2547 34.7749 64.9375C34.7749 64.7847 34.8102 64.632 34.8689 64.491C34.9277 64.35 35.0099 64.2207 35.1157 64.1032C35.2332 63.9975 35.3507 63.9152 35.5034 63.8564C35.9382 63.6802 36.4552 63.7742 36.7842 64.1032C36.9957 64.3265 37.1249 64.632 37.1249 64.9375C37.1249 65.008 37.1132 65.0902 37.1014 65.1725C37.0897 65.243 37.0661 65.3135 37.0309 65.384C37.0074 65.4545 36.9722 65.525 36.9252 65.5955C36.8899 65.6542 36.8312 65.7129 36.7842 65.7717C36.5609 65.9832 36.2554 66.1125 35.9499 66.1125Z" fill="#494949"/>
<path d="M31.8374 70.225C31.6847 70.225 31.5319 70.1897 31.3909 70.131C31.2382 70.0722 31.1089 69.99 31.0032 69.8842C30.8974 69.7785 30.8152 69.6492 30.7564 69.4965C30.6977 69.3555 30.6624 69.2027 30.6624 69.05C30.6624 68.8972 30.6977 68.7445 30.7564 68.6035C30.8152 68.4507 30.8974 68.3215 31.0032 68.2157C31.1089 68.11 31.2382 68.0277 31.3909 67.969C31.6729 67.8515 32.0019 67.8397 32.2839 67.969C32.4366 68.0277 32.5659 68.11 32.6717 68.2157C32.7774 68.3215 32.8596 68.4507 32.9184 68.6035C32.9771 68.7445 33.0124 68.8972 33.0124 69.05C33.0124 69.2027 32.9771 69.3555 32.9184 69.4965C32.8596 69.6492 32.7774 69.7785 32.6717 69.8842C32.5659 69.99 32.4366 70.0722 32.2839 70.131C32.1429 70.1897 31.9902 70.225 31.8374 70.225Z" fill="#494949"/>
<path d="M45.9374 60.6369H25.9624C25.4807 60.6369 25.0812 60.2374 25.0812 59.7557C25.0812 59.2739 25.4807 58.8744 25.9624 58.8744H45.9374C46.4192 58.8744 46.8187 59.2739 46.8187 59.7557C46.8187 60.2374 46.4192 60.6369 45.9374 60.6369Z" fill="#494949"/>
<path d="M42.9999 76.9812C41.6252 76.9812 40.3209 76.4877 39.3222 75.5829C38.8992 75.2304 38.5232 74.784 38.2177 74.267C37.7007 73.421 37.4187 72.4222 37.4187 71.4C37.4187 68.3215 39.9214 65.8187 42.9999 65.8187C44.5979 65.8187 46.1254 66.5119 47.1829 67.7104C48.0876 68.7444 48.5812 70.0487 48.5812 71.4C48.5812 72.4222 48.2991 73.421 47.7704 74.2787C46.7834 75.9472 44.9504 76.9812 42.9999 76.9812ZM42.9999 67.5812C40.8967 67.5812 39.1812 69.2967 39.1812 71.4C39.1812 72.0932 39.3692 72.7747 39.7334 73.3622C39.9332 73.7147 40.1916 74.0084 40.4736 74.2552C41.1786 74.8897 42.0599 75.2187 42.9999 75.2187C44.3512 75.2187 45.5731 74.5254 46.2664 73.3739C46.6306 72.7747 46.8187 72.105 46.8187 71.4C46.8187 70.4835 46.4779 69.5905 45.8669 68.8737C45.1384 68.0512 44.0927 67.5812 42.9999 67.5812Z" fill="#494949"/>
<path d="M42.33 73.4444C42.1068 73.4444 41.8835 73.3622 41.7073 73.1859L40.544 72.0227C40.2033 71.6819 40.2033 71.1179 40.544 70.7772C40.8848 70.4364 41.4488 70.4364 41.7895 70.7772L42.3535 71.3412L44.2335 69.6022C44.586 69.2732 45.15 69.2967 45.479 69.6492C45.808 70.0017 45.7845 70.5657 45.432 70.8947L42.9293 73.2094C42.753 73.3622 42.5415 73.4444 42.33 73.4444Z" fill="#494949"/>
<path d="M39.9097 75.8062H31.2499C26.9612 75.8062 24.4937 73.3387 24.4937 69.05V59.0625C24.4937 54.7737 26.9612 52.3062 31.2499 52.3062H40.6499C44.9387 52.3062 47.4062 54.7737 47.4062 59.0625V68.2979C47.4062 68.6622 47.1829 68.9912 46.8304 69.1204C46.4897 69.2497 46.1019 69.1557 45.8552 68.8737C45.1267 68.0512 44.0809 67.5812 42.9881 67.5812C40.8849 67.5812 39.1694 69.2967 39.1694 71.4C39.1694 72.0932 39.3574 72.7747 39.7217 73.3622C39.9214 73.7147 40.1799 74.0084 40.4619 74.2552C40.7439 74.4902 40.8496 74.878 40.7204 75.2305C40.6146 75.5712 40.2857 75.8062 39.9097 75.8062ZM31.2499 54.0687C27.8894 54.0687 26.2562 55.702 26.2562 59.0625V69.05C26.2562 72.4105 27.8894 74.0437 31.2499 74.0437H38.0884C37.6537 73.2447 37.4187 72.3399 37.4187 71.4C37.4187 68.3215 39.9214 65.8187 42.9999 65.8187C43.9282 65.8187 44.8447 66.0537 45.6437 66.4885V59.0625C45.6437 55.702 44.0104 54.0687 40.6499 54.0687H31.2499Z" fill="#494949"/>
<path d="M70.9612 49.2687C70.9612 49.007 71.053 48.789 71.2366 48.6146C71.4248 48.4356 71.6542 48.3461 71.925 48.3461C72.1913 48.3461 72.4162 48.4356 72.5998 48.6146C72.7879 48.789 72.882 49.007 72.882 49.2687C72.882 49.5349 72.7879 49.7621 72.5998 49.9502C72.4162 50.1338 72.1913 50.2256 71.925 50.2256C71.6542 50.2256 71.4248 50.1338 71.2366 49.9502C71.053 49.7621 70.9612 49.5349 70.9612 49.2687ZM79.0852 42.9278L80.9303 47.2308C81.1598 47.7632 81.4146 48.1258 81.6945 48.3186C81.9791 48.5067 82.3555 48.6008 82.8236 48.6008H82.92V50.1499H82.803C82.2247 50.1499 81.7083 50.0443 81.2539 49.8332C80.7995 49.6221 80.4323 49.2641 80.1523 48.7592C79.8632 49.2503 79.4593 49.6175 78.9406 49.8607C78.422 50.0994 77.8689 50.2187 77.2814 50.2187C76.7995 50.2187 76.3152 50.1361 75.8287 49.9709C75.3468 49.8057 74.9084 49.5532 74.5137 49.2136L75.216 47.9812C75.5327 48.2153 75.8677 48.3874 76.2211 48.4976C76.5746 48.6077 76.9188 48.6628 77.2539 48.6628C77.6945 48.6628 78.1007 48.5779 78.4725 48.4081C78.8442 48.2382 79.1563 47.9789 79.4088 47.6301L77.6463 43.6163L79.0852 42.9278ZM86.5827 46.6731C86.5827 47.1229 86.6217 47.4901 86.6998 47.7747C86.7824 48.0592 86.943 48.2681 87.1817 48.4012C87.425 48.5343 87.7853 48.6008 88.2626 48.6008H88.6757V50.1499H88.2488C87.6705 50.1499 87.1541 50.0283 86.6998 49.785C86.2454 49.5372 85.9447 49.1883 85.7979 48.7385C85.7015 49.0369 85.5248 49.2916 85.2677 49.5027C85.0107 49.7139 84.7055 49.8745 84.3521 49.9847C83.9986 50.0948 83.6269 50.1499 83.2367 50.1499H82.9269C82.8443 50.1499 82.7846 50.0971 82.7479 49.9916C82.7066 49.8814 82.6859 49.6749 82.6859 49.3719C82.6859 49.0736 82.7066 48.8716 82.7479 48.7661C82.7846 48.6559 82.8443 48.6008 82.9269 48.6008H83.2367C83.7462 48.6008 84.1294 48.5343 84.3865 48.4012C84.6435 48.2635 84.8156 48.0546 84.9028 47.7747C84.99 47.4901 85.0336 47.1229 85.0336 46.6731V45.5715H86.5827V46.6731ZM83.6636 52.5665L84.7858 51.4442L85.9011 52.5665L84.7858 53.6887L83.6636 52.5665ZM81.2608 52.5665L82.383 51.4442L83.4983 52.5665L82.383 53.6887L81.2608 52.5665ZM92.3246 46.6731C92.3246 47.1229 92.3636 47.4901 92.4416 47.7747C92.5243 48.0592 92.6849 48.2681 92.9236 48.4012C93.1668 48.5343 93.5271 48.6008 94.0045 48.6008H94.4176V50.1499H93.9907C93.4124 50.1499 92.896 50.0283 92.4416 49.785C91.9873 49.5372 91.6866 49.1883 91.5397 48.7385C91.4434 49.0369 91.2666 49.2916 91.0096 49.5027C90.7526 49.7139 90.4474 49.8745 90.0939 49.9847C89.7405 50.0948 89.3687 50.1499 88.9786 50.1499H88.6688C88.5862 50.1499 88.5265 50.0971 88.4898 49.9916C88.4485 49.8814 88.4278 49.6749 88.4278 49.3719C88.4278 49.0736 88.4485 48.8716 88.4898 48.7661C88.5265 48.6559 88.5862 48.6008 88.6688 48.6008H88.9786C89.4881 48.6008 89.8713 48.5343 90.1284 48.4012C90.3854 48.2635 90.5575 48.0546 90.6447 47.7747C90.7319 47.4901 90.7755 47.1229 90.7755 46.6731V45.5715H92.3246V46.6731ZM89.7153 43.0861L90.8375 41.9639L91.9528 43.0861L90.8375 44.2083L89.7153 43.0861ZM100.635 39.6851L100.965 41.1997C100.098 41.4476 99.2943 41.7138 98.5553 41.9983C97.8209 42.2829 97.1026 42.6065 96.4004 42.9691V43.0379C97.4652 43.8641 98.2478 44.6283 98.7481 45.3306C99.253 46.0282 99.5054 46.719 99.5054 47.4029C99.5054 47.9766 99.3402 48.47 99.0097 48.8831C98.6792 49.2916 98.2019 49.606 97.5777 49.8263C96.9535 50.042 96.1984 50.1499 95.3126 50.1499H94.4107C94.3281 50.1499 94.2684 50.0902 94.2317 49.9709C94.1904 49.847 94.1697 49.6473 94.1697 49.3719C94.1697 49.0919 94.1904 48.8946 94.2317 48.7798C94.2684 48.6605 94.3281 48.6008 94.4107 48.6008H95.2851C96.1617 48.6008 96.8272 48.4907 97.2816 48.2704C97.736 48.05 97.9632 47.7265 97.9632 47.2996C97.9632 46.8406 97.6901 46.3105 97.1439 45.7092C96.6023 45.108 95.767 44.4034 94.6379 43.5956V42.2462C96.5748 41.0804 98.5737 40.2267 100.635 39.6851ZM107.554 47.458L108.676 46.3357L109.791 47.458L108.676 48.5802L107.554 47.458ZM104.545 45.6955L105.97 46.1499C105.828 46.6639 105.702 47.1917 105.592 47.7333C105.481 48.275 105.426 48.7798 105.426 49.248C105.426 49.8722 105.539 50.4 105.764 50.8315C105.989 51.2629 106.342 51.5911 106.824 51.816C107.31 52.0409 107.939 52.1534 108.71 52.1534C109.491 52.1534 110.122 52.0409 110.604 51.816C111.086 51.5911 111.437 51.2652 111.657 50.8384C111.882 50.4115 111.994 49.8998 111.994 49.3031C111.994 48.8533 111.914 48.3461 111.753 47.7815C111.597 47.217 111.395 46.618 111.148 45.9846L112.614 45.2893L113.227 46.9003C113.36 47.2721 113.516 47.5842 113.695 47.8366C113.879 48.0891 114.117 48.2795 114.411 48.4081C114.705 48.5366 115.09 48.6008 115.568 48.6008H115.574V50.1499H115.568C115.118 50.1499 114.7 50.0696 114.315 49.9089C113.929 49.7437 113.633 49.5096 113.426 49.2067C113.481 49.9319 113.403 50.5745 113.192 51.1344C112.986 51.6944 112.671 52.1648 112.249 52.5458C111.827 52.9313 111.315 53.2205 110.714 53.4133C110.113 53.6106 109.442 53.7093 108.703 53.7093C107.092 53.7093 105.888 53.3353 105.089 52.5871C104.295 51.839 103.898 50.7718 103.898 49.3857C103.898 48.8441 103.953 48.2612 104.063 47.637C104.178 47.0082 104.339 46.361 104.545 45.6955ZM116.869 52.5665L117.991 51.4442L119.106 52.5665L117.991 53.6887L116.869 52.5665ZM114.466 52.5665L115.588 51.4442L116.704 52.5665L115.588 53.6887L114.466 52.5665ZM119.698 45.5715V46.6731C119.698 47.1321 119.744 47.5039 119.836 47.7884C119.933 48.073 120.128 48.2795 120.421 48.4081C120.72 48.5366 121.172 48.6008 121.778 48.6008H121.791V50.1499H121.778C121.048 50.1499 120.424 50.026 119.905 49.7781C119.391 49.5303 119.06 49.1837 118.914 48.7385C118.767 49.1883 118.439 49.5372 117.929 49.785C117.42 50.0283 116.788 50.1499 116.036 50.1499H115.574C115.492 50.1499 115.432 50.0971 115.395 49.9916C115.354 49.8814 115.333 49.6749 115.333 49.3719C115.333 49.0736 115.354 48.8716 115.395 48.7661C115.432 48.6559 115.492 48.6008 115.574 48.6008H116.036C116.646 48.6008 117.101 48.5366 117.399 48.4081C117.702 48.275 117.902 48.0661 117.998 47.7815C118.099 47.497 118.149 47.1275 118.149 46.6731V45.5715H119.698ZM125.44 46.6731C125.44 47.1229 125.479 47.4901 125.557 47.7747C125.64 48.0592 125.801 48.2681 126.039 48.4012C126.283 48.5343 126.643 48.6008 127.12 48.6008H127.533V50.1499H127.106C126.528 50.1499 126.012 50.0283 125.557 49.785C125.103 49.5372 124.802 49.1883 124.655 48.7385C124.559 49.0369 124.382 49.2916 124.125 49.5027C123.868 49.7139 123.563 49.8745 123.21 49.9847C122.856 50.0948 122.484 50.1499 122.094 50.1499H121.785C121.702 50.1499 121.642 50.0971 121.606 49.9916C121.564 49.8814 121.544 49.6749 121.544 49.3719C121.544 49.0736 121.564 48.8716 121.606 48.7661C121.642 48.6559 121.702 48.6008 121.785 48.6008H122.094C122.604 48.6008 122.987 48.5343 123.244 48.4012C123.501 48.2635 123.673 48.0546 123.76 47.7747C123.848 47.4901 123.891 47.1229 123.891 46.6731V45.5715H125.44V46.6731ZM122.521 52.5665L123.643 51.4442L124.759 52.5665L123.643 53.6887L122.521 52.5665ZM120.118 52.5665L121.241 51.4442L122.356 52.5665L121.241 53.6887L120.118 52.5665ZM131.898 45.4889C131.572 45.4889 131.251 45.5302 130.934 45.6128C130.622 45.6955 130.338 45.8217 130.081 45.9915V46.0397L131.946 47.8573C132.355 47.6278 132.697 47.3822 132.972 47.1206C133.248 46.859 133.385 46.6042 133.385 46.3564C133.385 46.1728 133.321 46.0167 133.193 45.8882C133.064 45.7597 132.887 45.661 132.662 45.5922C132.438 45.5233 132.183 45.4889 131.898 45.4889ZM131.94 44.0225C132.279 44.0225 132.619 44.0661 132.958 44.1533C133.298 44.2405 133.608 44.3759 133.888 44.5595C134.173 44.7385 134.4 44.9703 134.57 45.2548C134.739 45.5348 134.824 45.8676 134.824 46.2531C134.824 46.5377 134.753 46.8085 134.611 47.0655C134.473 47.3226 134.287 47.5612 134.053 47.7815C133.824 48.0019 133.571 48.1992 133.296 48.3736C133.516 48.4838 133.75 48.5503 133.998 48.5733C134.251 48.5917 134.51 48.6008 134.776 48.6008H135.685V50.1499H134.59C134.044 50.1499 133.562 50.0994 133.144 49.9984C132.731 49.8929 132.321 49.6909 131.912 49.3926C131.435 49.6313 130.916 49.8171 130.356 49.9502C129.801 50.0833 129.188 50.1499 128.518 50.1499H127.526C127.448 50.1499 127.389 50.0971 127.347 49.9916C127.306 49.8814 127.285 49.6749 127.285 49.3719C127.285 49.0736 127.306 48.8716 127.347 48.7661C127.389 48.6559 127.448 48.6008 127.526 48.6008H128.449C128.853 48.6008 129.22 48.5756 129.551 48.5251C129.886 48.4746 130.205 48.4104 130.508 48.3323L128.428 46.3151L128.456 45.2961C128.938 44.8647 129.477 44.5457 130.074 44.3392C130.675 44.128 131.297 44.0225 131.94 44.0225ZM138.769 44.3805C138.893 44.9037 138.994 45.4017 139.072 45.8745C139.15 46.3472 139.189 46.7855 139.189 47.1895C139.189 47.7861 139.081 48.3071 138.866 48.7523C138.654 49.1975 138.315 49.5417 137.847 49.785C137.379 50.0283 136.766 50.1499 136.008 50.1499H135.692C135.609 50.1499 135.549 50.0971 135.513 49.9916C135.471 49.8814 135.451 49.6749 135.451 49.3719C135.451 49.0736 135.471 48.8716 135.513 48.7661C135.549 48.6559 135.609 48.6008 135.692 48.6008H136.008C136.605 48.6008 137.032 48.47 137.289 48.2084C137.551 47.9468 137.681 47.5589 137.681 47.0449C137.681 46.7557 137.645 46.4207 137.571 46.0397C137.502 45.6587 137.415 45.2388 137.31 44.7798L138.769 44.3805ZM137.502 42.2324L138.625 41.1102L139.74 42.2324L138.625 43.3546L137.502 42.2324ZM135.1 42.2324L136.222 41.1102L137.337 42.2324L136.222 43.3546L135.1 42.2324ZM145.158 50.1499H143.609V40.5043H145.158V50.1499ZM148.064 45.84L149.537 45.3443C149.785 46.1567 149.973 46.8773 150.102 47.5062C150.23 48.1304 150.294 48.7087 150.294 49.2411C150.294 50.0076 150.145 50.6915 149.847 51.2928C149.553 51.894 149.087 52.4311 148.449 52.9038C147.811 53.3812 146.98 53.8103 145.957 54.1913L145.289 52.7868C146.124 52.4838 146.795 52.1671 147.299 51.8367C147.804 51.5062 148.169 51.1321 148.394 50.7145C148.624 50.2968 148.738 49.8103 148.738 49.2549C148.738 48.8234 148.681 48.3277 148.566 47.7678C148.456 47.2032 148.289 46.5606 148.064 45.84ZM164.546 48.6008V50.1499H164.36C163.956 50.1499 163.587 50.0765 163.251 49.9296C162.916 49.7781 162.666 49.5555 162.501 49.2618V49.9296C162.496 50.7649 162.322 51.4787 161.978 52.0708C161.638 52.6674 161.149 53.1241 160.511 53.4408C159.878 53.7621 159.118 53.9228 158.232 53.9228C157.37 53.9228 156.647 53.7736 156.064 53.4752C155.485 53.1815 155.047 52.7661 154.749 52.2291C154.455 51.6967 154.308 51.0748 154.308 50.3633C154.308 49.8906 154.363 49.3857 154.473 48.8487C154.588 48.3071 154.753 47.7609 154.969 47.2101L156.339 47.7058C156.179 48.1464 156.052 48.5825 155.96 49.0139C155.873 49.4408 155.83 49.8286 155.83 50.1774C155.83 50.8659 156.034 51.4029 156.442 51.7885C156.856 52.174 157.489 52.3668 158.343 52.3668C159.251 52.3668 159.919 52.1396 160.346 51.6852C160.773 51.2308 160.986 50.5377 160.986 49.606V40.5043H162.535V46.7488C162.535 47.1619 162.588 47.5062 162.694 47.7815C162.799 48.0523 162.985 48.2566 163.251 48.3943C163.518 48.532 163.887 48.6008 164.36 48.6008H164.546ZM166.067 52.5665L167.19 51.4442L168.305 52.5665L167.19 53.6887L166.067 52.5665ZM163.665 52.5665L164.787 51.4442L165.902 52.5665L164.787 53.6887L163.665 52.5665ZM168.098 44.3805C168.222 44.9037 168.323 45.4017 168.401 45.8745C168.479 46.3472 168.518 46.7855 168.518 47.1895C168.518 47.7861 168.406 48.3071 168.181 48.7523C167.961 49.1975 167.593 49.5417 167.079 49.785C166.57 50.0283 165.884 50.1499 165.021 50.1499H164.553C164.47 50.1499 164.41 50.0971 164.374 49.9916C164.332 49.8814 164.312 49.6749 164.312 49.3719C164.312 49.0736 164.332 48.8716 164.374 48.7661C164.41 48.6559 164.47 48.6008 164.553 48.6008H165.021C165.526 48.6008 165.923 48.5435 166.212 48.4287C166.501 48.3094 166.705 48.135 166.825 47.9055C166.949 47.676 167.011 47.3891 167.011 47.0449C167.011 46.7557 166.974 46.4207 166.9 46.0397C166.832 45.6587 166.744 45.2388 166.639 44.7798L168.098 44.3805ZM173.826 48.5871C173.804 48.2566 173.762 47.9376 173.703 47.6301C173.647 47.318 173.567 47.038 173.462 46.7901C173.361 46.5377 173.227 46.338 173.062 46.1912C172.902 46.0397 172.702 45.964 172.463 45.964C172.202 45.964 171.986 46.0489 171.816 46.2187C171.646 46.3839 171.52 46.5997 171.437 46.8659C171.355 47.1275 171.314 47.4052 171.314 47.6989C171.314 48.034 171.414 48.2681 171.616 48.4012C171.818 48.5343 172.117 48.6008 172.511 48.6008C172.732 48.6008 172.954 48.5985 173.179 48.5939C173.404 48.5894 173.62 48.5871 173.826 48.5871ZM173.641 50.1499C173.42 50.1499 173.2 50.1499 172.98 50.1499C172.764 50.1499 172.548 50.1499 172.332 50.1499C171.594 50.1499 171.011 49.9594 170.584 49.5785C170.157 49.1929 169.943 48.61 169.943 47.8297C169.943 47.435 169.994 47.0403 170.095 46.6456C170.196 46.2462 170.35 45.8836 170.556 45.5578C170.767 45.2273 171.034 44.9634 171.355 44.766C171.676 44.5641 172.055 44.4631 172.491 44.4631C172.987 44.4631 173.404 44.5801 173.744 44.8142C174.083 45.0483 174.357 45.3627 174.563 45.7574C174.774 46.1521 174.933 46.5951 175.038 47.0862C175.144 47.5773 175.213 48.0822 175.245 48.6008H175.885V50.1499H175.19C175.043 51.1 174.556 51.9009 173.73 52.5527C172.904 53.2044 171.775 53.7415 170.343 54.1637L169.702 52.7455C170.799 52.4425 171.688 52.0708 172.367 51.6301C173.051 51.1941 173.475 50.7007 173.641 50.1499ZM179.141 43.9398C179.472 43.9398 179.818 44.0087 180.181 44.1464C180.548 44.2795 180.945 44.4424 181.372 44.6352C181.804 44.828 182.272 45.0253 182.777 45.2273C183.286 45.4247 183.848 45.583 184.463 45.7023V47.0036L183.279 47.7884C183.5 48.0959 183.736 48.3094 183.988 48.4287C184.245 48.5435 184.606 48.6008 185.069 48.6008H185.393V50.1499H185.049C184.401 50.1499 183.846 50.0237 183.383 49.7712C182.924 49.5188 182.547 49.0851 182.253 48.47L181.531 48.9657C180.902 49.3788 180.255 49.6794 179.589 49.8676C178.923 50.0558 178.196 50.1499 177.407 50.1499H175.885C175.802 50.1499 175.743 50.0948 175.706 49.9847C175.665 49.8745 175.644 49.6703 175.644 49.3719C175.644 49.0736 175.665 48.8716 175.706 48.7661C175.743 48.6559 175.802 48.6008 175.885 48.6008H177.682C178.086 48.6008 178.464 48.5733 178.818 48.5182C179.171 48.4631 179.511 48.3736 179.837 48.2497C180.167 48.1212 180.5 47.9537 180.835 47.7471L182.646 46.6042C182.224 46.5216 181.845 46.4161 181.51 46.2875C181.175 46.1544 180.867 46.0259 180.587 45.902C180.326 45.7827 180.082 45.6817 179.858 45.5991C179.637 45.5165 179.421 45.4751 179.21 45.4751C178.871 45.4751 178.602 45.5922 178.405 45.8263C178.212 46.0558 178.072 46.3771 177.985 46.7901L177.937 47.0311L176.697 46.8039L176.746 46.5079C176.892 45.7276 177.15 45.1057 177.517 44.6421C177.884 44.1739 178.425 43.9398 179.141 43.9398ZM188.463 44.3805C188.587 44.9037 188.688 45.4017 188.766 45.8745C188.844 46.3472 188.883 46.7855 188.883 47.1895C188.883 47.7861 188.776 48.3071 188.56 48.7523C188.349 49.1975 188.009 49.5417 187.541 49.785C187.073 50.0283 186.46 50.1499 185.703 50.1499H185.386C185.303 50.1499 185.244 50.0971 185.207 49.9916C185.166 49.8814 185.145 49.6749 185.145 49.3719C185.145 49.0736 185.166 48.8716 185.207 48.7661C185.244 48.6559 185.303 48.6008 185.386 48.6008H185.703C186.299 48.6008 186.726 48.47 186.983 48.2084C187.245 47.9468 187.376 47.5589 187.376 47.0449C187.376 46.7557 187.339 46.4207 187.266 46.0397C187.197 45.6587 187.109 45.2388 187.004 44.7798L188.463 44.3805ZM187.197 42.2324L188.319 41.1102L189.434 42.2324L188.319 43.3546L187.197 42.2324ZM184.794 42.2324L185.916 41.1102L187.031 42.2324L185.916 43.3546L184.794 42.2324Z" fill="#212121"/>
<path d="M195.61 43.8021C195.816 43.8021 196.028 43.8297 196.243 43.8848C196.459 43.9353 196.7 44.0133 196.966 44.1188C197.237 44.2198 197.549 44.3506 197.902 44.5113C198.449 44.7591 198.967 44.9726 199.458 45.1516C199.95 45.3306 200.454 45.4683 200.973 45.5646L200.966 47.1895C200.76 47.2399 200.549 47.295 200.333 47.3547C200.122 47.4144 199.908 47.4786 199.693 47.5475C199.83 47.8642 199.989 48.0982 200.168 48.2497C200.351 48.3966 200.567 48.493 200.815 48.5389C201.067 48.5802 201.359 48.6008 201.689 48.6008H201.951V50.1499H201.668C201.15 50.1499 200.689 50.0833 200.285 49.9502C199.885 49.8125 199.546 49.5785 199.266 49.248C198.99 48.9129 198.777 48.4494 198.625 47.8573C198.015 48.0684 197.45 48.3094 196.932 48.5802C196.418 48.8464 195.968 49.1401 195.582 49.4614C195.201 49.7781 194.903 50.1224 194.687 50.4941C194.476 50.8659 194.371 51.2606 194.371 51.6783C194.371 52.1511 194.515 52.5435 194.804 52.8556C195.094 53.1677 195.488 53.4018 195.989 53.5579C196.493 53.7139 197.063 53.7919 197.696 53.7919C198.27 53.7919 198.841 53.7346 199.41 53.6198C199.984 53.5097 200.487 53.3651 200.918 53.1861L201.483 54.6457C200.95 54.8935 200.358 55.0909 199.706 55.2377C199.059 55.3846 198.396 55.4581 197.717 55.4581C196.78 55.4581 195.943 55.3158 195.204 55.0312C194.465 54.7512 193.882 54.3427 193.455 53.8057C193.033 53.2687 192.822 52.6169 192.822 51.8504C192.822 51.1895 192.973 50.5813 193.276 50.026C193.583 49.4706 194.008 48.968 194.55 48.5182C195.096 48.0638 195.729 47.6599 196.45 47.3065C197.175 46.9485 197.958 46.641 198.798 46.3839C198.476 46.3151 198.178 46.2256 197.902 46.1154C197.632 46.0053 197.368 45.8928 197.111 45.7781C196.812 45.6404 196.555 45.5348 196.34 45.4614C196.124 45.3833 195.927 45.3443 195.748 45.3443C195.385 45.3443 195.107 45.4637 194.914 45.7023C194.722 45.941 194.582 46.2577 194.495 46.6524L194.446 46.8934L193.207 46.6662L193.255 46.3839C193.411 45.5532 193.675 44.9152 194.047 44.47C194.423 44.0248 194.944 43.8021 195.61 43.8021ZM195.982 41.062L197.104 39.9398L198.219 41.062L197.104 42.1842L195.982 41.062ZM204.739 52.5665L205.861 51.4442L206.977 52.5665L205.861 53.6887L204.739 52.5665ZM202.336 52.5665L203.458 51.4442L204.574 52.5665L203.458 53.6887L202.336 52.5665ZM206.784 44.3805C206.908 44.9037 207.009 45.4017 207.087 45.8745C207.165 46.3472 207.204 46.7855 207.204 47.1895C207.204 47.7861 207.091 48.3071 206.866 48.7523C206.646 49.1975 206.279 49.5417 205.765 49.785C205.255 50.0283 204.569 50.1499 203.706 50.1499H201.958C201.87 50.1499 201.808 50.0971 201.772 49.9916C201.73 49.8814 201.71 49.6749 201.71 49.3719C201.71 49.0736 201.73 48.8716 201.772 48.7661C201.808 48.6559 201.87 48.6008 201.958 48.6008H203.706C204.211 48.6008 204.608 48.5435 204.897 48.4287C205.187 48.3094 205.391 48.135 205.51 47.9055C205.634 47.676 205.696 47.3891 205.696 47.0449C205.696 46.7557 205.662 46.4207 205.593 46.0397C205.524 45.6587 205.434 45.2388 205.324 44.7798L206.784 44.3805ZM210.316 45.84L211.789 45.3443C212.037 46.1567 212.225 46.8773 212.354 47.5062C212.482 48.1304 212.546 48.7087 212.546 49.2411C212.546 50.0076 212.397 50.6915 212.099 51.2928C211.805 51.894 211.339 52.4311 210.701 52.9038C210.063 53.3812 209.233 53.8103 208.209 54.1913L207.541 52.7868C208.377 52.4838 209.047 52.1671 209.552 51.8367C210.056 51.5062 210.421 51.1321 210.646 50.7145C210.876 50.2968 210.99 49.8103 210.99 49.2549C210.99 48.8234 210.933 48.3277 210.818 47.7678C210.708 47.2032 210.541 46.5606 210.316 45.84ZM214.212 40.5043H215.768V46.976C215.768 47.5589 215.888 47.9766 216.126 48.2291C216.37 48.4769 216.826 48.6008 217.497 48.6008H217.503V50.1499H217.497C216.441 50.1499 215.628 49.8883 215.059 49.365C214.495 48.8372 214.212 48.05 214.212 47.0036V40.5043ZM220.588 44.3805C220.712 44.9037 220.813 45.4017 220.891 45.8745C220.969 46.3472 221.008 46.7855 221.008 47.1895C221.008 47.7861 220.9 48.3071 220.684 48.7523C220.473 49.1975 220.133 49.5417 219.665 49.785C219.197 50.0283 218.584 50.1499 217.827 50.1499H217.51C217.428 50.1499 217.368 50.0971 217.331 49.9916C217.29 49.8814 217.269 49.6749 217.269 49.3719C217.269 49.0736 217.29 48.8716 217.331 48.7661C217.368 48.6559 217.428 48.6008 217.51 48.6008H217.827C218.424 48.6008 218.851 48.47 219.108 48.2084C219.369 47.9468 219.5 47.5589 219.5 47.0449C219.5 46.7557 219.463 46.4207 219.39 46.0397C219.321 45.6587 219.234 45.2388 219.128 44.7798L220.588 44.3805ZM219.321 42.2324L220.443 41.1102L221.559 42.2324L220.443 43.3546L219.321 42.2324ZM216.918 42.2324L218.04 41.1102L219.156 42.2324L218.04 43.3546L216.918 42.2324Z" fill="#D79C10"/>
<path d="M71.9664 71.7948L71.9342 71.7489C71.7935 71.7887 71.6374 71.8223 71.4661 71.8499C71.2978 71.8743 71.1218 71.8866 70.9382 71.8866C70.4486 71.8866 70.0646 71.7672 69.7862 71.5286C69.5077 71.2868 69.3685 70.9181 69.3685 70.4224C69.3685 70.0491 69.4282 69.6942 69.5475 69.3576C69.6668 69.021 69.8458 68.7456 70.0845 68.5314C70.3263 68.3172 70.6307 68.2101 70.9979 68.2101C71.3345 68.2101 71.6191 68.3034 71.8516 68.4901C72.0872 68.6767 72.2769 68.9261 72.4208 69.2382C72.5646 69.5473 72.6686 69.89 72.7329 70.2664C72.8002 70.6427 72.8338 71.0191 72.8338 71.3955C72.8338 72.1115 72.5539 72.7066 71.9939 73.1809C71.4339 73.6583 70.6338 74.0423 69.5934 74.333L69.217 73.4838C69.9943 73.3033 70.6246 73.0677 71.1081 72.777C71.5915 72.4863 71.8776 72.1589 71.9664 71.7948ZM71.9755 70.8584C71.9664 70.6718 71.9434 70.479 71.9067 70.2801C71.87 70.0812 71.8134 69.8961 71.7369 69.7248C71.6604 69.5534 71.5594 69.4142 71.4339 69.3071C71.3085 69.2 71.1555 69.1464 70.975 69.1464C70.7822 69.1464 70.6215 69.2046 70.493 69.3208C70.3645 69.4371 70.2681 69.584 70.2039 69.7615C70.1427 69.9389 70.1121 70.1195 70.1121 70.3031C70.1121 70.557 70.1886 70.733 70.3416 70.8309C70.4976 70.9288 70.7072 70.9778 70.9704 70.9778C71.1601 70.9778 71.3391 70.9655 71.5074 70.9411C71.6757 70.9166 71.8317 70.889 71.9755 70.8584ZM80.051 73.4747L80.712 72.8137L81.3729 73.4747L80.712 74.1402L80.051 73.4747ZM84.1498 68.1872C84.2201 68.4411 84.2752 68.6951 84.315 68.9491C84.3578 69.203 84.3793 69.4402 84.3793 69.6605C84.3793 70.2113 84.2553 70.6458 84.0075 70.964C83.7627 71.2822 83.371 71.5102 82.8325 71.6479C82.297 71.7825 81.5917 71.8499 80.7166 71.8499C79.8476 71.8499 79.1438 71.7825 78.6052 71.6479C78.0667 71.5133 77.6735 71.2899 77.4256 70.9778C77.1809 70.6626 77.0585 70.2373 77.0585 69.7018C77.0585 69.4907 77.0784 69.2551 77.1181 68.995C77.161 68.7318 77.216 68.4625 77.2834 68.1872L78.0912 68.3753C78.0392 68.5987 77.9948 68.819 77.9581 69.0363C77.9244 69.2535 77.9076 69.4417 77.9076 69.6008C77.9076 69.9497 77.9963 70.2189 78.1738 70.4086C78.3513 70.5984 78.645 70.7315 79.055 70.808C79.4651 70.8814 80.0189 70.9181 80.7166 70.9181C81.4234 70.9181 81.9818 70.8799 82.3919 70.8034C82.8019 70.7238 83.0926 70.5876 83.2639 70.3949C83.4383 70.199 83.5256 69.9252 83.5256 69.5733C83.5256 69.4081 83.5087 69.2199 83.4751 69.0087C83.4445 68.7976 83.4032 68.5865 83.3511 68.3753L84.1498 68.1872ZM85.4946 65.6673H86.3896V69.7844C86.3896 70.1914 86.4799 70.4821 86.6604 70.6565C86.844 70.8309 87.1668 70.9181 87.6289 70.9181H87.6335V71.8499H87.6289C86.9373 71.8499 86.408 71.68 86.0408 71.3404C85.6767 70.9977 85.4946 70.4851 85.4946 69.8028V65.6673ZM89.6163 67.7878C89.7754 67.7878 89.9666 67.823 90.19 67.8934C90.4164 67.9607 90.7469 68.0923 91.1814 68.2881C91.6006 68.4687 91.9571 68.611 92.2508 68.715C92.5477 68.819 92.8399 68.9062 93.1275 68.9766V69.7477L92.104 70.3031V70.349C92.309 70.5662 92.5293 70.7162 92.7649 70.7988C93.0036 70.8783 93.2514 70.9181 93.5085 70.9181H93.7747V71.8499H93.4947C93.1061 71.8499 92.742 71.7626 92.4023 71.5882C92.0657 71.4138 91.7567 71.1185 91.4752 70.7024L90.8509 71.0512C90.3614 71.3358 89.907 71.5408 89.4878 71.6663C89.0686 71.7887 88.6249 71.8499 88.1567 71.8499H87.6381C87.586 71.8499 87.5478 71.8147 87.5233 71.7443C87.4988 71.6708 87.4866 71.55 87.4866 71.3817C87.4866 71.2165 87.4988 71.0986 87.5233 71.0283C87.5478 70.9548 87.586 70.9181 87.6381 70.9181H88.3219C88.5667 70.9181 88.7962 70.8998 89.0104 70.863C89.2277 70.8233 89.4526 70.7605 89.6851 70.6749C89.9207 70.5861 90.1869 70.4668 90.4838 70.3168L91.9938 69.5274V69.4815C91.8163 69.4356 91.6251 69.3759 91.4201 69.3025C91.2181 69.2291 90.984 69.1357 90.7178 69.0225C90.418 68.9032 90.1839 68.819 90.0156 68.7701C89.8504 68.7181 89.7157 68.692 89.6117 68.692C89.4097 68.692 89.243 68.7563 89.1114 68.8848C88.9798 69.0133 88.8559 69.2291 88.7396 69.532L88.7029 69.6192L88.042 69.4081L88.0741 69.3208C88.2516 68.7792 88.4612 68.3891 88.7029 68.1504C88.9477 67.9087 89.2521 67.7878 89.6163 67.7878ZM89.7815 66.007L90.4424 65.346L91.1034 66.007L90.4424 66.6725L89.7815 66.007ZM96.1568 69.5825C96.1568 69.8854 96.1859 70.1363 96.244 70.3352C96.3021 70.531 96.4138 70.6779 96.5791 70.7758C96.7474 70.8707 96.9967 70.9181 97.3272 70.9181H97.621V71.8499H97.3134C96.9248 71.8499 96.5867 71.7565 96.2991 71.5699C96.0145 71.3832 95.8233 71.1185 95.7254 70.7758H95.6795C95.5815 71.1185 95.3735 71.3832 95.0552 71.5699C94.7401 71.7565 94.3867 71.8499 93.995 71.8499H93.7793C93.6783 71.8499 93.6278 71.6938 93.6278 71.3817C93.6278 71.0726 93.6783 70.9181 93.7793 70.9181H93.995C94.3499 70.9181 94.6177 70.8692 94.7982 70.7712C94.9818 70.6733 95.1042 70.5264 95.1654 70.3306C95.2297 70.1317 95.2618 69.8823 95.2618 69.5825V68.9215H96.1568V69.5825ZM93.7884 67.2003L94.4494 66.5394L95.1149 67.2003L94.4494 67.8659L93.7884 67.2003ZM95.3903 67.2003L96.0512 66.5394L96.7168 67.2003L96.0512 67.8659L95.3903 67.2003ZM99.6313 68.2147C99.72 68.5513 99.7889 68.868 99.8379 69.1648C99.8899 69.4616 99.9159 69.7278 99.9159 69.9634C99.9159 70.5754 99.7476 71.0436 99.411 71.3679C99.0775 71.6892 98.5542 71.8499 97.8413 71.8499H97.6256C97.5246 71.8499 97.4741 71.6938 97.4741 71.3817C97.4741 71.0726 97.5246 70.9181 97.6256 70.9181H97.8413C98.2727 70.9181 98.5818 70.8324 98.7684 70.6611C98.9551 70.4897 99.0484 70.2327 99.0484 69.89C99.0484 69.7186 99.0255 69.5106 98.9796 69.2658C98.9337 69.0179 98.874 68.7441 98.8006 68.4442L99.6313 68.2147ZM98.0524 66.5302L98.7133 65.8693L99.3743 66.5302L98.7133 67.1958L98.0524 66.5302ZM101.995 71.8499H101.105V65.6673H101.995V71.8499ZM107.711 68.9583L108.046 69.3025C107.603 69.7462 107.363 70.222 107.326 70.7299L107.386 70.7483C107.483 70.6718 107.592 70.6335 107.711 70.6335C107.867 70.6335 108.001 70.6886 108.111 70.7988C108.221 70.9089 108.276 71.0528 108.276 71.2302C108.276 71.4352 108.212 71.5944 108.083 71.7076C107.958 71.8208 107.791 71.8774 107.583 71.8774C107.347 71.8774 107.162 71.7963 107.028 71.6341C106.896 71.4689 106.83 71.2363 106.83 70.9365C106.83 70.1684 107.124 69.509 107.711 68.9583ZM112.733 68.1734C113.033 68.1734 113.28 68.2361 113.476 68.3616C113.672 68.484 113.836 68.6461 113.967 68.8481C114.099 69.05 114.217 69.2719 114.321 69.5136C114.419 69.7431 114.527 69.965 114.647 70.1792C114.769 70.3933 114.921 70.5708 115.101 70.7116C115.282 70.8493 115.506 70.9181 115.776 70.9181H115.78V71.8499H115.776C115.412 71.8499 115.115 71.7504 114.885 71.5515C114.659 71.3526 114.469 71.065 114.316 70.6886L114.27 70.6932C114.231 71.0329 114.12 71.319 113.94 71.5515C113.759 71.7841 113.492 71.9003 113.137 71.9003C112.932 71.9003 112.716 71.8789 112.489 71.8361C112.263 71.7932 112.009 71.7382 111.728 71.6708C111.317 71.5576 111.01 71.501 110.805 71.501C110.627 71.501 110.497 71.5546 110.415 71.6617C110.332 71.7657 110.291 71.934 110.291 72.1666V74.9801H109.396V72.0197C109.396 71.5332 109.517 71.1507 109.758 70.8722C110.003 70.5938 110.352 70.4775 110.805 70.5234C110.881 70.1287 110.998 69.7523 111.154 69.3943C111.31 69.0332 111.516 68.7395 111.773 68.513C112.034 68.2866 112.353 68.1734 112.733 68.1734ZM112.719 69.0868C112.483 69.0868 112.294 69.1694 112.15 69.3346C112.006 69.4999 111.894 69.7049 111.815 69.9497C111.735 70.1914 111.669 70.4316 111.617 70.6703C111.694 70.6886 111.778 70.71 111.87 70.7345C111.962 70.7559 112.047 70.7774 112.127 70.7988C112.326 70.8477 112.497 70.889 112.641 70.9227C112.785 70.9533 112.921 70.9686 113.049 70.9686C113.242 70.9686 113.383 70.9089 113.472 70.7896C113.56 70.6672 113.605 70.4744 113.605 70.2113C113.605 70.0277 113.574 69.8502 113.513 69.6789C113.455 69.5075 113.36 69.3667 113.228 69.2566C113.1 69.1434 112.93 69.0868 112.719 69.0868ZM117.786 68.2147C117.875 68.5513 117.944 68.868 117.993 69.1648C118.045 69.4616 118.071 69.7278 118.071 69.9634C118.071 70.5754 117.902 71.0436 117.566 71.3679C117.232 71.6892 116.709 71.8499 115.996 71.8499H115.78C115.679 71.8499 115.629 71.6938 115.629 71.3817C115.629 71.0726 115.679 70.9181 115.78 70.9181H115.996C116.428 70.9181 116.737 70.8324 116.923 70.6611C117.11 70.4897 117.203 70.2327 117.203 69.89C117.203 69.7186 117.18 69.5106 117.134 69.2658C117.088 69.0179 117.029 68.7441 116.955 68.4442L117.786 68.2147ZM114.913 73.4747L115.574 72.8137L116.239 73.4747L115.574 74.1402L114.913 73.4747ZM116.515 73.4747L117.176 72.8137L117.841 73.4747L117.176 74.1402L116.515 73.4747ZM121.609 71.8728L121.582 71.8223C121.411 71.8346 121.239 71.8422 121.068 71.8453C120.896 71.8483 120.73 71.8499 120.568 71.8499C120.084 71.8499 119.703 71.732 119.425 71.4964C119.146 71.2578 119.007 70.889 119.007 70.3903C119.007 70.02 119.067 69.6697 119.186 69.3392C119.305 69.0057 119.486 68.7349 119.728 68.5268C119.969 68.3157 120.272 68.2101 120.636 68.2101C120.945 68.2101 121.209 68.2897 121.426 68.4488C121.643 68.6048 121.822 68.8144 121.963 69.0776C122.107 69.3377 122.217 69.6284 122.293 69.9497C122.37 70.2679 122.42 70.5907 122.445 70.9181H122.784V71.8499H122.417C122.332 72.4404 122.012 72.9376 121.458 73.3416C120.907 73.7455 120.165 74.0759 119.232 74.333L118.856 73.4838C119.611 73.3094 120.232 73.083 120.719 72.8045C121.209 72.5292 121.505 72.2186 121.609 71.8728ZM121.623 70.9365C121.617 70.7468 121.596 70.5479 121.559 70.3398C121.522 70.1317 121.466 69.9374 121.389 69.7569C121.313 69.5764 121.21 69.4295 121.082 69.3163C120.956 69.203 120.8 69.1464 120.613 69.1464C120.421 69.1464 120.26 69.2015 120.132 69.3117C120.003 69.4218 119.907 69.5626 119.842 69.7339C119.781 69.9053 119.751 70.0828 119.751 70.2664C119.751 70.5234 119.829 70.7024 119.985 70.8034C120.141 70.9013 120.349 70.9502 120.609 70.9502C120.774 70.9502 120.941 70.9502 121.109 70.9502C121.281 70.9472 121.452 70.9426 121.623 70.9365ZM123.62 65.8188L124.281 65.1579L124.946 65.8188L124.281 66.4843L123.62 65.8188ZM125.222 65.8188L125.883 65.1579L126.548 65.8188L125.883 66.4843L125.222 65.8188ZM123.335 69.2795C123.335 68.9093 123.412 68.588 123.565 68.3157C123.721 68.0433 123.93 67.8337 124.194 67.6869C124.46 67.5369 124.758 67.462 125.089 67.462C125.416 67.462 125.711 67.5369 125.974 67.6869C126.241 67.8368 126.452 68.0479 126.608 68.3203C126.764 68.5895 126.842 68.9078 126.842 69.275C126.842 69.6115 126.758 69.9038 126.589 70.1516C126.421 70.3995 126.207 70.6029 125.947 70.7621L125.961 70.8034C126.23 70.8799 126.531 70.9181 126.865 70.9181H127.397V71.8499H126.778C126.423 71.8499 126.112 71.8085 125.846 71.7259C125.583 71.6433 125.326 71.527 125.075 71.3771C124.827 71.527 124.57 71.6433 124.304 71.7259C124.041 71.8085 123.733 71.8499 123.381 71.8499H122.784C122.68 71.8499 122.628 71.6938 122.628 71.3817C122.628 71.0726 122.68 70.9181 122.784 70.9181H123.262C123.608 70.9181 123.929 70.8799 124.226 70.8034L124.239 70.7621C123.979 70.6029 123.764 70.401 123.592 70.1562C123.421 69.9114 123.335 69.6192 123.335 69.2795ZM125.084 70.5647C125.347 70.4331 125.56 70.2664 125.722 70.0644C125.884 69.8625 125.965 69.6131 125.965 69.3163C125.965 69.0409 125.883 68.816 125.717 68.6416C125.555 68.4671 125.346 68.3799 125.089 68.3799C124.828 68.3799 124.616 68.4671 124.451 68.6416C124.288 68.8129 124.207 69.0378 124.207 69.3163C124.207 69.6039 124.288 69.8502 124.451 70.0552C124.616 70.2602 124.827 70.4301 125.084 70.5647ZM129.408 68.2147C129.496 68.5513 129.565 68.868 129.614 69.1648C129.666 69.4616 129.692 69.7278 129.692 69.9634C129.692 70.5754 129.524 71.0436 129.187 71.3679C128.854 71.6892 128.331 71.8499 127.618 71.8499H127.402C127.301 71.8499 127.25 71.6938 127.25 71.3817C127.25 71.0726 127.301 70.9181 127.402 70.9181H127.618C128.049 70.9181 128.358 70.8324 128.545 70.6611C128.731 70.4897 128.825 70.2327 128.825 69.89C128.825 69.7186 128.802 69.5106 128.756 69.2658C128.71 69.0179 128.65 68.7441 128.577 68.4442L129.408 68.2147ZM127.094 66.5945L127.755 65.9335L128.421 66.5945L127.755 67.26L127.094 66.5945ZM128.696 66.5945L129.357 65.9335L130.023 66.5945L129.357 67.26L128.696 66.5945ZM134.371 69.0592L135.207 68.7655C135.378 69.2734 135.513 69.7462 135.61 70.1837C135.711 70.6182 135.762 71.0114 135.762 71.3633C135.762 72.0487 135.537 72.6286 135.087 73.1029C134.64 73.5802 133.932 73.9948 132.962 74.3467L132.567 73.5068C133.372 73.2253 133.96 72.9223 134.33 72.598C134.7 72.2736 134.885 71.8697 134.885 71.3863C134.885 71.1048 134.838 70.7575 134.743 70.3444C134.651 69.9313 134.527 69.5029 134.371 69.0592ZM134.183 66.8699L134.844 66.2089L135.505 66.8699L134.844 67.5354L134.183 66.8699ZM137.919 71.8499H137.029V65.6673H137.919V71.8499ZM143.718 71.8499H142.828V65.6673H143.718V71.8499ZM145.366 69.0592L146.201 68.7655C146.373 69.2734 146.507 69.7462 146.605 70.1837C146.706 70.6182 146.757 71.0114 146.757 71.3633C146.757 72.0487 146.532 72.6286 146.082 73.1029C145.635 73.5802 144.927 73.9948 143.957 74.3467L143.562 73.5068C144.367 73.2253 144.954 72.9223 145.325 72.598C145.695 72.2736 145.88 71.8697 145.88 71.3863C145.88 71.1048 145.832 70.7575 145.738 70.3444C145.646 69.9313 145.522 69.5029 145.366 69.0592ZM154.873 70.0552C154.873 70.4806 154.762 70.8278 154.538 71.0971C154.315 71.3664 154.018 71.5653 153.648 71.6938C153.278 71.8193 152.872 71.882 152.432 71.882C152.214 71.882 151.988 71.8667 151.752 71.8361C151.52 71.8055 151.28 71.7581 151.032 71.6938L151.238 70.8171C151.455 70.8661 151.66 70.9028 151.853 70.9273C152.049 70.9487 152.236 70.9594 152.413 70.9594C152.906 70.9594 153.291 70.8829 153.57 70.7299C153.851 70.5739 153.992 70.3444 153.992 70.0415C153.992 69.7569 153.854 69.4172 153.579 69.0225C153.307 68.6278 152.926 68.2132 152.436 67.7787L153.033 67.0718C153.645 67.6165 154.104 68.1351 154.41 68.6278C154.719 69.1174 154.873 69.5932 154.873 70.0552ZM158.421 71.8728L158.394 71.8223C158.222 71.8346 158.051 71.8422 157.88 71.8453C157.708 71.8483 157.542 71.8499 157.379 71.8499C156.896 71.8499 156.515 71.732 156.237 71.4964C155.958 71.2578 155.819 70.889 155.819 70.3903C155.819 70.02 155.879 69.6697 155.998 69.3392C156.117 69.0057 156.298 68.7349 156.539 68.5268C156.781 68.3157 157.084 68.2101 157.448 68.2101C157.757 68.2101 158.02 68.2897 158.238 68.4488C158.455 68.6048 158.634 68.8144 158.775 69.0776C158.919 69.3377 159.029 69.6284 159.105 69.9497C159.182 70.2679 159.232 70.5907 159.257 70.9181H159.596V71.8499H159.229C159.143 72.4404 158.824 72.9376 158.27 73.3416C157.719 73.7455 156.977 74.0759 156.044 74.333L155.667 73.4838C156.423 73.3094 157.044 73.083 157.531 72.8045C158.02 72.5292 158.317 72.2186 158.421 71.8728ZM158.435 70.9365C158.429 70.7468 158.408 70.5479 158.371 70.3398C158.334 70.1317 158.277 69.9374 158.201 69.7569C158.125 69.5764 158.022 69.4295 157.893 69.3163C157.768 69.203 157.612 69.1464 157.425 69.1464C157.233 69.1464 157.072 69.2015 156.943 69.3117C156.815 69.4218 156.718 69.5626 156.654 69.7339C156.593 69.9053 156.562 70.0828 156.562 70.2664C156.562 70.5234 156.64 70.7024 156.797 70.8034C156.953 70.9013 157.161 70.9502 157.421 70.9502C157.586 70.9502 157.753 70.9502 157.921 70.9502C158.092 70.9472 158.264 70.9426 158.435 70.9365ZM161.575 67.7878C161.734 67.7878 161.925 67.8246 162.148 67.898C162.375 67.9684 162.705 68.0984 163.14 68.2881C163.559 68.4687 163.915 68.611 164.209 68.715C164.506 68.819 164.798 68.9062 165.086 68.9766V69.7477L162.809 71.0512C162.32 71.3358 161.865 71.5408 161.446 71.6663C161.027 71.7887 160.583 71.8499 160.115 71.8499H159.596C159.544 71.8499 159.506 71.8147 159.482 71.7443C159.457 71.6708 159.445 71.55 159.445 71.3817C159.445 71.2165 159.457 71.0986 159.482 71.0283C159.506 70.9548 159.544 70.9181 159.596 70.9181H160.28C160.525 70.9181 160.754 70.8998 160.969 70.863C161.186 70.8233 161.411 70.7605 161.643 70.6749C161.879 70.5861 162.145 70.4668 162.442 70.3168L163.952 69.5274V69.4815C163.775 69.4356 163.583 69.3759 163.378 69.3025C163.176 69.2291 162.942 69.1357 162.676 69.0225C162.376 68.9032 162.142 68.819 161.974 68.7701C161.809 68.7181 161.674 68.692 161.57 68.692C161.368 68.692 161.201 68.7563 161.07 68.8848C160.938 69.0133 160.814 69.2291 160.698 69.532L160.661 69.6192L160 69.4081L160.032 69.3208C160.207 68.7792 160.416 68.3891 160.661 68.1504C160.906 67.9087 161.21 67.7878 161.575 67.7878ZM161.74 66.007L162.401 65.346L163.062 66.007L162.401 66.6725L161.74 66.007ZM169.769 69.0592L170.605 68.7655L170.908 69.6972C171.006 70.0001 171.114 70.2419 171.234 70.4224C171.356 70.5999 171.51 70.7269 171.697 70.8034C171.884 70.8799 172.127 70.9181 172.427 70.9181H172.431V71.8499H172.427C171.833 71.8499 171.397 71.6525 171.119 71.2578L171.073 71.2715C171.125 72.0243 170.923 72.6378 170.467 73.1121C170.014 73.5894 169.312 74.001 168.36 74.3467L167.966 73.5068C168.798 73.2161 169.391 72.907 169.746 72.5796C170.104 72.2553 170.283 71.8575 170.283 71.3863C170.283 71.117 170.238 70.7804 170.146 70.3765C170.057 69.9726 169.932 69.5335 169.769 69.0592ZM175.878 66.4201L176.539 65.7591L177.2 66.4201L176.539 67.0856L175.878 66.4201ZM172.436 71.8499C172.335 71.8499 172.285 71.6938 172.285 71.3817C172.285 71.0726 172.335 70.9181 172.436 70.9181H173.102C173.144 70.8569 173.184 70.7972 173.221 70.7391C173.258 70.6779 173.296 70.6182 173.336 70.5601V65.6673H174.226V68.5589C174.226 68.7854 174.211 69.0011 174.18 69.2061C174.15 69.4081 174.098 69.6177 174.024 69.8349L174.065 69.867C174.941 68.7502 175.781 68.1917 176.585 68.1917C176.922 68.1917 177.21 68.2667 177.448 68.4167C177.69 68.5635 177.875 68.7655 178.004 69.0225C178.132 69.2795 178.196 69.5718 178.196 69.8992C178.196 70.0216 178.184 70.144 178.16 70.2664C178.135 70.3857 178.092 70.5004 178.031 70.6106C178.141 70.7085 178.273 70.785 178.426 70.8401C178.579 70.8921 178.758 70.9181 178.963 70.9181H178.967V71.8499H178.963C178.645 71.8499 178.377 71.7963 178.16 71.6892C177.945 71.5791 177.757 71.4352 177.595 71.2578C177.375 71.4414 177.081 71.5867 176.714 71.6938C176.347 71.7978 175.886 71.8499 175.332 71.8499H172.436ZM174.098 70.9181H175.52C175.833 70.9181 176.129 70.8936 176.411 70.8447C176.692 70.7927 176.922 70.6978 177.099 70.5601C177.277 70.4194 177.366 70.2143 177.366 69.9451C177.366 69.7033 177.283 69.5044 177.118 69.3484C176.952 69.1893 176.734 69.1097 176.461 69.1097C176.272 69.1097 176.059 69.1602 175.823 69.2612C175.588 69.3622 175.328 69.5442 175.043 69.8074C174.759 70.0675 174.443 70.4377 174.098 70.9181ZM180.978 68.2147C181.067 68.5513 181.135 68.868 181.184 69.1648C181.236 69.4616 181.262 69.7278 181.262 69.9634C181.262 70.5754 181.094 71.0436 180.757 71.3679C180.424 71.6892 179.901 71.8499 179.188 71.8499H178.972C178.871 71.8499 178.821 71.6938 178.821 71.3817C178.821 71.0726 178.871 70.9181 178.972 70.9181H179.188C179.619 70.9181 179.928 70.8324 180.115 70.6611C180.302 70.4897 180.395 70.2327 180.395 69.89C180.395 69.7186 180.372 69.5106 180.326 69.2658C180.28 69.0179 180.22 68.7441 180.147 68.4442L180.978 68.2147ZM179.399 66.5302L180.06 65.8693L180.721 66.5302L180.06 67.1958L179.399 66.5302ZM185.926 70.0552C185.926 70.4806 185.814 70.8278 185.591 71.0971C185.367 71.3664 185.07 71.5653 184.7 71.6938C184.33 71.8193 183.924 71.882 183.484 71.882C183.267 71.882 183.04 71.8667 182.805 71.8361C182.572 71.8055 182.332 71.7581 182.084 71.6938L182.29 70.8171C182.508 70.8661 182.713 70.9028 182.906 70.9273C183.101 70.9487 183.288 70.9594 183.465 70.9594C183.958 70.9594 184.344 70.8829 184.622 70.7299C184.904 70.5739 185.044 70.3444 185.044 70.0415C185.044 69.7569 184.907 69.4172 184.631 69.0225C184.359 68.6278 183.978 68.2132 183.488 67.7787L184.085 67.0718C184.697 67.6165 185.156 68.1351 185.462 68.6278C185.771 69.1174 185.926 69.5932 185.926 70.0552ZM187.238 69.0592L188.074 68.7655C188.245 69.2734 188.38 69.7462 188.478 70.1837C188.579 70.6182 188.629 71.0114 188.629 71.3633C188.629 72.0487 188.404 72.6286 187.954 73.1029C187.508 73.5802 186.799 73.9948 185.829 74.3467L185.435 73.5068C186.239 73.2253 186.827 72.9223 187.197 72.598C187.567 72.2736 187.752 71.8697 187.752 71.3863C187.752 71.1048 187.705 70.7575 187.61 70.3444C187.518 69.9313 187.394 69.5029 187.238 69.0592ZM192.246 71.8728L192.218 71.8223C192.047 71.8346 191.876 71.8422 191.704 71.8453C191.533 71.8483 191.366 71.8499 191.204 71.8499C190.72 71.8499 190.34 71.732 190.061 71.4964C189.783 71.2578 189.643 70.889 189.643 70.3903C189.643 70.02 189.703 69.6697 189.822 69.3392C189.942 69.0057 190.122 68.7349 190.364 68.5268C190.606 68.3157 190.909 68.2101 191.273 68.2101C191.582 68.2101 191.845 68.2897 192.062 68.4488C192.28 68.6048 192.459 68.8144 192.599 69.0776C192.743 69.3377 192.853 69.6284 192.93 69.9497C193.006 70.2679 193.057 70.5907 193.081 70.9181H193.421V71.8499H193.054C192.968 72.4404 192.648 72.9376 192.094 73.3416C191.544 73.7455 190.802 74.0759 189.868 74.333L189.492 73.4838C190.248 73.3094 190.869 73.083 191.355 72.8045C191.845 72.5292 192.142 72.2186 192.246 71.8728ZM192.26 70.9365C192.253 70.7468 192.232 70.5479 192.195 70.3398C192.159 70.1317 192.102 69.9374 192.026 69.7569C191.949 69.5764 191.847 69.4295 191.718 69.3163C191.593 69.203 191.436 69.1464 191.25 69.1464C191.057 69.1464 190.896 69.2015 190.768 69.3117C190.639 69.4218 190.543 69.5626 190.479 69.7339C190.418 69.9053 190.387 70.0828 190.387 70.2664C190.387 70.5234 190.465 70.7024 190.621 70.8034C190.777 70.9013 190.985 70.9502 191.245 70.9502C191.41 70.9502 191.577 70.9502 191.746 70.9502C191.917 70.9472 192.088 70.9426 192.26 70.9365ZM193.421 70.9181C193.675 70.9181 193.883 70.8646 194.045 70.7575C194.21 70.6473 194.354 70.4928 194.477 70.2939C194.602 70.095 194.73 69.864 194.862 69.6008C195.009 69.3071 195.156 69.0531 195.303 68.8389C195.45 68.6217 195.616 68.4534 195.803 68.334C195.993 68.2147 196.222 68.155 196.491 68.155C196.816 68.155 197.102 68.2514 197.35 68.4442C197.598 68.637 197.79 68.8879 197.928 69.1969C198.069 69.506 198.139 69.8349 198.139 70.1837C198.139 70.71 197.998 71.1277 197.717 71.4368C197.435 71.7458 197.056 71.9003 196.579 71.9003C196.233 71.9003 195.921 71.8193 195.642 71.6571C195.364 71.4918 195.121 71.2669 194.913 70.9824C194.735 71.2516 194.535 71.4643 194.311 71.6204C194.088 71.7734 193.791 71.8499 193.421 71.8499C193.32 71.8499 193.269 71.6938 193.269 71.3817C193.269 71.0726 193.32 70.9181 193.421 70.9181ZM195.362 70.3398C195.561 70.5448 195.759 70.7024 195.954 70.8125C196.15 70.9196 196.36 70.9732 196.583 70.9732C196.819 70.9732 197.006 70.8998 197.143 70.7529C197.284 70.606 197.354 70.4117 197.354 70.17C197.354 70.0017 197.316 69.8334 197.24 69.6651C197.163 69.4968 197.059 69.3576 196.927 69.2474C196.796 69.1342 196.646 69.0776 196.478 69.0776C196.233 69.0776 196.04 69.1709 195.899 69.3576C195.762 69.5442 195.63 69.7707 195.505 70.0369L195.362 70.3398ZM204.209 67.6777C204.38 67.6777 204.584 67.7144 204.819 67.7878C205.055 67.8582 205.367 67.9806 205.756 68.155C206.245 68.3723 206.64 68.5375 206.94 68.6507C207.243 68.7639 207.524 68.8527 207.784 68.9169L207.683 69.9267C207.515 69.9481 207.364 69.9695 207.229 69.991C207.097 70.0124 206.978 70.0353 206.871 70.0598V70.1057C207.012 70.3933 207.188 70.6014 207.399 70.7299C207.61 70.8554 207.878 70.9181 208.202 70.9181H208.478V71.8499H208.303C207.786 71.8499 207.367 71.7183 207.045 71.4551C206.724 71.1889 206.482 70.7804 206.32 70.2296C205.745 70.3551 205.232 70.5433 204.783 70.7942C204.336 71.0451 203.984 71.3343 203.727 71.6617C203.47 71.986 203.341 72.3241 203.341 72.676C203.341 73.1197 203.548 73.4747 203.961 73.7409C204.377 74.0071 204.936 74.1402 205.636 74.1402C206.016 74.1402 206.386 74.1019 206.747 74.0254C207.111 73.952 207.446 73.8449 207.752 73.7042L208.156 74.5166C207.324 74.9021 206.482 75.0949 205.632 75.0949C204.995 75.0949 204.44 74.9985 203.966 74.8057C203.494 74.6129 203.127 74.3406 202.864 73.9887C202.604 73.6399 202.474 73.2314 202.474 72.7632C202.474 72.2339 202.645 71.7428 202.988 71.2899C203.334 70.834 203.817 70.4438 204.438 70.1195C205.06 69.7921 205.783 69.5595 206.609 69.4218V69.3759C206.438 69.3331 206.251 69.275 206.049 69.2015C205.848 69.1281 205.601 69.0317 205.311 68.9124C205.005 68.79 204.769 68.7043 204.604 68.6553C204.438 68.6033 204.305 68.5773 204.204 68.5773C204.002 68.5773 203.834 68.6416 203.699 68.7701C203.568 68.8986 203.444 69.1143 203.328 69.4172L203.296 69.5044L202.639 69.3025L202.667 69.2061C202.841 68.6676 203.049 68.279 203.291 68.0403C203.533 67.7986 203.839 67.6777 204.209 67.6777ZM204.627 65.8693L205.288 65.2083L205.948 65.8693L205.288 66.5348L204.627 65.8693ZM208.826 73.4747L209.487 72.8137L210.153 73.4747L209.487 74.1402L208.826 73.4747ZM210.428 73.4747L211.089 72.8137L211.755 73.4747L211.089 74.1402L210.428 73.4747ZM211.658 68.2147C211.747 68.5513 211.816 68.868 211.865 69.1648C211.917 69.4616 211.943 69.7278 211.943 69.9634C211.943 70.5754 211.77 71.0436 211.424 71.3679C211.078 71.6892 210.509 71.8499 209.717 71.8499H208.482C208.381 71.8499 208.331 71.6938 208.331 71.3817C208.331 71.0726 208.381 70.9181 208.482 70.9181H209.717C210.228 70.9181 210.581 70.8324 210.777 70.6611C210.976 70.4897 211.075 70.2327 211.075 69.89C211.075 69.7186 211.052 69.5106 211.007 69.2658C210.961 69.0179 210.901 68.7441 210.827 68.4442L211.658 68.2147ZM214.169 69.0592L215.004 68.7655C215.176 69.2734 215.31 69.7462 215.408 70.1837C215.509 70.6182 215.56 71.0114 215.56 71.3633C215.56 72.0487 215.335 72.6286 214.885 73.1029C214.438 73.5802 213.73 73.9948 212.76 74.3467L212.365 73.5068C213.17 73.2253 213.757 72.9223 214.128 72.598C214.498 72.2736 214.683 71.8697 214.683 71.3863C214.683 71.1048 214.636 70.7575 214.541 70.3444C214.449 69.9313 214.325 69.5029 214.169 69.0592ZM216.748 65.6673H217.643V69.7844C217.643 70.1914 217.734 70.4821 217.914 70.6565C218.098 70.8309 218.421 70.9181 218.883 70.9181H218.887V71.8499H218.883C218.191 71.8499 217.662 71.68 217.295 71.3404C216.93 70.9977 216.748 70.4851 216.748 69.8028V65.6673ZM220.898 68.2147C220.986 68.5513 221.055 68.868 221.104 69.1648C221.156 69.4616 221.182 69.7278 221.182 69.9634C221.182 70.5754 221.014 71.0436 220.677 71.3679C220.344 71.6892 219.821 71.8499 219.108 71.8499H218.892C218.791 71.8499 218.74 71.6938 218.74 71.3817C218.74 71.0726 218.791 70.9181 218.892 70.9181H219.108C219.539 70.9181 219.848 70.8324 220.035 70.6611C220.221 70.4897 220.315 70.2327 220.315 69.89C220.315 69.7186 220.292 69.5106 220.246 69.2658C220.2 69.0179 220.14 68.7441 220.067 68.4442L220.898 68.2147ZM218.584 66.5945L219.245 65.9335L219.911 66.5945L219.245 67.26L218.584 66.5945ZM220.186 66.5945L220.847 65.9335L221.513 66.5945L220.847 67.26L220.186 66.5945ZM191.518 84.1361L192.744 87.0047C192.851 87.2526 192.959 87.4423 193.069 87.5739C193.183 87.7055 193.313 87.7957 193.46 87.8447C193.609 87.8936 193.79 87.9181 194.001 87.9181H194.061V88.8499H194.001C193.585 88.8499 193.236 88.7703 192.955 88.6112C192.673 88.449 192.457 88.1813 192.307 87.808H192.262C192.115 88.1537 191.865 88.4215 191.513 88.6112C191.162 88.8009 190.77 88.8958 190.338 88.8958C190.032 88.8958 189.725 88.8422 189.416 88.7351C189.107 88.625 188.816 88.4597 188.544 88.2394L188.971 87.4591C189.417 87.7957 189.883 87.964 190.366 87.964C190.657 87.964 190.935 87.9013 191.201 87.7758C191.471 87.6473 191.689 87.4622 191.858 87.2205L190.673 84.54L191.518 84.1361ZM196.438 86.5825C196.438 86.8854 196.467 87.1363 196.526 87.3352C196.584 87.531 196.695 87.6779 196.861 87.7758C197.029 87.8707 197.278 87.9181 197.609 87.9181H197.902V88.8499H197.595C197.206 88.8499 196.868 88.7565 196.581 88.5699C196.296 88.3832 196.105 88.1185 196.007 87.7758H195.961C195.863 88.1185 195.655 88.3832 195.337 88.5699C195.022 88.7565 194.668 88.8499 194.277 88.8499H194.061C193.96 88.8499 193.909 88.6938 193.909 88.3817C193.909 88.0726 193.96 87.9181 194.061 87.9181H194.277C194.631 87.9181 194.899 87.8692 195.08 87.7712C195.263 87.6733 195.386 87.5264 195.447 87.3306C195.511 87.1317 195.543 86.8823 195.543 86.5825V85.9215H196.438V86.5825ZM193.046 90.4747L193.707 89.8137L194.373 90.4747L193.707 91.1402L193.046 90.4747ZM194.648 90.4747L195.309 89.8137L195.975 90.4747L195.309 91.1402L194.648 90.4747ZM200.285 86.5825C200.285 86.8854 200.314 87.1363 200.372 87.3352C200.43 87.531 200.542 87.6779 200.707 87.7758C200.875 87.8707 201.125 87.9181 201.455 87.9181H201.749V88.8499H201.441C201.053 88.8499 200.715 88.7565 200.427 88.5699C200.142 88.3832 199.951 88.1185 199.853 87.7758H199.807C199.709 88.1185 199.501 88.3832 199.183 88.5699C198.868 88.7565 198.514 88.8499 198.123 88.8499H197.907C197.806 88.8499 197.756 88.6938 197.756 88.3817C197.756 88.0726 197.806 87.9181 197.907 87.9181H198.123C198.478 87.9181 198.745 87.8692 198.926 87.7712C199.11 87.6733 199.232 87.5264 199.293 87.3306C199.357 87.1317 199.39 86.8823 199.39 86.5825V85.9215H200.285V86.5825ZM198.692 84.2003L199.353 83.5394L200.014 84.2003L199.353 84.8659L198.692 84.2003ZM205.751 82.5985L205.889 83.521C205.216 83.6832 204.639 83.8362 204.158 83.98C203.681 84.1208 203.26 84.2631 202.896 84.4069L202.892 84.4436C203.409 84.8383 203.825 85.1856 204.14 85.4855C204.455 85.7854 204.685 86.0623 204.829 86.3163C204.975 86.5672 205.049 86.8227 205.049 87.0828C205.049 87.6488 204.815 88.0849 204.347 88.3909C203.878 88.6969 203.21 88.8499 202.341 88.8499H201.753C201.701 88.8499 201.663 88.8147 201.639 88.7443C201.614 88.6708 201.602 88.55 201.602 88.3817C201.602 88.2165 201.614 88.0986 201.639 88.0283C201.663 87.9548 201.701 87.9181 201.753 87.9181H202.323C203.546 87.9181 204.158 87.6228 204.158 87.0323C204.158 86.8579 204.08 86.6666 203.924 86.4585C203.771 86.2505 203.527 86.0057 203.19 85.7242C202.853 85.4427 202.41 85.1045 201.859 84.7098L201.932 83.8607C202.486 83.6067 203.083 83.3726 203.722 83.1584C204.365 82.9443 205.041 82.7576 205.751 82.5985ZM210.616 88.7948L210.584 88.7489C210.443 88.7887 210.287 88.8223 210.116 88.8499C209.948 88.8743 209.772 88.8866 209.588 88.8866C209.099 88.8866 208.715 88.7672 208.436 88.5286C208.158 88.2868 208.018 87.9181 208.018 87.4224C208.018 87.0491 208.078 86.6942 208.198 86.3576C208.317 86.021 208.496 85.7456 208.735 85.5314C208.976 85.3172 209.281 85.2101 209.648 85.2101C209.984 85.2101 210.269 85.3034 210.502 85.4901C210.737 85.6767 210.927 85.9261 211.071 86.2382C211.215 86.5473 211.319 86.89 211.383 87.2664C211.45 87.6427 211.484 88.0191 211.484 88.3955C211.484 89.1115 211.204 89.7066 210.644 90.1809C210.084 90.6583 209.284 91.0423 208.243 91.333L207.867 90.4838C208.644 90.3033 209.275 90.0677 209.758 89.777C210.242 89.4863 210.528 89.1589 210.616 88.7948ZM210.626 87.8584C210.616 87.6718 210.593 87.479 210.557 87.2801C210.52 87.0812 210.463 86.8961 210.387 86.7248C210.31 86.5534 210.209 86.4142 210.084 86.3071C209.958 86.2 209.805 86.1464 209.625 86.1464C209.432 86.1464 209.272 86.2046 209.143 86.3208C209.014 86.4371 208.918 86.584 208.854 86.7615C208.793 86.9389 208.762 87.1195 208.762 87.3031C208.762 87.557 208.839 87.733 208.992 87.8309C209.148 87.9288 209.357 87.9778 209.62 87.9778C209.81 87.9778 209.989 87.9655 210.157 87.9411C210.326 87.9166 210.482 87.889 210.626 87.8584ZM213.251 86.0592L214.086 85.7655C214.258 86.2734 214.392 86.7462 214.49 87.1837C214.591 87.6182 214.642 88.0114 214.642 88.3633C214.642 89.0487 214.417 89.6286 213.967 90.1029C213.52 90.5802 212.812 90.9948 211.842 91.3467L211.447 90.5068C212.252 90.2253 212.839 89.9223 213.21 89.598C213.58 89.2736 213.765 88.8697 213.765 88.3863C213.765 88.1048 213.718 87.7575 213.623 87.3444C213.531 86.9313 213.407 86.5029 213.251 86.0592ZM216.482 86.0592L217.318 85.7655C217.489 86.2734 217.624 86.7462 217.721 87.1837C217.822 87.6182 217.873 88.0114 217.873 88.3633C217.873 89.0487 217.648 89.6286 217.198 90.1029C216.751 90.5802 216.043 90.9948 215.073 91.3467L214.678 90.5068C215.483 90.2253 216.071 89.9223 216.441 89.598C216.811 89.2736 216.996 88.8697 216.996 88.3863C216.996 88.1048 216.949 87.7575 216.854 87.3444C216.762 86.9313 216.638 86.5029 216.482 86.0592ZM216.294 83.8699L216.955 83.2089L217.616 83.8699L216.955 84.5354L216.294 83.8699ZM219.713 86.0592L220.549 85.7655C220.72 86.2734 220.855 86.7462 220.953 87.1837C221.054 87.6182 221.104 88.0114 221.104 88.3633C221.104 89.0487 220.879 89.6286 220.429 90.1029C219.983 90.5802 219.274 90.9948 218.304 91.3467L217.91 90.5068C218.714 90.2253 219.302 89.9223 219.672 89.598C220.042 89.2736 220.227 88.8697 220.227 88.3863C220.227 88.1048 220.18 87.7575 220.085 87.3444C219.993 86.9313 219.869 86.5029 219.713 86.0592Z" fill="#5E5E5E"/>
</svg>
