<svg width="214" height="108" viewBox="0 0 214 108" fill="none" xmlns="http://www.w3.org/2000/svg">
<mask id="path-1-outside-1_7548_1665" maskUnits="userSpaceOnUse" x="163.037" y="0.5" width="45" height="65" fill="black">
<rect fill="white" x="163.037" y="0.5" width="45" height="65"/>
<path d="M164.279 44.2709H173.959C173.756 47.9045 174.744 50.7387 176.924 52.7735C179.134 54.7793 182.055 55.7822 185.689 55.7822C189.351 55.7822 192.2 54.8665 194.235 53.0352C196.27 51.2038 197.287 48.6167 197.287 45.2737C197.287 42.018 196.255 39.4745 194.191 37.6431C192.157 35.8118 189.104 34.8961 185.035 34.8961H180.325V27.8323H185.035C188.465 27.8323 191.052 27.0184 192.796 25.3905C194.54 23.7627 195.412 21.597 195.412 18.8936C195.412 16.132 194.54 13.9228 192.796 12.2659C191.052 10.5799 188.668 9.73687 185.645 9.73687C182.447 9.73687 179.991 10.638 178.276 12.4403C176.59 14.2135 175.834 16.539 176.009 19.4168H167.07C166.837 13.6903 168.407 9.22816 171.779 6.03057C175.18 2.80391 179.875 1.19058 185.863 1.19058C188.363 1.19058 190.747 1.58301 193.014 2.36787C195.281 3.15274 197.302 4.30096 199.075 5.81255C200.877 7.29507 202.287 9.12642 203.304 11.3066C204.351 13.4577 204.874 15.9286 204.874 18.7192C204.874 20.2889 204.584 21.8732 204.002 23.472C203.421 25.0417 202.534 26.4952 201.342 27.8323C200.18 29.1695 198.712 30.2887 196.938 31.1898C198.944 32.0619 200.659 33.2537 202.084 34.7653C203.508 36.2769 204.598 37.9919 205.354 39.9105C206.139 41.8 206.531 43.8057 206.531 45.9278C206.531 49.823 205.645 53.1224 203.871 55.8258C202.098 58.5001 199.642 60.535 196.502 61.9303C193.363 63.2965 189.744 63.9796 185.645 63.9796C181.197 63.9796 177.331 63.2238 174.047 61.7123C170.762 60.1716 168.247 57.9333 166.503 54.9973C164.788 52.0613 164.047 48.4859 164.279 44.2709Z"/>
</mask>
<path d="M164.279 44.2709V43.6834H163.723L163.693 44.2385L164.279 44.2709ZM173.959 44.2709L174.546 44.3037L174.581 43.6834H173.959V44.2709ZM176.924 52.7735L176.523 53.2031L176.529 53.2085L176.924 52.7735ZM194.191 37.6431L193.798 38.0798L193.801 38.0826L194.191 37.6431ZM180.325 34.8961H179.738V35.4836H180.325V34.8961ZM180.325 27.8323V27.2448H179.738V27.8323H180.325ZM192.796 12.2659L192.388 12.6883L192.391 12.6918L192.796 12.2659ZM178.276 12.4403L177.85 12.0353L177.85 12.0355L178.276 12.4403ZM176.009 19.4168V20.0043H176.633L176.595 19.3813L176.009 19.4168ZM167.07 19.4168L166.483 19.4407L166.506 20.0043H167.07V19.4168ZM171.779 6.03057L172.183 6.45687L172.183 6.45678L171.779 6.03057ZM199.075 5.81255L198.694 6.25972L198.702 6.26627L199.075 5.81255ZM203.304 11.3066L202.772 11.5551L202.776 11.5636L203.304 11.3066ZM204.002 23.472L204.553 23.676L204.554 23.6727L204.002 23.472ZM201.342 27.8323L200.904 27.4414L200.899 27.4468L201.342 27.8323ZM196.938 31.1898L196.672 30.666L195.56 31.2312L196.704 31.7286L196.938 31.1898ZM205.354 39.9105L204.807 40.1259L204.811 40.1359L205.354 39.9105ZM203.871 55.8258L204.361 56.1504L204.363 56.148L203.871 55.8258ZM196.502 61.9303L196.737 62.469L196.741 62.4671L196.502 61.9303ZM174.047 61.7123L173.797 62.2442L173.801 62.246L174.047 61.7123ZM166.503 54.9973L165.996 55.2937L165.998 55.2974L166.503 54.9973ZM164.279 44.8584H173.959V43.6834H164.279V44.8584ZM173.373 44.238C173.162 48.0036 174.188 51.0232 176.523 53.203L177.325 52.344C175.3 50.4542 174.35 47.8054 174.546 44.3037L173.373 44.238ZM176.529 53.2085C178.869 55.3328 181.942 56.3697 185.689 56.3697V55.1947C182.168 55.1947 179.398 54.2258 177.319 52.3386L176.529 53.2085ZM185.689 56.3697C189.447 56.3697 192.453 55.4291 194.628 53.4718L193.842 52.5985C191.947 54.3039 189.256 55.1947 185.689 55.1947V56.3697ZM194.628 53.4718C196.813 51.5049 197.875 48.7433 197.875 45.2737H196.7C196.7 48.49 195.726 50.9027 193.842 52.5985L194.628 53.4718ZM197.875 45.2737C197.875 41.8832 196.794 39.1668 194.581 37.2037L193.801 38.0826C195.717 39.7821 196.7 42.1528 196.7 45.2737H197.875ZM194.584 37.2064C192.4 35.2401 189.18 34.3086 185.035 34.3086V35.4836C189.028 35.4836 191.914 36.3835 193.798 38.0798L194.584 37.2064ZM185.035 34.3086H180.325V35.4836H185.035V34.3086ZM180.913 34.8961V27.8323H179.738V34.8961H180.913ZM180.325 28.4198H185.035V27.2448H180.325V28.4198ZM185.035 28.4198C188.549 28.4198 191.304 27.5863 193.197 25.82L192.395 24.961C190.799 26.4504 188.381 27.2448 185.035 27.2448V28.4198ZM193.197 25.82C195.076 24.0657 196 21.736 196 18.8936H194.825C194.825 21.4581 194.004 23.4596 192.395 24.961L193.197 25.82ZM196 18.8936C196 15.9971 195.079 13.6245 193.201 11.8399L192.391 12.6918C194.001 14.2211 194.825 16.267 194.825 18.8936H196ZM193.204 11.8435C191.325 10.027 188.781 9.14937 185.645 9.14937V10.3244C188.555 10.3244 190.779 11.1328 192.388 12.6883L193.204 11.8435ZM185.645 9.14937C182.335 9.14937 179.706 10.0855 177.85 12.0353L178.702 12.8453C180.276 11.1905 182.56 10.3244 185.645 10.3244V9.14937ZM177.85 12.0355C176.032 13.9479 175.24 16.4434 175.422 19.4524L176.595 19.3813C176.429 16.6346 177.148 14.479 178.702 12.8451L177.85 12.0355ZM176.009 18.8293H167.07V20.0043H176.009V18.8293ZM167.657 19.393C167.43 13.7929 168.962 9.51122 172.183 6.45687L171.375 5.60427C167.852 8.9451 166.245 13.5876 166.483 19.4407L167.657 19.393ZM172.183 6.45678C175.448 3.36013 179.982 1.77808 185.863 1.77808V0.60308C179.768 0.60308 174.913 2.24769 171.375 5.60436L172.183 6.45678ZM185.863 1.77808C188.3 1.77808 190.619 2.16047 192.822 2.92305L193.206 1.81269C190.874 1.00555 188.426 0.60308 185.863 0.60308V1.77808ZM192.822 2.92305C195.022 3.6847 196.978 4.79696 198.694 6.25965L199.456 5.36546C197.625 3.80497 195.541 2.62078 193.206 1.81269L192.822 2.92305ZM198.702 6.26627C200.434 7.69135 201.791 9.45177 202.772 11.555L203.837 11.0581C202.784 8.80106 201.32 6.89879 199.448 5.35883L198.702 6.26627ZM202.776 11.5636C203.778 13.6223 204.287 16.0028 204.287 18.7192H205.462C205.462 15.8543 204.924 13.2931 203.833 11.0496L202.776 11.5636ZM204.287 18.7192C204.287 20.2149 204.01 21.7314 203.45 23.2712L204.554 23.6727C205.157 22.015 205.462 20.3629 205.462 18.7192H204.287ZM203.451 23.2679C202.897 24.7642 202.05 26.1551 200.904 27.4414L201.781 28.2232C203.018 26.8352 203.944 25.3192 204.553 23.676L203.451 23.2679ZM200.899 27.4468C199.792 28.7204 198.386 29.795 196.672 30.666L197.205 31.7135C199.037 30.7823 200.568 29.6186 201.786 28.2178L200.899 27.4468ZM196.704 31.7286C198.641 32.5706 200.289 33.7176 201.656 35.1682L202.511 34.3624C201.029 32.7898 199.247 31.5531 197.173 30.651L196.704 31.7286ZM201.656 35.1682C203.03 36.6258 204.079 38.2773 204.807 40.1258L205.9 39.6952C205.117 37.7066 203.986 35.9279 202.511 34.3624L201.656 35.1682ZM204.811 40.1359C205.565 41.9513 205.944 43.8802 205.944 45.9278H207.119C207.119 43.7313 206.712 41.6487 205.896 39.6851L204.811 40.1359ZM205.944 45.9278C205.944 49.7323 205.079 52.914 203.38 55.5036L204.363 56.148C206.21 53.3308 207.119 49.9138 207.119 45.9278H205.944ZM203.382 55.5011C201.675 58.0756 199.309 60.0402 196.264 61.3934L196.741 62.4671C199.975 61.0298 202.522 58.9246 204.361 56.1504L203.382 55.5011ZM196.268 61.3916C193.215 62.7199 189.679 63.3921 185.645 63.3921V64.5671C189.809 64.5671 193.51 63.8731 196.737 62.469L196.268 61.3916ZM185.645 63.3921C181.263 63.3921 177.484 62.6475 174.292 61.1786L173.801 62.246C177.178 63.8002 181.132 64.5671 185.645 64.5671V63.3921ZM174.296 61.1804C171.111 59.6864 168.688 57.5256 167.008 54.6973L165.998 55.2974C167.806 58.3409 170.413 60.6568 173.797 62.2442L174.296 61.1804ZM167.01 54.701C165.366 51.8861 164.638 48.4311 164.866 44.3032L163.693 44.2385C163.455 48.5406 164.21 52.2366 165.996 55.2937L167.01 54.701Z" fill="#0B2FA6" mask="url(#path-1-outside-1_7548_1665)"/>
<path d="M1.96748 47.1813C1.96748 46.9196 2.05928 46.7016 2.24287 46.5272C2.43106 46.3482 2.66055 46.2587 2.93135 46.2587C3.19756 46.2587 3.42246 46.3482 3.60606 46.5272C3.79424 46.7016 3.88833 46.9196 3.88833 47.1813C3.88833 47.4475 3.79424 47.6747 3.60606 47.8628C3.42246 48.0464 3.19756 48.1382 2.93135 48.1382C2.66055 48.1382 2.43106 48.0464 2.24287 47.8628C2.05928 47.6747 1.96748 47.4475 1.96748 47.1813ZM10.0915 40.8404L11.9366 45.1434C12.1661 45.6758 12.4209 46.0384 12.7008 46.2312C12.9854 46.4193 13.3618 46.5134 13.8299 46.5134H13.9263V48.0625H13.8093C13.231 48.0625 12.7146 47.9569 12.2602 47.7458C11.8058 47.5347 11.4386 47.1767 11.1586 46.6718C10.8695 47.1629 10.4656 47.5301 9.94693 47.7733C9.42827 48.012 8.8752 48.1313 8.2877 48.1313C7.80576 48.1313 7.32154 48.0487 6.83501 47.8835C6.35308 47.7183 5.91475 47.4658 5.52002 47.1262L6.22227 45.8938C6.53897 46.1279 6.87403 46.3 7.22744 46.4102C7.58086 46.5203 7.9251 46.5754 8.26016 46.5754C8.70078 46.5754 9.10699 46.4905 9.47876 46.3207C9.85054 46.1508 10.1626 45.8915 10.4151 45.5427L8.65259 41.5289L10.0915 40.8404ZM17.589 44.5857C17.589 45.0355 17.628 45.4027 17.7061 45.6873C17.7887 45.9718 17.9493 46.1807 18.188 46.3138C18.4313 46.4469 18.7916 46.5134 19.2689 46.5134H19.682V48.0625H19.2551C18.6768 48.0625 18.1605 47.9409 17.7061 47.6976C17.2517 47.4498 16.951 47.1009 16.8042 46.6511C16.7078 46.9495 16.5311 47.2042 16.274 47.4153C16.017 47.6265 15.7118 47.7871 15.3584 47.8973C15.0049 48.0074 14.6332 48.0625 14.243 48.0625H13.9332C13.8506 48.0625 13.7909 48.0097 13.7542 47.9042C13.7129 47.794 13.6922 47.5875 13.6922 47.2845C13.6922 46.9862 13.7129 46.7842 13.7542 46.6787C13.7909 46.5685 13.8506 46.5134 13.9332 46.5134H14.243C14.7525 46.5134 15.1357 46.4469 15.3928 46.3138C15.6498 46.1761 15.8219 45.9672 15.9091 45.6873C15.9963 45.4027 16.0399 45.0355 16.0399 44.5857V43.4841H17.589V44.5857ZM14.6699 50.4791L15.7921 49.3568L16.9074 50.4791L15.7921 51.6013L14.6699 50.4791ZM12.2671 50.4791L13.3893 49.3568L14.5046 50.4791L13.3893 51.6013L12.2671 50.4791ZM23.3309 44.5857C23.3309 45.0355 23.3699 45.4027 23.448 45.6873C23.5306 45.9718 23.6912 46.1807 23.9299 46.3138C24.1731 46.4469 24.5334 46.5134 25.0108 46.5134H25.4239V48.0625H24.997C24.4187 48.0625 23.9023 47.9409 23.448 47.6976C22.9936 47.4498 22.6929 47.1009 22.546 46.6511C22.4497 46.9495 22.273 47.2042 22.0159 47.4153C21.7589 47.6265 21.4537 47.7871 21.1002 47.8973C20.7468 48.0074 20.3751 48.0625 19.9849 48.0625H19.6751C19.5925 48.0625 19.5328 48.0097 19.4961 47.9042C19.4548 47.794 19.4341 47.5875 19.4341 47.2845C19.4341 46.9862 19.4548 46.7842 19.4961 46.6787C19.5328 46.5685 19.5925 46.5134 19.6751 46.5134H19.9849C20.4944 46.5134 20.8776 46.4469 21.1347 46.3138C21.3917 46.1761 21.5638 45.9672 21.651 45.6873C21.7382 45.4027 21.7818 45.0355 21.7818 44.5857V43.4841H23.3309V44.5857ZM20.7216 40.9987L21.8438 39.8765L22.9591 40.9987L21.8438 42.1209L20.7216 40.9987ZM31.6408 37.5977L31.9713 39.1123C31.1038 39.3602 30.3006 39.6264 29.5616 39.9109C28.8272 40.1955 28.1089 40.5191 27.4067 40.8817V40.9505C28.4715 41.7767 29.2541 42.5409 29.7544 43.2432C30.2593 43.9408 30.5117 44.6316 30.5117 45.3155C30.5117 45.8892 30.3465 46.3826 30.016 46.7957C29.6855 47.2042 29.2082 47.5186 28.584 47.7389C27.9598 47.9546 27.2047 48.0625 26.3189 48.0625H25.417C25.3344 48.0625 25.2747 48.0028 25.238 47.8835C25.1967 47.7596 25.176 47.5599 25.176 47.2845C25.176 47.0045 25.1967 46.8072 25.238 46.6924C25.2747 46.5731 25.3344 46.5134 25.417 46.5134H26.2914C27.168 46.5134 27.8335 46.4033 28.2879 46.183C28.7423 45.9626 28.9695 45.6391 28.9695 45.2122C28.9695 44.7532 28.6964 44.2231 28.1502 43.6218C27.6086 43.0206 26.7733 42.316 25.6442 41.5082V40.1588C27.5811 38.993 29.58 38.1393 31.6408 37.5977ZM46.3123 43.3327C46.2526 43.6585 46.2021 43.9615 46.1608 44.2415C46.1241 44.5168 46.1057 44.7854 46.1057 45.047C46.1057 45.3315 46.1493 45.584 46.2365 45.8043C46.3237 46.0246 46.4867 46.199 46.7253 46.3275C46.9686 46.4515 47.3174 46.5134 47.7718 46.5134H47.7856V48.0625H47.7718C46.9916 48.0625 46.3696 47.9179 45.9061 47.6288C45.4471 47.335 45.1028 46.8898 44.8733 46.2931C44.3639 46.9541 43.6708 47.4153 42.7941 47.677C41.9221 47.934 40.9008 48.0625 39.7304 48.0625C38.5784 48.0625 37.6466 47.9225 36.9352 47.6425C36.2284 47.358 35.712 46.9541 35.3861 46.4308C35.0648 45.9076 34.9042 45.2856 34.9042 44.565C34.9042 44.207 34.9386 43.8284 35.0075 43.4291C35.0809 43.0251 35.1842 42.6167 35.3173 42.2036L36.6874 42.596C36.5818 42.9356 36.4992 43.2569 36.4395 43.5599C36.3844 43.8628 36.3569 44.1405 36.3569 44.3929C36.3569 44.8886 36.4762 45.2925 36.7149 45.6046C36.9536 45.9167 37.3368 46.1462 37.8646 46.2931C38.3925 46.44 39.0924 46.5134 39.9645 46.5134C40.8136 46.5134 41.5296 46.4469 42.1126 46.3138C42.6955 46.1807 43.1728 45.9764 43.5446 45.701C43.9209 45.421 44.2147 45.0676 44.4258 44.6408C44.637 44.2093 44.7907 43.6976 44.8871 43.1055L46.3123 43.3327ZM40.6667 42.3757L41.789 41.2535L42.9043 42.3757L41.789 43.4979L40.6667 42.3757ZM38.264 42.3757L39.3862 41.2535L40.5015 42.3757L39.3862 43.4979L38.264 42.3757ZM51.0352 41.8524C51.3657 41.8524 51.7122 41.9213 52.0748 42.059C52.442 42.1921 52.839 42.355 53.2659 42.5478C53.6973 42.7406 54.1655 42.9379 54.6704 43.1399C55.1798 43.3373 55.7421 43.4956 56.3571 43.6149V44.9162L53.4242 46.8783C52.7954 47.2914 52.1482 47.592 51.4827 47.7802C50.8172 47.9684 50.0897 48.0625 49.3002 48.0625H47.7787C47.6961 48.0625 47.6364 48.0074 47.5997 47.8973C47.5584 47.7871 47.5377 47.5829 47.5377 47.2845C47.5377 46.9862 47.5584 46.7842 47.5997 46.6787C47.6364 46.5685 47.6961 46.5134 47.7787 46.5134H49.5756C49.9795 46.5134 50.3582 46.4859 50.7116 46.4308C51.065 46.3757 51.4047 46.2862 51.7306 46.1623C52.061 46.0338 52.3938 45.8663 52.7289 45.6597L54.5396 44.5168C54.1173 44.4342 53.7386 44.3287 53.4036 44.2001C53.0685 44.067 52.761 43.9385 52.481 43.8146C52.2194 43.6953 51.9761 43.5943 51.7512 43.5117C51.5309 43.4291 51.3152 43.3877 51.1041 43.3877C50.7644 43.3877 50.4959 43.5048 50.2985 43.7389C50.1058 43.9684 49.9658 44.2896 49.8786 44.7027L49.8304 44.9437L48.5911 44.7165L48.6393 44.4205C48.7862 43.6402 49.0432 43.0183 49.4104 42.5547C49.7776 42.0865 50.3192 41.8524 51.0352 41.8524ZM51.1591 38.9677L52.2813 37.8455L53.3967 38.9677L52.2813 40.0899L51.1591 38.9677ZM59.5723 48.0625H58.0232V38.4169H59.5723V48.0625ZM67.1111 45.3637C67.1111 45.8686 67.0033 46.2977 66.7876 46.6511C66.5764 47 66.2918 47.2822 65.9338 47.4979C65.5758 47.7137 65.1765 47.8697 64.7359 47.9661C64.2953 48.0625 63.8478 48.1107 63.3934 48.1107C63.0078 48.1107 62.6246 48.0854 62.2436 48.035C61.8672 47.9845 61.5115 47.911 61.1765 47.8146L61.5276 46.3413C61.7754 46.4056 62.0577 46.4606 62.3744 46.5065C62.6957 46.5479 63.0216 46.5685 63.3521 46.5685C63.7697 46.5685 64.1461 46.5249 64.4812 46.4377C64.8208 46.3505 65.0893 46.2105 65.2867 46.0177C65.484 45.825 65.5827 45.5702 65.5827 45.2535C65.5827 44.8496 65.3876 44.3631 64.9975 43.7939C64.6074 43.2202 64.0291 42.5983 63.2626 41.9282L64.2746 40.7371C64.8392 41.2328 65.3349 41.7331 65.7617 42.238C66.1886 42.7383 66.519 43.2478 66.7531 43.7664C66.9918 44.2851 67.1111 44.8175 67.1111 45.3637ZM69.5415 43.7526L71.0148 43.2569L71.4348 44.689C71.5725 45.1847 71.7193 45.5633 71.8754 45.825C72.036 46.0866 72.2426 46.2679 72.495 46.3688C72.7475 46.4652 73.0825 46.5134 73.5002 46.5134H73.5071V48.0625H73.5002C73.1009 48.0625 72.7429 48.0028 72.4262 47.8835C72.1095 47.7596 71.8593 47.5829 71.6757 47.3534C71.6574 48.1107 71.4967 48.7762 71.1938 49.35C70.8909 49.9283 70.4296 50.44 69.81 50.8853C69.1949 51.3305 68.4032 51.7367 67.4347 52.1039L66.7669 50.6994C67.5977 50.3964 68.2655 50.0774 68.7704 49.7424C69.2798 49.4119 69.647 49.0378 69.8719 48.6202C70.1014 48.2025 70.2162 47.7114 70.2162 47.1468C70.2162 46.7246 70.1588 46.2312 70.044 45.6666C69.9339 45.1021 69.7664 44.4641 69.5415 43.7526ZM72.6189 50.4791L73.7412 49.3568L74.8565 50.4791L73.7412 51.6013L72.6189 50.4791ZM75.0217 50.4791L76.1439 49.3568L77.2593 50.4791L76.1439 51.6013L75.0217 50.4791ZM73.8238 52.6615L74.946 51.5393L76.0613 52.6615L74.946 53.7837L73.8238 52.6615ZM77.0596 42.2931C77.1835 42.8163 77.2845 43.3143 77.3625 43.7871C77.4406 44.2598 77.4796 44.6981 77.4796 45.1021C77.4796 45.6987 77.3671 46.2197 77.1422 46.6649C76.9219 47.1101 76.5547 47.4543 76.0407 47.6976C75.5312 47.9409 74.845 48.0625 73.9821 48.0625H73.514C73.4313 48.0625 73.3717 48.0097 73.335 47.9042C73.2936 47.794 73.273 47.5875 73.273 47.2845C73.273 46.9862 73.2936 46.7842 73.335 46.6787C73.3717 46.5685 73.4313 46.5134 73.514 46.5134H73.9821C74.487 46.5134 74.884 46.4561 75.1732 46.3413C75.4624 46.222 75.6666 46.0476 75.7859 45.8181C75.9099 45.5886 75.9718 45.3017 75.9718 44.9575C75.9718 44.6683 75.9351 44.3333 75.8617 43.9523C75.7928 43.5713 75.7056 43.1514 75.6 42.6924L77.0596 42.2931ZM83.4487 48.0625H81.8996V38.4169H83.4487V48.0625ZM86.354 43.7526L87.8274 43.2569C88.0752 44.0693 88.2634 44.7899 88.3919 45.4188C88.5205 46.043 88.5847 46.6213 88.5847 47.1537C88.5847 47.9202 88.4355 48.6041 88.1372 49.2054C87.8435 49.8066 87.3776 50.3437 86.7396 50.8164C86.1016 51.2937 85.2708 51.7229 84.2473 52.1039L83.5795 50.6994C84.4148 50.3964 85.085 50.0797 85.5898 49.7493C86.0947 49.4188 86.4596 49.0447 86.6845 48.6271C86.914 48.2094 87.0288 47.7229 87.0288 47.1675C87.0288 46.736 86.9714 46.2403 86.8566 45.6804C86.7465 45.1158 86.579 44.4732 86.354 43.7526ZM95.139 46.5823C95.5154 46.5823 95.7977 46.4905 95.9858 46.3069C96.174 46.1187 96.2681 45.8708 96.2681 45.5633C96.2681 45.2329 96.1717 44.8817 95.979 44.51C95.7862 44.1336 95.5062 43.7779 95.139 43.4428C94.781 43.7733 94.5033 44.129 94.306 44.51C94.1086 44.8863 94.0099 45.2375 94.0099 45.5633C94.0099 45.8663 94.104 46.1118 94.2922 46.3C94.4804 46.4882 94.7626 46.5823 95.139 46.5823ZM95.139 48.1382C94.6158 48.1382 94.1637 48.0373 93.7827 47.8353C93.4018 47.6288 93.108 47.3534 92.9015 47.0091C92.6995 46.6603 92.5985 46.2748 92.5985 45.8525C92.5985 45.444 92.6674 45.0493 92.8051 44.6683C92.9428 44.2828 93.1378 43.911 93.3903 43.553C93.6427 43.1904 93.9365 42.8438 94.2715 42.5134C94.166 42.4124 94.0535 42.3091 93.9342 42.2036C93.8194 42.098 93.7001 41.9924 93.5762 41.8869L94.5056 40.7715C94.9325 41.1158 95.3387 41.483 95.7242 41.8731C96.1098 42.2586 96.454 42.6625 96.7569 43.0848C97.0645 43.5025 97.3031 43.9339 97.473 44.3792C97.6474 44.8244 97.7346 45.2765 97.7346 45.7354C97.7346 46.1853 97.6244 46.5938 97.4041 46.9609C97.1884 47.3235 96.8832 47.6104 96.4884 47.8215C96.0983 48.0327 95.6485 48.1382 95.139 48.1382ZM100.165 43.7526L101.638 43.2569C101.886 44.0693 102.074 44.7899 102.203 45.4188C102.331 46.043 102.396 46.6213 102.396 47.1537C102.396 47.9202 102.246 48.6041 101.948 49.2054C101.654 49.8066 101.188 50.3437 100.55 50.8164C99.9125 51.2937 99.0817 51.7229 98.0582 52.1039L97.3903 50.6994C98.2257 50.3964 98.8958 50.0797 99.4007 49.7493C99.9056 49.4188 100.27 49.0447 100.495 48.6271C100.725 48.2094 100.84 47.7229 100.84 47.1675C100.84 46.736 100.782 46.2403 100.667 45.6804C100.557 45.1158 100.39 44.4732 100.165 43.7526ZM104.062 38.4169H105.618V44.8886C105.618 45.4715 105.737 45.8892 105.976 46.1417C106.219 46.3895 106.676 46.5134 107.346 46.5134H107.353V48.0625H107.346C106.29 48.0625 105.478 47.8009 104.908 47.2776C104.344 46.7498 104.062 45.9626 104.062 44.9162V38.4169ZM110.272 50.4791L111.394 49.3568L112.509 50.4791L111.394 51.6013L110.272 50.4791ZM110.616 41.8524C110.946 41.8524 111.293 41.9213 111.656 42.059C112.023 42.1921 112.42 42.355 112.847 42.5478C113.278 42.7406 113.746 42.9379 114.251 43.1399C114.761 43.3373 115.323 43.4956 115.938 43.6149V44.9162L113.005 46.8783C112.376 47.2914 111.729 47.592 111.063 47.7802C110.398 47.9684 109.67 48.0625 108.881 48.0625H107.359C107.277 48.0625 107.217 48.0074 107.18 47.8973C107.139 47.7871 107.119 47.5829 107.119 47.2845C107.119 46.9862 107.139 46.7842 107.18 46.6787C107.217 46.5685 107.277 46.5134 107.359 46.5134H109.156C109.56 46.5134 109.939 46.4859 110.292 46.4308C110.646 46.3757 110.985 46.2862 111.311 46.1623C111.642 46.0338 111.975 45.8663 112.31 45.6597L114.12 44.5168C113.698 44.4342 113.319 44.3287 112.984 44.2001C112.649 44.067 112.342 43.9385 112.062 43.8146C111.8 43.6953 111.557 43.5943 111.332 43.5117C111.112 43.4291 110.896 43.3877 110.685 43.3877C110.345 43.3877 110.077 43.5048 109.879 43.7389C109.687 43.9684 109.547 44.2896 109.459 44.7027L109.411 44.9437L108.172 44.7165L108.22 44.4205C108.367 43.6402 108.624 43.0183 108.991 42.5547C109.358 42.0865 109.9 41.8524 110.616 41.8524ZM119.153 48.0625H117.604V38.4169H119.153V48.0625Z" fill="#212121"/>
<path d="M127.67 41.8524L127.594 40.682L129.15 40.5856L129.398 44.9575C129.43 45.5083 129.572 45.9053 129.824 46.1485C130.081 46.3918 130.538 46.5134 131.195 46.5134H131.201V48.0625H131.195C130.437 48.0625 129.831 47.9661 129.377 47.7733C128.923 47.576 128.576 47.2845 128.337 46.899C128.099 46.9862 127.851 47.0504 127.594 47.0917C127.341 47.1331 127.089 47.1537 126.836 47.1537C126.322 47.1537 125.852 47.0803 125.425 46.9334C124.998 46.7819 124.656 46.5524 124.399 46.2449C124.147 45.9374 124.021 45.5473 124.021 45.0745C124.021 44.4824 124.179 43.9684 124.496 43.5323C124.817 43.0917 125.253 42.7314 125.804 42.4514C126.355 42.1668 126.976 41.9672 127.67 41.8524ZM127.766 43.2776C127.233 43.3281 126.797 43.4336 126.458 43.5943C126.123 43.7503 125.875 43.9385 125.714 44.1588C125.554 44.3746 125.473 44.5995 125.473 44.8335C125.473 45.0998 125.597 45.3155 125.845 45.4807C126.093 45.6459 126.462 45.7286 126.954 45.7286C127.114 45.7286 127.286 45.7171 127.47 45.6941C127.658 45.6712 127.826 45.6414 127.972 45.6046C127.95 45.5174 127.929 45.4325 127.91 45.3499C127.897 45.2627 127.885 45.1594 127.876 45.0401L127.766 43.2776ZM134.864 44.5857C134.864 45.0355 134.903 45.4027 134.981 45.6873C135.064 45.9718 135.224 46.1807 135.463 46.3138C135.706 46.4469 136.067 46.5134 136.544 46.5134H136.957V48.0625H136.53C135.952 48.0625 135.436 47.9409 134.981 47.6976C134.527 47.4498 134.226 47.1009 134.079 46.6511C133.983 46.9495 133.806 47.2042 133.549 47.4153C133.292 47.6265 132.987 47.7871 132.633 47.8973C132.28 48.0074 131.908 48.0625 131.518 48.0625H131.208C131.126 48.0625 131.066 48.0097 131.029 47.9042C130.988 47.794 130.967 47.5875 130.967 47.2845C130.967 46.9862 130.988 46.7842 131.029 46.6787C131.066 46.5685 131.126 46.5134 131.208 46.5134H131.518C132.028 46.5134 132.411 46.4469 132.668 46.3138C132.925 46.1761 133.097 45.9672 133.184 45.6873C133.271 45.4027 133.315 45.0355 133.315 44.5857V43.4841H134.864V44.5857ZM132.255 40.9987L133.377 39.8765L134.492 40.9987L133.377 42.1209L132.255 40.9987ZM140.028 42.2931C140.152 42.8163 140.253 43.3143 140.331 43.7871C140.409 44.2598 140.448 44.6981 140.448 45.1021C140.448 45.6987 140.34 46.2197 140.124 46.6649C139.913 47.1101 139.573 47.4543 139.105 47.6976C138.637 47.9409 138.024 48.0625 137.267 48.0625H136.95C136.868 48.0625 136.808 48.0097 136.771 47.9042C136.73 47.794 136.709 47.5875 136.709 47.2845C136.709 46.9862 136.73 46.7842 136.771 46.6787C136.808 46.5685 136.868 46.5134 136.95 46.5134H137.267C137.864 46.5134 138.29 46.3826 138.547 46.121C138.809 45.8594 138.94 45.4715 138.94 44.9575C138.94 44.6683 138.903 44.3333 138.83 43.9523C138.761 43.5713 138.674 43.1514 138.568 42.6924L140.028 42.2931ZM137.907 50.4791L139.029 49.3568L140.145 50.4791L139.029 51.6013L137.907 50.4791ZM135.504 50.4791L136.627 49.3568L137.742 50.4791L136.627 51.6013L135.504 50.4791ZM143.091 40.6407L144.214 39.5185L145.329 40.6407L144.214 41.7629L143.091 40.6407ZM143.553 43.7526L145.026 43.2569L145.446 44.689C145.584 45.1847 145.731 45.5633 145.887 45.825C146.047 46.0866 146.254 46.2679 146.506 46.3688C146.759 46.4652 147.094 46.5134 147.511 46.5134H147.518V48.0625H147.511C147.112 48.0625 146.754 48.0028 146.437 47.8835C146.121 47.7596 145.871 47.5829 145.687 47.3534C145.669 48.1107 145.508 48.7762 145.205 49.35C144.902 49.9283 144.441 50.44 143.821 50.8853C143.206 51.3305 142.414 51.7367 141.446 52.1039L140.778 50.6994C141.609 50.3964 142.277 50.0774 142.782 49.7424C143.291 49.4119 143.658 49.0378 143.883 48.6202C144.113 48.2025 144.227 47.7114 144.227 47.1468C144.227 46.7246 144.17 46.2312 144.055 45.6666C143.945 45.1021 143.778 44.4641 143.553 43.7526ZM147.525 46.5134H147.966C148.273 46.5134 148.533 46.4974 148.744 46.4652C148.955 46.4285 149.164 46.378 149.37 46.3138C149.191 46.1577 149.019 45.9833 148.854 45.7905C148.689 45.5978 148.553 45.3866 148.448 45.1571C148.342 44.923 148.289 44.6706 148.289 44.3998C148.289 44.1061 148.34 43.8192 148.441 43.5392C148.542 43.2546 148.686 42.9953 148.875 42.7612C149.067 42.5271 149.297 42.3344 149.563 42.1829L148.62 41.7767L149.226 40.3516L153.04 41.9833C153.861 42.3367 154.532 42.6924 155.05 43.0504C155.569 43.4084 155.95 43.7962 156.193 44.2139C156.436 44.6316 156.558 45.1089 156.558 45.6459C156.558 46.1279 156.448 46.557 156.228 46.9334C156.007 47.3098 155.691 47.6058 155.277 47.8215C154.864 48.0327 154.364 48.1382 153.777 48.1382C153.258 48.1382 152.755 48.0694 152.269 47.9317C151.787 47.794 151.328 47.6219 150.892 47.4153C150.502 47.6173 150.073 47.7756 149.604 47.8904C149.136 48.0051 148.627 48.0625 148.076 48.0625H147.525C147.447 48.0625 147.387 48.0074 147.346 47.8973C147.305 47.7871 147.284 47.5829 147.284 47.2845C147.284 46.9862 147.305 46.7842 147.346 46.6787C147.387 46.5685 147.447 46.5134 147.525 46.5134ZM150.919 45.9626C151.305 45.7745 151.601 45.5404 151.808 45.2604C152.014 44.9804 152.117 44.6729 152.117 44.3378C152.117 43.9431 152.026 43.6172 151.842 43.3602C151.663 43.0986 151.383 42.9678 151.002 42.9678C150.754 42.9678 150.534 43.0366 150.341 43.1743C150.153 43.312 150.004 43.4933 149.894 43.7182C149.788 43.9385 149.735 44.1749 149.735 44.4273C149.735 44.6614 149.793 44.8749 149.907 45.0676C150.022 45.2558 150.169 45.4256 150.348 45.5771C150.527 45.724 150.717 45.8525 150.919 45.9626ZM152.31 46.3069C152.553 46.3895 152.806 46.4561 153.067 46.5065C153.329 46.5524 153.575 46.5754 153.804 46.5754C154.167 46.5754 154.465 46.4997 154.699 46.3482C154.933 46.1967 155.05 45.9351 155.05 45.5633C155.05 45.3247 154.988 45.1043 154.864 44.9024C154.745 44.6958 154.55 44.4985 154.279 44.3103C154.008 44.1175 153.648 43.9248 153.198 43.732C153.373 44.2644 153.37 44.7555 153.191 45.2053C153.012 45.6551 152.719 46.0223 152.31 46.3069Z" fill="#D79C10"/>
<path d="M6.26826 63.5799H7.16328V67.697C7.16328 68.104 7.25355 68.3947 7.43408 68.5691C7.61768 68.7435 7.94049 68.8307 8.40254 68.8307H8.40713V69.7625H8.40254C7.711 69.7625 7.18164 69.5926 6.81445 69.253C6.45033 68.9103 6.26826 68.3977 6.26826 67.7154V63.5799ZM10.4175 66.1273C10.5062 66.4639 10.5751 66.7806 10.624 67.0774C10.676 67.3742 10.7021 67.6404 10.7021 67.876C10.7021 68.488 10.5338 68.9562 10.1972 69.2805C9.86364 69.6018 9.3404 69.7625 8.62744 69.7625H8.41172C8.31074 69.7625 8.26025 69.6064 8.26025 69.2943C8.26025 68.9852 8.31074 68.8307 8.41172 68.8307H8.62744C9.05889 68.8307 9.36794 68.745 9.55459 68.5737C9.74124 68.4023 9.83457 68.1453 9.83457 67.8026C9.83457 67.6312 9.81162 67.4232 9.76572 67.1784C9.71982 66.9305 9.66016 66.6567 9.58672 66.3568L10.4175 66.1273ZM7.54424 71.3873L8.20518 70.7263L8.8707 71.3873L8.20518 72.0528L7.54424 71.3873ZM9.14609 71.3873L9.80703 70.7263L10.4726 71.3873L9.80703 72.0528L9.14609 71.3873ZM18.531 67.9908L19.192 67.3298L19.8529 67.9908L19.192 68.6563L18.531 67.9908ZM16.3646 67.16L17.2091 67.3436C17.1143 67.8179 17.047 68.1943 17.0072 68.4727C16.9705 68.7512 16.9521 68.9898 16.9521 69.1887C16.9521 69.8711 17.1403 70.3545 17.5167 70.6391C17.893 70.9267 18.4469 71.0706 19.1782 71.0706C20.7295 71.0706 21.5052 70.5213 21.5052 69.4228C21.5052 69.1688 21.4502 68.8644 21.34 68.5094C21.2329 68.1514 21.057 67.6817 20.8122 67.1003L21.6292 66.7056L21.9918 67.6374C22.1172 67.9495 22.2381 68.1927 22.3544 68.3671C22.4706 68.5385 22.6114 68.6594 22.7766 68.7297C22.9449 68.7971 23.1652 68.8307 23.4376 68.8307H23.4789V69.7625H23.4651C22.9878 69.7625 22.6037 69.5834 22.313 69.2254L22.2717 69.2392C22.3421 70.1327 22.1019 70.8166 21.5511 71.2909C21.0003 71.7652 20.217 72.0023 19.2011 72.0023C18.1975 72.0023 17.4279 71.782 16.8924 71.3414C16.357 70.9007 16.0892 70.2 16.0892 69.2392C16.0892 68.9761 16.1106 68.6777 16.1535 68.3442C16.1963 68.0076 16.2667 67.6129 16.3646 67.16ZM22.9832 71.3873L23.6441 70.7263L24.3096 71.3873L23.6441 72.0528L22.9832 71.3873ZM24.585 71.3873L25.246 70.7263L25.9115 71.3873L25.246 72.0528L24.585 71.3873ZM25.8151 66.1273C25.9008 66.4639 25.9681 66.7806 26.017 67.0774C26.0691 67.3742 26.0951 67.6404 26.0951 67.876C26.0951 68.488 25.9222 68.9562 25.5764 69.2805C25.2307 69.6018 24.6615 69.7625 23.869 69.7625H23.4835C23.3825 69.7625 23.332 69.6064 23.332 69.2943C23.332 68.9852 23.3825 68.8307 23.4835 68.8307H23.869C24.38 68.8307 24.7334 68.745 24.9293 68.5737C25.1281 68.4023 25.2276 68.1453 25.2276 67.8026C25.2276 67.6312 25.2046 67.4232 25.1587 67.1784C25.1128 66.9305 25.0532 66.6567 24.9797 66.3568L25.8151 66.1273ZM27.1507 63.7222L27.9861 63.4744C28.1605 63.8997 28.3043 64.3189 28.4175 64.732C28.5338 65.1451 28.6271 65.5857 28.6975 66.0539C28.771 66.522 28.8276 67.0544 28.8673 67.6511L27.9907 67.7521C27.9478 66.9688 27.8576 66.2528 27.7199 65.6041C27.5852 64.9554 27.3955 64.3281 27.1507 63.7222ZM30.9511 63.5799H31.8416V67.697C31.8416 68.1162 31.9349 68.41 32.1215 68.5783C32.3082 68.7466 32.6142 68.8307 33.0395 68.8307H33.0441V69.7625H33.0395C31.9135 69.7625 31.2847 69.2438 31.1531 68.2065L31.1485 68.0137C30.717 68.6043 30.1617 69.0434 29.4824 69.331C28.8061 69.6186 27.9509 69.7625 26.9167 69.7625V68.8307C27.5807 68.8307 28.159 68.7726 28.6516 68.6563C29.1443 68.54 29.5757 68.358 29.946 68.1101C30.3193 67.8623 30.6543 67.541 30.9511 67.1462V63.5799ZM35.0544 66.1273C35.1432 66.4639 35.212 66.7806 35.261 67.0774C35.313 67.3742 35.339 67.6404 35.339 67.876C35.339 68.488 35.1707 68.9562 34.8341 69.2805C34.5006 69.6018 33.9774 69.7625 33.2644 69.7625H33.0487C32.9477 69.7625 32.8972 69.6064 32.8972 69.2943C32.8972 68.9852 32.9477 68.8307 33.0487 68.8307H33.2644C33.6959 68.8307 34.0049 68.745 34.1916 68.5737C34.3782 68.4023 34.4715 68.1453 34.4715 67.8026C34.4715 67.6312 34.4486 67.4232 34.4027 67.1784C34.3568 66.9305 34.2971 66.6567 34.2237 66.3568L35.0544 66.1273ZM33.4755 64.4428L34.1365 63.7819L34.7974 64.4428L34.1365 65.1083L33.4755 64.4428ZM38.0378 62.18L38.5336 62.4187C38.3744 62.7706 38.2245 63.0169 38.0837 63.1577C37.943 63.2954 37.7732 63.3642 37.5743 63.3642C37.4702 63.3642 37.3677 63.3428 37.2668 63.3C37.1688 63.2541 37.0572 63.1929 36.9317 63.1164C36.8154 63.046 36.7236 62.9986 36.6563 62.9741C36.592 62.9465 36.5293 62.9328 36.4681 62.9328C36.3702 62.9328 36.283 62.971 36.2065 63.0475C36.1331 63.1209 36.0321 63.2739 35.9036 63.5065L35.4262 63.2173C35.6159 62.8624 35.7812 62.6176 35.9219 62.483C36.0627 62.3453 36.2233 62.2764 36.4039 62.2764C36.4926 62.2764 36.5829 62.2978 36.6747 62.3407C36.7665 62.3835 36.8812 62.4447 37.0189 62.5243C37.1627 62.6008 37.2698 62.6558 37.3402 62.6895C37.4106 62.7201 37.4779 62.7354 37.5421 62.7354C37.6431 62.7354 37.7257 62.6987 37.79 62.6252C37.8573 62.5518 37.9399 62.4034 38.0378 62.18ZM37.4182 64.2868V69.7625H36.5278V64.2868H37.4182ZM45.7062 71.1624C46.3243 71.1624 46.7802 71.0078 47.0739 70.6988C47.3677 70.3897 47.5146 69.9124 47.5146 69.2667V63.5799H48.405V69.3264C48.405 70.223 48.1602 70.9084 47.6706 71.3827C47.1841 71.86 46.4971 72.0987 45.6098 72.0987C44.8173 72.0987 44.2038 71.8891 43.7693 71.4699C43.3378 71.0537 43.1221 70.4601 43.1221 69.689C43.1221 69.435 43.1481 69.1566 43.2001 68.8537C43.2552 68.5477 43.3424 68.1897 43.4617 67.7796L44.265 68.0045C44.164 68.3289 44.089 68.6288 44.0401 68.9042C43.9942 69.1765 43.9712 69.4197 43.9712 69.6339C43.9712 70.6529 44.5495 71.1624 45.7062 71.1624ZM52.1319 69.7854L52.1044 69.7349C51.9331 69.7472 51.7617 69.7548 51.5903 69.7579C51.419 69.7609 51.2522 69.7625 51.0901 69.7625C50.6066 69.7625 50.2256 69.6446 49.9472 69.409C49.6687 69.1704 49.5295 68.8016 49.5295 68.3029C49.5295 67.9326 49.5892 67.5823 49.7085 67.2518C49.8278 66.9183 50.0084 66.6475 50.2501 66.4394C50.4918 66.2283 50.7948 66.1227 51.1589 66.1227C51.4679 66.1227 51.7311 66.2023 51.9484 66.3614C52.1656 66.5174 52.3446 66.727 52.4854 66.9902C52.6292 67.2503 52.7393 67.541 52.8158 67.8623C52.8923 68.1805 52.9428 68.5033 52.9673 68.8307H53.3069V69.7625H52.9398C52.8541 70.353 52.5343 70.8502 51.9805 71.2542C51.4297 71.6581 50.6877 71.9885 49.7544 72.2456L49.378 71.3964C50.1338 71.222 50.755 70.9956 51.2415 70.7171C51.7311 70.4417 52.0279 70.1312 52.1319 69.7854ZM52.1457 68.8491C52.1396 68.6594 52.1182 68.4605 52.0815 68.2524C52.0447 68.0443 51.9881 67.85 51.9116 67.6695C51.8351 67.4889 51.7326 67.3421 51.6041 67.2289C51.4787 67.1156 51.3226 67.059 51.136 67.059C50.9432 67.059 50.7825 67.1141 50.654 67.2243C50.5255 67.3344 50.4291 67.4752 50.3649 67.6465C50.3037 67.8179 50.2731 67.9954 50.2731 68.179C50.2731 68.436 50.3511 68.615 50.5071 68.716C50.6632 68.8139 50.8713 68.8628 51.1314 68.8628C51.2966 68.8628 51.4634 68.8628 51.6317 68.8628C51.803 68.8598 51.9744 68.8552 52.1457 68.8491ZM55.253 71.3827L55.914 70.7217L56.5795 71.3827L55.914 72.0482L55.253 71.3827ZM53.6512 71.3827L54.3121 70.7217L54.9776 71.3827L54.3121 72.0482L53.6512 71.3827ZM54.459 72.8239L55.1153 72.1629L55.7809 72.8239L55.1153 73.4894L54.459 72.8239ZM56.4831 66.1273C56.5719 66.4639 56.6407 66.7806 56.6897 67.0774C56.7417 67.3742 56.7677 67.6404 56.7677 67.876C56.7677 68.488 56.5948 68.9562 56.249 69.2805C55.9033 69.6018 55.3341 69.7625 54.5416 69.7625H53.3069C53.206 69.7625 53.1555 69.6064 53.1555 69.2943C53.1555 68.9852 53.206 68.8307 53.3069 68.8307H54.5416C55.0526 68.8307 55.406 68.745 55.6019 68.5737C55.8008 68.4023 55.9002 68.1453 55.9002 67.8026C55.9002 67.6312 55.8773 67.4232 55.8314 67.1784C55.7855 66.9305 55.7258 66.6567 55.6524 66.3568L56.4831 66.1273ZM67.6627 63.4835L68.3236 62.8226L68.9845 63.4835L68.3236 64.1491L67.6627 63.4835ZM68.3098 69.2897C67.9702 69.4488 67.5862 69.5681 67.1578 69.6477C66.7325 69.7242 66.2827 69.7625 65.8084 69.7625C65.0465 69.7625 64.3901 69.7074 63.8393 69.5972C63.2916 69.484 62.8693 69.282 62.5725 68.9914C62.2788 68.6976 62.1319 68.2815 62.1319 67.7429C62.1319 67.4798 62.1656 67.1983 62.2329 66.8984C62.3033 66.5985 62.3859 66.3048 62.4807 66.0171L63.2656 66.2742C63.1952 66.4945 63.131 66.727 63.0728 66.9718C63.0147 67.2136 62.9856 67.4308 62.9856 67.6236C62.9856 67.9449 63.0881 68.1927 63.2931 68.3671C63.4981 68.5385 63.8087 68.6578 64.2249 68.7251C64.6441 68.7894 65.1719 68.8246 65.8084 68.8307C66.0838 68.8338 66.3607 68.8261 66.6391 68.8078C66.9176 68.7863 67.1823 68.7527 67.4332 68.7068L67.4424 68.6655C67.1823 68.5064 66.9711 68.3059 66.809 68.0642C66.6498 67.8225 66.5703 67.5318 66.5703 67.1921C66.5703 66.8219 66.6468 66.5006 66.7998 66.2283C66.9558 65.9559 67.1654 65.7463 67.4286 65.5995C67.6948 65.4495 67.9931 65.3746 68.3236 65.3746C68.651 65.3746 68.9463 65.4495 69.2094 65.5995C69.4726 65.7494 69.6822 65.9605 69.8383 66.2329C69.9943 66.5021 70.0723 66.8204 70.0723 67.1875C70.0723 67.5241 69.9882 67.8164 69.8199 68.0642C69.6547 68.3121 69.442 68.5155 69.1819 68.6747L69.1957 68.716C69.4711 68.7925 69.7801 68.8307 70.1228 68.8307H70.6323V69.7625H70.0402C69.6791 69.7625 69.364 69.7211 69.0947 69.6385C68.8254 69.5559 68.5638 69.4396 68.3098 69.2897ZM68.319 68.4635C68.5822 68.3381 68.7948 68.1759 68.957 67.977C69.1192 67.775 69.2003 67.5257 69.2003 67.2289C69.2003 66.9535 69.1176 66.7286 68.9524 66.5542C68.7902 66.3797 68.5806 66.2925 68.3236 66.2925C68.0635 66.2925 67.8508 66.3797 67.6856 66.5542C67.5234 66.7255 67.4424 66.9504 67.4424 67.2289C67.4424 67.5165 67.5234 67.7613 67.6856 67.9632C67.8508 68.1652 68.062 68.3319 68.319 68.4635ZM73.0144 67.4951C73.0144 67.798 73.0435 68.0489 73.1016 68.2478C73.1598 68.4436 73.2715 68.5905 73.4367 68.6884C73.605 68.7833 73.8544 68.8307 74.1848 68.8307H74.4786V69.7625H74.1711C73.7825 69.7625 73.4443 69.6691 73.1567 69.4825C72.8721 69.2958 72.6809 69.0311 72.583 68.6884H72.5371C72.4392 69.0311 72.2311 69.2958 71.9129 69.4825C71.5977 69.6691 71.2443 69.7625 70.8526 69.7625H70.6369C70.5359 69.7625 70.4854 69.6064 70.4854 69.2943C70.4854 68.9852 70.5359 68.8307 70.6369 68.8307H70.8526C71.2076 68.8307 71.4753 68.7818 71.6558 68.6838C71.8394 68.5859 71.9618 68.439 72.023 68.2432C72.0873 68.0443 72.1194 67.7949 72.1194 67.4951V66.8341H73.0144V67.4951ZM69.6225 71.3873L70.2835 70.7263L70.949 71.3873L70.2835 72.0528L69.6225 71.3873ZM71.2244 71.3873L71.8853 70.7263L72.5509 71.3873L71.8853 72.0528L71.2244 71.3873ZM78.4809 63.5111L78.6186 64.4336C77.9454 64.5958 77.3687 64.7488 76.8883 64.8926C76.4109 65.0334 75.9902 65.1757 75.626 65.3195L75.6215 65.3562C76.1386 65.7509 76.5547 66.0982 76.8699 66.3981C77.1851 66.698 77.4146 66.9749 77.5584 67.2289C77.7052 67.4798 77.7787 67.7353 77.7787 67.9954C77.7787 68.5614 77.5446 68.9975 77.0764 69.3035C76.6083 69.6095 75.9397 69.7625 75.0707 69.7625H74.4832C74.4312 69.7625 74.3929 69.7273 74.3684 69.6569C74.344 69.5834 74.3317 69.4626 74.3317 69.2943C74.3317 69.1291 74.344 69.0112 74.3684 68.9409C74.3929 68.8674 74.4312 68.8307 74.4832 68.8307H75.0523C76.2763 68.8307 76.8883 68.5354 76.8883 67.9449C76.8883 67.7705 76.8102 67.5792 76.6542 67.3711C76.5012 67.1631 76.2564 66.9183 75.9198 66.6368C75.5832 66.3553 75.1395 66.0171 74.5887 65.6224L74.6622 64.7733C75.216 64.5193 75.8127 64.2852 76.4522 64.071C77.0948 63.8569 77.771 63.6702 78.4809 63.5111ZM86.2594 64.3694L86.9203 63.7084L87.5859 64.3694L86.9203 65.0349L86.2594 64.3694ZM87.8613 64.3694L88.5222 63.7084L89.1877 64.3694L88.5222 65.0349L87.8613 64.3694ZM87.7281 66.1227C88.028 66.1227 88.2866 66.1992 88.5038 66.3522C88.7211 66.5021 88.9016 66.7071 89.0454 66.9672C89.1892 67.2243 89.3009 67.515 89.3805 67.8393C89.4601 68.1606 89.5136 68.4911 89.5411 68.8307H89.8808V69.7625H89.5136C89.4371 70.5733 89.1296 71.1975 88.591 71.6351C88.0525 72.0727 87.3166 72.2915 86.3833 72.2915C85.3797 72.2915 84.6208 72.0773 84.1068 71.6489C83.5958 71.2205 83.3403 70.5825 83.3403 69.7349C83.3403 69.282 83.4213 68.5798 83.5835 67.6282L84.451 67.8026C84.3745 68.231 84.3179 68.5966 84.2812 68.8996C84.2475 69.2025 84.2307 69.4626 84.2307 69.6798C84.2307 70.2643 84.4143 70.6896 84.7815 70.9558C85.1517 71.222 85.6979 71.3551 86.42 71.3551C87.0749 71.3551 87.6012 71.222 87.9989 70.9558C88.3998 70.6896 88.6354 70.2995 88.7058 69.7854L88.6737 69.7349C88.3432 69.7533 88.0051 69.7625 87.6593 69.7625C87.1789 69.7625 86.7979 69.6446 86.5164 69.409C86.238 69.1734 86.0988 68.8047 86.0988 68.3029C86.0988 67.9051 86.1615 67.5425 86.2869 67.2151C86.4155 66.8846 86.6006 66.6199 86.8423 66.421C87.0871 66.2222 87.3824 66.1227 87.7281 66.1227ZM87.7098 67.059C87.517 67.059 87.3564 67.1141 87.2279 67.2243C87.0993 67.3344 87.003 67.4767 86.9387 67.6511C86.8744 67.8225 86.8423 68 86.8423 68.1835C86.8423 68.4375 86.9203 68.615 87.0764 68.716C87.2324 68.8139 87.4405 68.8628 87.7006 68.8628C88.0464 68.8628 88.3845 68.8583 88.715 68.8491C88.7088 68.6594 88.6874 68.4605 88.6507 68.2524C88.614 68.0443 88.5574 67.85 88.4809 67.6695C88.4044 67.4889 88.3034 67.3421 88.178 67.2289C88.0525 67.1156 87.8964 67.059 87.7098 67.059ZM90.2296 71.3873L90.8906 70.7263L91.5561 71.3873L90.8906 72.0528L90.2296 71.3873ZM91.8315 71.3873L92.4924 70.7263L93.1579 71.3873L92.4924 72.0528L91.8315 71.3873ZM93.0615 66.1273C93.1503 66.4639 93.2191 66.7806 93.2681 67.0774C93.3201 67.3742 93.3461 67.6404 93.3461 67.876C93.3461 68.488 93.1732 68.9562 92.8275 69.2805C92.4817 69.6018 91.9126 69.7625 91.12 69.7625H89.8854C89.7844 69.7625 89.7339 69.6064 89.7339 69.2943C89.7339 68.9852 89.7844 68.8307 89.8854 68.8307H91.12C91.631 68.8307 91.9845 68.745 92.1803 68.5737C92.3792 68.4023 92.4786 68.1453 92.4786 67.8026C92.4786 67.6312 92.4557 67.4232 92.4098 67.1784C92.3639 66.9305 92.3042 66.6567 92.2308 66.3568L93.0615 66.1273ZM95.5722 66.9718L96.4075 66.6781L96.7105 67.6098C96.8084 67.9127 96.917 68.1545 97.0363 68.335C97.1587 68.5125 97.3133 68.6395 97.4999 68.716C97.6866 68.7925 97.9298 68.8307 98.2297 68.8307H98.2343V69.7625H98.2297C97.6361 69.7625 97.2001 69.5651 96.9216 69.1704L96.8757 69.1841C96.9277 69.9369 96.7258 70.5504 96.2698 71.0247C95.817 71.502 95.1147 71.9136 94.1631 72.2593L93.7684 71.4194C94.6007 71.1287 95.1943 70.8196 95.5492 70.4922C95.9072 70.1679 96.0863 69.7701 96.0863 69.2989C96.0863 69.0296 96.0404 68.693 95.9486 68.2891C95.8598 67.8852 95.7344 67.4461 95.5722 66.9718ZM98.2389 69.7625C98.1869 69.7625 98.1486 69.7288 98.1241 69.6615C98.0997 69.5942 98.0874 69.4718 98.0874 69.2943C98.0874 69.1138 98.0997 68.9914 98.1241 68.9271C98.1486 68.8628 98.1869 68.8307 98.2389 68.8307H98.9044C98.9473 68.7695 98.987 68.7098 99.0238 68.6517C99.0605 68.5905 99.0987 68.5308 99.1385 68.4727V63.5799H100.029V66.4715C100.029 66.7163 100.011 66.9412 99.9739 67.1462C99.9402 67.3482 99.8912 67.5486 99.827 67.7475L99.8683 67.7796C100.291 67.238 100.714 66.8234 101.14 66.5358C101.565 66.2482 101.981 66.1043 102.388 66.1043C102.881 66.1043 103.272 66.2635 103.563 66.5817C103.854 66.8999 103.999 67.3099 103.999 67.8118C103.999 68.1943 103.904 68.5324 103.715 68.8261C103.525 69.1199 103.22 69.3494 102.801 69.5146C102.382 69.6798 101.827 69.7625 101.135 69.7625H98.2389ZM99.9004 68.8307H101.323C101.635 68.8307 101.932 68.8062 102.214 68.7573C102.495 68.7053 102.725 68.6104 102.902 68.4727C103.08 68.3319 103.168 68.1269 103.168 67.8577C103.168 67.6159 103.086 67.417 102.921 67.261C102.755 67.1019 102.537 67.0223 102.264 67.0223C102.074 67.0223 101.862 67.0728 101.626 67.1738C101.391 67.2748 101.13 67.4568 100.846 67.72C100.561 67.9801 100.246 68.3503 99.9004 68.8307ZM109.818 66.9718L110.653 66.6781C110.824 67.186 110.959 67.6588 111.057 68.0963C111.158 68.5308 111.208 68.924 111.208 69.2759C111.208 69.9613 110.984 70.5412 110.534 71.0155C110.087 71.4928 109.379 71.9074 108.409 72.2593L108.014 71.4194C108.819 71.1379 109.406 70.8349 109.776 70.5106C110.147 70.1862 110.332 69.7823 110.332 69.2989C110.332 69.0174 110.284 68.6701 110.19 68.257C110.098 67.8439 109.974 67.4155 109.818 66.9718ZM109.63 64.7825L110.291 64.1215L110.951 64.7825L110.291 65.448L109.63 64.7825ZM113.366 69.7625H112.475V63.5799H113.366V69.7625ZM122.021 65.0487L123.246 67.9173C123.353 68.1652 123.462 68.3549 123.572 68.4865C123.685 68.6181 123.815 68.7083 123.962 68.7573C124.112 68.8062 124.293 68.8307 124.504 68.8307H124.564V69.7625H124.504C124.088 69.7625 123.739 69.6829 123.457 69.5238C123.176 69.3616 122.96 69.0939 122.81 68.7206H122.764C122.618 69.0663 122.368 69.3341 122.016 69.5238C121.664 69.7135 121.273 69.8083 120.841 69.8083C120.535 69.8083 120.228 69.7548 119.919 69.6477C119.61 69.5375 119.319 69.3723 119.047 69.152L119.473 68.3717C119.92 68.7083 120.385 68.8766 120.869 68.8766C121.159 68.8766 121.438 68.8139 121.704 68.6884C121.973 68.5599 122.192 68.3748 122.36 68.1331L121.176 65.4526L122.021 65.0487ZM126.941 67.4951C126.941 67.798 126.97 68.0489 127.028 68.2478C127.086 68.4436 127.198 68.5905 127.363 68.6884C127.532 68.7833 127.781 68.8307 128.112 68.8307H128.405V69.7625H128.098C127.709 69.7625 127.371 69.6691 127.083 69.4825C126.799 69.2958 126.608 69.0311 126.51 68.6884H126.464C126.366 69.0311 126.158 69.2958 125.84 69.4825C125.524 69.6691 125.171 69.7625 124.779 69.7625H124.564C124.463 69.7625 124.412 69.6064 124.412 69.2943C124.412 68.9852 124.463 68.8307 124.564 68.8307H124.779C125.134 68.8307 125.402 68.7818 125.583 68.6838C125.766 68.5859 125.889 68.439 125.95 68.2432C126.014 68.0443 126.046 67.7949 126.046 67.4951V66.8341H126.941V67.4951ZM123.549 71.3873L124.21 70.7263L124.876 71.3873L124.21 72.0528L123.549 71.3873ZM125.151 71.3873L125.812 70.7263L126.478 71.3873L125.812 72.0528L125.151 71.3873ZM130.416 66.1273C130.504 66.4639 130.573 66.7806 130.622 67.0774C130.674 67.3742 130.7 67.6404 130.7 67.876C130.7 68.488 130.532 68.9562 130.195 69.2805C129.862 69.6018 129.339 69.7625 128.626 69.7625H128.41C128.309 69.7625 128.258 69.6064 128.258 69.2943C128.258 68.9852 128.309 68.8307 128.41 68.8307H128.626C129.057 68.8307 129.366 68.745 129.553 68.5737C129.739 68.4023 129.833 68.1453 129.833 67.8026C129.833 67.6312 129.81 67.4232 129.764 67.1784C129.718 66.9305 129.658 66.6567 129.585 66.3568L130.416 66.1273ZM128.837 64.4428L129.498 63.7819L130.159 64.4428L129.498 65.1083L128.837 64.4428ZM132.779 69.7625H131.889V63.5799H132.779V69.7625ZM136.662 69.7854L136.635 69.7349C136.464 69.7472 136.292 69.7548 136.121 69.7579C135.949 69.7609 135.783 69.7625 135.621 69.7625C135.137 69.7625 134.756 69.6446 134.478 69.409C134.199 69.1704 134.06 68.8016 134.06 68.3029C134.06 67.9326 134.12 67.5823 134.239 67.2518C134.358 66.9183 134.539 66.6475 134.781 66.4394C135.022 66.2283 135.325 66.1227 135.689 66.1227C135.998 66.1227 136.262 66.2023 136.479 66.3614C136.696 66.5174 136.875 66.727 137.016 66.9902C137.16 67.2503 137.27 67.541 137.346 67.8623C137.423 68.1805 137.473 68.5033 137.498 68.8307H137.837V69.7625H137.47C137.385 70.353 137.065 70.8502 136.511 71.2542C135.96 71.6581 135.218 71.9885 134.285 72.2456L133.909 71.3964C134.664 71.222 135.285 70.9956 135.772 70.7171C136.262 70.4417 136.558 70.1312 136.662 69.7854ZM136.676 68.8491C136.67 68.6594 136.649 68.4605 136.612 68.2524C136.575 68.0443 136.519 67.85 136.442 67.6695C136.366 67.4889 136.263 67.3421 136.135 67.2289C136.009 67.1156 135.853 67.059 135.666 67.059C135.474 67.059 135.313 67.1141 135.185 67.2243C135.056 67.3344 134.96 67.4752 134.895 67.6465C134.834 67.8179 134.804 67.9954 134.804 68.179C134.804 68.436 134.882 68.615 135.038 68.716C135.194 68.8139 135.402 68.8628 135.662 68.8628C135.827 68.8628 135.994 68.8628 136.162 68.8628C136.334 68.8598 136.505 68.8552 136.676 68.8491ZM139.843 66.1273C139.932 66.4639 140.001 66.7806 140.05 67.0774C140.102 67.3742 140.128 67.6404 140.128 67.876C140.128 68.488 139.959 68.9562 139.623 69.2805C139.289 69.6018 138.766 69.7625 138.053 69.7625H137.837C137.736 69.7625 137.686 69.6064 137.686 69.2943C137.686 68.9852 137.736 68.8307 137.837 68.8307H138.053C138.485 68.8307 138.794 68.745 138.98 68.5737C139.167 68.4023 139.26 68.1453 139.26 67.8026C139.26 67.6312 139.237 67.4232 139.191 67.1784C139.146 66.9305 139.086 66.6567 139.012 66.3568L139.843 66.1273ZM137.53 64.5071L138.191 63.8461L138.856 64.5071L138.191 65.1726L137.53 64.5071ZM139.132 64.5071L139.793 63.8461L140.458 64.5071L139.793 65.1726L139.132 64.5071ZM150.513 69.8083C150.85 69.9613 151.085 70.1128 151.22 70.2627C151.355 70.4127 151.422 70.5993 151.422 70.8227C151.422 71.1287 151.29 71.4056 151.027 71.6535C150.764 71.9013 150.408 72.0972 149.958 72.241C149.508 72.3848 149.002 72.4567 148.439 72.4567C147.438 72.4567 146.696 72.2501 146.213 71.8371C145.732 71.427 145.492 70.7936 145.492 69.9369C145.492 69.6125 145.52 69.2346 145.575 68.8032C145.63 68.3717 145.709 67.9097 145.813 67.417L146.639 67.5777C146.538 68.0458 146.462 68.4773 146.41 68.872C146.358 69.2637 146.332 69.5972 146.332 69.8726C146.332 70.457 146.496 70.8778 146.823 71.1348C147.154 71.3918 147.692 71.5204 148.439 71.5204C149.051 71.5204 149.548 71.4408 149.93 71.2817C150.313 71.1226 150.504 70.9145 150.504 70.6575C150.504 70.5381 150.446 70.4356 150.33 70.35C150.213 70.2643 150.005 70.1801 149.705 70.0975C149.409 70.0149 148.988 69.92 148.443 69.8129L148.572 68.8307H151.881V69.7625H150.513V69.8083ZM151.881 68.8307C152.135 68.8307 152.343 68.7772 152.505 68.6701C152.671 68.5599 152.814 68.4054 152.937 68.2065C153.062 68.0076 153.191 67.7766 153.322 67.5134C153.469 67.2197 153.616 66.9657 153.763 66.7515C153.91 66.5343 154.077 66.366 154.263 66.2466C154.453 66.1273 154.682 66.0676 154.952 66.0676C155.276 66.0676 155.562 66.164 155.81 66.3568C156.058 66.5496 156.251 66.8005 156.388 67.1095C156.529 67.4186 156.599 67.7475 156.599 68.0963C156.599 68.6226 156.459 69.0403 156.177 69.3494C155.896 69.6584 155.516 69.8129 155.039 69.8129C154.693 69.8129 154.381 69.7319 154.103 69.5697C153.824 69.4044 153.581 69.1795 153.373 68.895C153.195 69.1642 152.995 69.3769 152.771 69.533C152.548 69.686 152.251 69.7625 151.881 69.7625C151.78 69.7625 151.73 69.6064 151.73 69.2943C151.73 68.9852 151.78 68.8307 151.881 68.8307ZM153.823 68.2524C154.021 68.4574 154.219 68.615 154.415 68.7251C154.61 68.8322 154.82 68.8858 155.043 68.8858C155.279 68.8858 155.466 68.8124 155.603 68.6655C155.744 68.5186 155.815 68.3243 155.815 68.0826C155.815 67.9143 155.776 67.746 155.7 67.5777C155.623 67.4094 155.519 67.2702 155.388 67.16C155.256 67.0468 155.106 66.9902 154.938 66.9902C154.693 66.9902 154.5 67.0835 154.36 67.2702C154.222 67.4568 154.09 67.6833 153.965 67.9495L153.823 68.2524ZM7.65439 86.8129C7.13421 86.8129 6.72878 86.6707 6.43809 86.3861C6.1474 86.0985 6.00205 85.742 6.00205 85.3167C6.00205 84.9005 6.11221 84.5058 6.33252 84.1325C6.55283 83.7561 6.8221 83.4103 7.14033 83.0952C6.98428 82.9422 6.82822 82.8014 6.67217 82.6729L7.22295 82.0166C7.6085 82.3317 7.96038 82.6637 8.27861 83.0125C8.5999 83.3614 8.8554 83.7224 9.04512 84.0958C9.23789 84.4691 9.33428 84.8531 9.33428 85.2478C9.33428 85.5507 9.2639 85.82 9.12314 86.0556C8.98545 86.2912 8.78962 86.4764 8.53564 86.611C8.28473 86.7456 7.99098 86.8129 7.65439 86.8129ZM7.65439 85.8766C7.9359 85.8766 8.14092 85.8078 8.26943 85.6701C8.40101 85.5324 8.4668 85.3595 8.4668 85.1514C8.4668 84.9158 8.39489 84.6634 8.25107 84.3941C8.10726 84.1248 7.90837 83.8739 7.65439 83.6414C7.40348 83.8739 7.20459 84.1264 7.05771 84.3987C6.91084 84.668 6.8374 84.9189 6.8374 85.1514C6.8374 85.3595 6.90166 85.5324 7.03018 85.6701C7.15869 85.8078 7.36676 85.8766 7.65439 85.8766ZM10.6378 83.9718L11.4731 83.6781C11.6445 84.186 11.7791 84.6588 11.8771 85.0963C11.978 85.5308 12.0285 85.924 12.0285 86.2759C12.0285 86.9613 11.8036 87.5412 11.3538 88.0155C10.9071 88.4928 10.1987 88.9074 9.22871 89.2593L8.83398 88.4194C9.63874 88.1379 10.2262 87.8349 10.5965 87.5106C10.9667 87.1862 11.1519 86.7823 11.1519 86.2989C11.1519 86.0174 11.1044 85.6701 11.0096 85.257C10.9178 84.8439 10.7938 84.4155 10.6378 83.9718ZM13.2173 80.5799H14.1123V84.697C14.1123 85.104 14.2026 85.3947 14.3831 85.5691C14.5667 85.7435 14.8895 85.8307 15.3516 85.8307H15.3562V86.7625H15.3516C14.66 86.7625 14.1307 86.5926 13.7635 86.253C13.3993 85.9103 13.2173 85.3977 13.2173 84.7154V80.5799ZM17.1967 88.3873L17.8576 87.7263L18.5186 88.3873L17.8576 89.0528L17.1967 88.3873ZM17.339 82.7004C17.4981 82.7004 17.6893 82.7372 17.9127 82.8106C18.1391 82.881 18.4696 83.011 18.9041 83.2007C19.3233 83.3813 19.6798 83.5236 19.9735 83.6276C20.2703 83.7316 20.5626 83.8188 20.8502 83.8892V84.6603L18.5736 85.9638C18.084 86.2484 17.6297 86.4534 17.2104 86.5789C16.7912 86.7013 16.3476 86.7625 15.8794 86.7625H15.3607C15.3087 86.7625 15.2705 86.7273 15.246 86.6569C15.2215 86.5834 15.2093 86.4626 15.2093 86.2943C15.2093 86.1291 15.2215 86.0112 15.246 85.9409C15.2705 85.8674 15.3087 85.8307 15.3607 85.8307H16.0446C16.2894 85.8307 16.5189 85.8124 16.7331 85.7756C16.9504 85.7359 17.1753 85.6731 17.4078 85.5875C17.6434 85.4987 17.9096 85.3794 18.2064 85.2294L19.7165 84.44V84.3941C19.539 84.3482 19.3478 84.2885 19.1428 84.2151C18.9408 84.1417 18.7067 84.0483 18.4405 83.9351C18.1407 83.8158 17.9066 83.7316 17.7383 83.6827C17.573 83.6306 17.4384 83.6046 17.3344 83.6046C17.1324 83.6046 16.9657 83.6689 16.8341 83.7974C16.7025 83.9259 16.5786 84.1417 16.4623 84.4446L16.4256 84.5318L15.7646 84.3207L15.7968 84.2334C15.9712 83.6918 16.1808 83.3017 16.4256 83.063C16.6704 82.8213 16.9748 82.7004 17.339 82.7004ZM22.934 86.7625H22.0436V80.5799H22.934V86.7625ZM29.4225 82.7004L29.3812 81.9661L30.2716 81.9156L30.4323 84.5639C30.4537 84.8913 30.4996 85.1484 30.57 85.335C30.6434 85.5186 30.7566 85.6471 30.9096 85.7206C31.0657 85.794 31.2783 85.8307 31.5476 85.8307H31.5522V86.7625H31.5476C31.1161 86.7625 30.7658 86.689 30.4965 86.5421C30.2303 86.3922 30.0222 86.1673 29.8723 85.8674C29.5326 86.0112 29.1746 86.0832 28.7983 86.0832C28.4586 86.0832 28.1511 86.0327 27.8757 85.9317C27.6034 85.8307 27.3861 85.6823 27.224 85.4865C27.0648 85.2876 26.9853 85.0458 26.9853 84.7613C26.9853 84.235 27.1995 83.7928 27.6279 83.4348C28.0593 83.0768 28.6575 82.832 29.4225 82.7004ZM29.4822 83.5633C28.965 83.6153 28.552 83.7332 28.2429 83.9167C27.9369 84.0973 27.7839 84.3237 27.7839 84.596C27.7839 84.8133 27.888 84.9724 28.096 85.0734C28.3041 85.1744 28.5565 85.2249 28.8534 85.2249C29.1349 85.2249 29.3904 85.1897 29.6199 85.1193C29.6015 85.0306 29.5877 84.9495 29.5785 84.876C29.5694 84.7995 29.5617 84.7184 29.5556 84.6328L29.4822 83.5633ZM33.9297 84.4951C33.9297 84.798 33.9588 85.0489 34.0169 85.2478C34.0751 85.4436 34.1867 85.5905 34.352 85.6884C34.5203 85.7833 34.7697 85.8307 35.1001 85.8307H35.3939V86.7625H35.0864C34.6978 86.7625 34.3596 86.6691 34.072 86.4825C33.7874 86.2958 33.5962 86.0311 33.4983 85.6884H33.4524C33.3545 86.0311 33.1464 86.2958 32.8282 86.4825C32.513 86.6691 32.1596 86.7625 31.7679 86.7625H31.5522C31.4512 86.7625 31.4007 86.6064 31.4007 86.2943C31.4007 85.9852 31.4512 85.8307 31.5522 85.8307H31.7679C32.1228 85.8307 32.3906 85.7818 32.5711 85.6838C32.7547 85.5859 32.8771 85.439 32.9383 85.2432C33.0026 85.0443 33.0347 84.7949 33.0347 84.4951V83.8341H33.9297V84.4951ZM32.337 82.1129L32.998 81.452L33.6589 82.1129L32.998 82.7785L32.337 82.1129ZM37.4042 83.1273C37.493 83.4639 37.5618 83.7806 37.6108 84.0774C37.6628 84.3742 37.6888 84.6404 37.6888 84.876C37.6888 85.488 37.5205 85.9562 37.1839 86.2805C36.8504 86.6018 36.3271 86.7625 35.6142 86.7625H35.3985C35.2975 86.7625 35.247 86.6064 35.247 86.2943C35.247 85.9852 35.2975 85.8307 35.3985 85.8307H35.6142C36.0456 85.8307 36.3547 85.745 36.5413 85.5737C36.728 85.4023 36.8213 85.1453 36.8213 84.8026C36.8213 84.6312 36.7984 84.4232 36.7525 84.1784C36.7066 83.9305 36.6469 83.6567 36.5735 83.3568L37.4042 83.1273ZM34.531 88.3873L35.1919 87.7263L35.8575 88.3873L35.1919 89.0528L34.531 88.3873ZM36.1328 88.3873L36.7938 87.7263L37.4593 88.3873L36.7938 89.0528L36.1328 88.3873ZM39.7037 81.8605L40.3647 81.1996L41.0256 81.8605L40.3647 82.526L39.7037 81.8605ZM39.9103 83.9718L40.7456 83.6781L41.0486 84.6098C41.1465 84.9127 41.2551 85.1545 41.3744 85.335C41.4968 85.5125 41.6514 85.6395 41.838 85.716C42.0247 85.7925 42.2679 85.8307 42.5678 85.8307H42.5724V86.7625H42.5678C41.9742 86.7625 41.5381 86.5651 41.2597 86.1704L41.2138 86.1841C41.2658 86.9369 41.0639 87.5504 40.6079 88.0247C40.1551 88.502 39.4528 88.9136 38.5012 89.2593L38.1065 88.4194C38.9388 88.1287 39.5324 87.8196 39.8873 87.4922C40.2453 87.1679 40.4243 86.7701 40.4243 86.2989C40.4243 86.0296 40.3784 85.693 40.2867 85.2891C40.1979 84.8852 40.0725 84.4461 39.9103 83.9718ZM42.577 85.8307H42.8478C43.0712 85.8307 43.2655 85.82 43.4307 85.7986C43.5959 85.7741 43.7658 85.7343 43.9402 85.6792C43.42 85.2692 43.1599 84.8317 43.1599 84.3666C43.1599 84.0667 43.2456 83.7913 43.4169 83.5404C43.5883 83.2895 43.8224 83.1181 44.1192 83.0263L44.1284 82.9804L43.3481 82.6454L43.7153 81.833L46.18 82.8886C46.74 83.1242 47.1867 83.3553 47.5202 83.5817C47.8538 83.8081 48.094 84.0514 48.2409 84.3115C48.3908 84.5716 48.4658 84.8684 48.4658 85.2019C48.4658 85.7007 48.3082 86.0939 47.993 86.3815C47.6809 86.6691 47.254 86.8129 46.7124 86.8129C46.076 86.8129 45.438 86.6324 44.7985 86.2713C44.5108 86.4396 44.2171 86.5636 43.9172 86.6431C43.6173 86.7227 43.2854 86.7625 42.9212 86.7625H42.577C42.476 86.7625 42.4255 86.6064 42.4255 86.2943C42.4255 85.9852 42.476 85.8307 42.577 85.8307ZM44.8352 85.4819C45.1075 85.3472 45.3187 85.182 45.4686 84.9862C45.6185 84.7873 45.6935 84.5762 45.6935 84.3528C45.6935 84.0529 45.6185 83.8173 45.4686 83.6459C45.3217 83.4746 45.1213 83.3889 44.8673 83.3889C44.6133 83.3889 44.393 83.4868 44.2064 83.6827C44.0197 83.8754 43.9264 84.108 43.9264 84.3803C43.9264 84.5762 44.006 84.7705 44.1651 84.9632C44.3242 85.156 44.5476 85.3289 44.8352 85.4819ZM45.6522 85.6517C45.8419 85.7221 46.0331 85.7787 46.2259 85.8215C46.4217 85.8613 46.6038 85.8812 46.7721 85.8812C47.4024 85.8812 47.7176 85.641 47.7176 85.1606C47.7176 84.9005 47.6059 84.6725 47.3826 84.4767C47.1622 84.2778 46.7828 84.0682 46.2443 83.8479C46.3697 84.2181 46.3804 84.5578 46.2764 84.8668C46.1754 85.1728 45.9673 85.4345 45.6522 85.6517ZM54.8716 88.3873L55.5326 87.7263L56.1935 88.3873L55.5326 89.0528L54.8716 88.3873ZM58.9704 83.0998C59.0408 83.3537 59.0958 83.6077 59.1356 83.8617C59.1784 84.1156 59.1999 84.3528 59.1999 84.5731C59.1999 85.1239 59.0759 85.5584 58.8281 85.8766C58.5833 86.1948 58.1916 86.4228 57.6531 86.5605C57.1176 86.6951 56.4123 86.7625 55.5372 86.7625C54.6682 86.7625 53.9644 86.6951 53.4258 86.5605C52.8873 86.4259 52.4941 86.2025 52.2463 85.8904C52.0015 85.5752 51.8791 85.1499 51.8791 84.6144C51.8791 84.4033 51.899 84.1677 51.9387 83.9076C51.9816 83.6444 52.0366 83.3751 52.104 83.0998L52.9118 83.2879C52.8598 83.5113 52.8154 83.7316 52.7787 83.9489C52.745 84.1661 52.7282 84.3543 52.7282 84.5134C52.7282 84.8623 52.8169 85.1315 52.9944 85.3212C53.1719 85.511 53.4656 85.6441 53.8756 85.7206C54.2857 85.794 54.8395 85.8307 55.5372 85.8307C56.244 85.8307 56.8024 85.7925 57.2125 85.716C57.6225 85.6364 57.9132 85.5002 58.0845 85.3075C58.2589 85.1116 58.3462 84.8378 58.3462 84.4859C58.3462 84.3207 58.3293 84.1325 58.2957 83.9213C58.2651 83.7102 58.2238 83.4991 58.1717 83.2879L58.9704 83.0998ZM60.3152 80.5799H61.2102V84.697C61.2102 85.104 61.3005 85.3947 61.481 85.5691C61.6646 85.7435 61.9874 85.8307 62.4495 85.8307H62.4541V86.7625H62.4495C61.7579 86.7625 61.2286 86.5926 60.8614 86.253C60.4973 85.9103 60.3152 85.3977 60.3152 84.7154V80.5799ZM64.8362 84.4951C64.8362 84.798 64.8653 85.0489 64.9234 85.2478C64.9815 85.4436 65.0932 85.5905 65.2585 85.6884C65.4268 85.7833 65.6761 85.8307 66.0066 85.8307H66.3004V86.7625H65.9928C65.6042 86.7625 65.2661 86.6691 64.9785 86.4825C64.6939 86.2958 64.5027 86.0311 64.4047 85.6884H64.3589C64.2609 86.0311 64.0529 86.2958 63.7346 86.4825C63.4195 86.6691 63.066 86.7625 62.6744 86.7625H62.4587C62.3577 86.7625 62.3072 86.6064 62.3072 86.2943C62.3072 85.9852 62.3577 85.8307 62.4587 85.8307H62.6744C63.0293 85.8307 63.2971 85.7818 63.4776 85.6838C63.6612 85.5859 63.7836 85.439 63.8448 85.2432C63.909 85.0443 63.9412 84.7949 63.9412 84.4951V83.8341H64.8362V84.4951ZM62.4678 82.1129L63.1288 81.452L63.7943 82.1129L63.1288 82.7785L62.4678 82.1129ZM64.0697 82.1129L64.7306 81.452L65.3962 82.1129L64.7306 82.7785L64.0697 82.1129ZM70.0135 80.7865L70.6699 80.1255L71.3354 80.7865L70.6699 81.4474L70.0135 80.7865ZM70.8122 82.2277L71.4731 81.5667L72.1386 82.2277L71.4731 82.8932L70.8122 82.2277ZM69.2103 82.2277L69.8713 81.5667L70.5368 82.2277L69.8713 82.8932L69.2103 82.2277ZM69.5041 85.8307C69.7672 85.8307 69.96 85.7542 70.0824 85.6012C70.2048 85.4452 70.2813 85.205 70.3119 84.8806L70.3899 84.0269L71.1839 84.0866L71.1197 84.9082C71.0891 85.2141 71.1442 85.4452 71.2849 85.6012C71.4257 85.7542 71.6322 85.8307 71.9046 85.8307C72.4094 85.8307 72.6619 85.5416 72.6619 84.9632C72.6619 84.8714 72.6542 84.7506 72.6389 84.6006C72.6267 84.4476 72.6099 84.2901 72.5884 84.1279C72.567 83.9626 72.5441 83.8173 72.5196 83.6918L73.3825 83.4853C73.4253 83.6995 73.4636 83.9428 73.4972 84.2151C73.5309 84.4874 73.5477 84.7322 73.5477 84.9495C73.5477 85.5614 73.4192 86.0174 73.1622 86.3172C72.9051 86.614 72.5318 86.7625 72.0422 86.7625C71.6689 86.7625 71.3767 86.6752 71.1656 86.5008C70.9575 86.3234 70.8198 86.0877 70.7525 85.794H70.7066C70.5536 86.4396 70.1359 86.7625 69.4536 86.7625C69.0833 86.7625 68.7942 86.6707 68.5861 86.4871C68.3811 86.3035 68.2464 86.0449 68.1822 85.7114H68.1363C68.0261 86.0265 67.8303 86.2805 67.5488 86.4733C67.2673 86.6661 66.9246 86.7625 66.5207 86.7625H66.3049C66.204 86.7625 66.1535 86.6049 66.1535 86.2897C66.1535 85.9837 66.204 85.8307 66.3049 85.8307H66.5207C66.9429 85.8307 67.2535 85.7313 67.4524 85.5324C67.6513 85.3304 67.7752 85.0061 67.8242 84.5593L67.8976 83.802L68.788 83.8663L68.7008 84.8393C68.6672 85.1514 68.7192 85.3947 68.8569 85.5691C68.9977 85.7435 69.2134 85.8307 69.5041 85.8307ZM79.6966 82.7004L79.6553 81.9661L80.5457 81.9156L80.7063 84.5639C80.7278 84.8913 80.7737 85.1484 80.844 85.335C80.9175 85.5186 81.0307 85.6471 81.1837 85.7206C81.3397 85.794 81.5524 85.8307 81.8217 85.8307H81.8263V86.7625H81.8217C81.3902 86.7625 81.0399 86.689 80.7706 86.5421C80.5044 86.3922 80.2963 86.1673 80.1464 85.8674C79.8067 86.0112 79.4487 86.0832 79.0724 86.0832C78.7327 86.0832 78.4252 86.0327 78.1498 85.9317C77.8775 85.8307 77.6602 85.6823 77.498 85.4865C77.3389 85.2876 77.2594 85.0458 77.2594 84.7613C77.2594 84.235 77.4736 83.7928 77.902 83.4348C78.3334 83.0768 78.9316 82.832 79.6966 82.7004ZM79.7562 83.5633C79.2391 83.6153 78.826 83.7332 78.517 83.9167C78.211 84.0973 78.058 84.3237 78.058 84.596C78.058 84.8133 78.162 84.9724 78.3701 85.0734C78.5782 85.1744 78.8306 85.2249 79.1274 85.2249C79.409 85.2249 79.6645 85.1897 79.8939 85.1193C79.8756 85.0306 79.8618 84.9495 79.8526 84.876C79.8435 84.7995 79.8358 84.7184 79.8297 84.6328L79.7562 83.5633ZM84.8051 85.2845C84.7378 85.8047 84.5113 86.1811 84.1258 86.4136C83.7402 86.6462 83.1696 86.7625 82.4138 86.7625H81.8263C81.7742 86.7625 81.736 86.7273 81.7115 86.6569C81.687 86.5834 81.6748 86.4641 81.6748 86.2989C81.6748 86.1306 81.687 86.0112 81.7115 85.9409C81.736 85.8674 81.7742 85.8307 81.8263 85.8307H82.3954C83.0166 85.8307 83.474 85.7542 83.7678 85.6012C84.0615 85.4482 84.2084 85.2325 84.2084 84.9541C84.2084 84.7949 84.135 84.6113 83.9881 84.4033C83.8412 84.1921 83.601 83.9412 83.2675 83.6505C82.937 83.3598 82.4918 83.0171 81.9318 82.6224L82.0053 81.7733C82.5683 81.5163 83.1711 81.2806 83.8137 81.0665C84.4562 80.8523 85.1264 80.6671 85.824 80.5111L85.9617 81.4336C85.3069 81.5897 84.7378 81.7396 84.2543 81.8834C83.7708 82.0273 83.3424 82.1726 82.9691 82.3195L82.9645 82.3562C83.3654 82.6561 83.6943 82.9192 83.9514 83.1457C84.2115 83.369 84.4302 83.5863 84.6077 83.7974C84.7882 84.0085 84.9581 84.2442 85.1172 84.5042C85.3191 84.8408 85.5043 85.107 85.6726 85.3029C85.8439 85.4957 86.0336 85.6318 86.2417 85.7114C86.4498 85.7909 86.7083 85.8307 87.0174 85.8307H87.022V86.7625H87.0174C86.4697 86.7625 86.029 86.6492 85.6955 86.4228C85.365 86.1964 85.0835 85.8169 84.851 85.2845H84.8051ZM89.3995 84.4951C89.3995 84.798 89.4286 85.0489 89.4867 85.2478C89.5448 85.4436 89.6565 85.5905 89.8218 85.6884C89.9901 85.7833 90.2394 85.8307 90.5699 85.8307H90.8637V86.7625H90.5561C90.1675 86.7625 89.8294 86.6691 89.5418 86.4825C89.2572 86.2958 89.066 86.0311 88.9681 85.6884H88.9222C88.8242 86.0311 88.6162 86.2958 88.2979 86.4825C87.9828 86.6691 87.6294 86.7625 87.2377 86.7625H87.022C86.921 86.7625 86.8705 86.6064 86.8705 86.2943C86.8705 85.9852 86.921 85.8307 87.022 85.8307H87.2377C87.5926 85.8307 87.8604 85.7818 88.0409 85.6838C88.2245 85.5859 88.3469 85.439 88.4081 85.2432C88.4724 85.0443 88.5045 84.7949 88.5045 84.4951V83.8341H89.3995V84.4951ZM87.0128 88.3873L87.6737 87.7263L88.3347 88.3873L87.6737 89.0528L87.0128 88.3873ZM94.5768 80.7865L95.2332 80.1255L95.8987 80.7865L95.2332 81.4474L94.5768 80.7865ZM95.3755 82.2277L96.0364 81.5667L96.7019 82.2277L96.0364 82.8932L95.3755 82.2277ZM93.7736 82.2277L94.4346 81.5667L95.1001 82.2277L94.4346 82.8932L93.7736 82.2277ZM94.0674 85.8307C94.3305 85.8307 94.5233 85.7542 94.6457 85.6012C94.7681 85.4452 94.8446 85.205 94.8752 84.8806L94.9532 84.0269L95.7473 84.0866L95.683 84.9082C95.6524 85.2141 95.7075 85.4452 95.8482 85.6012C95.989 85.7542 96.1955 85.8307 96.4679 85.8307C96.9727 85.8307 97.2252 85.5416 97.2252 84.9632C97.2252 84.8714 97.2175 84.7506 97.2022 84.6006C97.19 84.4476 97.1732 84.2901 97.1518 84.1279C97.1303 83.9626 97.1074 83.8173 97.0829 83.6918L97.9458 83.4853C97.9886 83.6995 98.0269 83.9428 98.0605 84.2151C98.0942 84.4874 98.111 84.7322 98.111 84.9495C98.111 85.5614 97.9825 86.0174 97.7255 86.3172C97.4685 86.614 97.0951 86.7625 96.6056 86.7625C96.2323 86.7625 95.94 86.6752 95.7289 86.5008C95.5208 86.3234 95.3831 86.0877 95.3158 85.794H95.2699C95.1169 86.4396 94.6992 86.7625 94.0169 86.7625C93.6466 86.7625 93.3575 86.6707 93.1494 86.4871C92.9444 86.3035 92.8098 86.0449 92.7455 85.7114H92.6996C92.5894 86.0265 92.3936 86.2805 92.1121 86.4733C91.8306 86.6661 91.4879 86.7625 91.084 86.7625H90.8683C90.7673 86.7625 90.7168 86.6049 90.7168 86.2897C90.7168 85.9837 90.7673 85.8307 90.8683 85.8307H91.084C91.5062 85.8307 91.8168 85.7313 92.0157 85.5324C92.2146 85.3304 92.3385 85.0061 92.3875 84.5593L92.4609 83.802L93.3514 83.8663L93.2642 84.8393C93.2305 85.1514 93.2825 85.3947 93.4202 85.5691C93.561 85.7435 93.7767 85.8307 94.0674 85.8307ZM104.205 86.7854L104.177 86.7349C104.006 86.7472 103.835 86.7548 103.663 86.7579C103.492 86.7609 103.325 86.7625 103.163 86.7625C102.679 86.7625 102.298 86.6446 102.02 86.409C101.742 86.1704 101.602 85.8016 101.602 85.3029C101.602 84.9326 101.662 84.5823 101.781 84.2518C101.901 83.9183 102.081 83.6475 102.323 83.4394C102.565 83.2283 102.868 83.1227 103.232 83.1227C103.541 83.1227 103.804 83.2023 104.021 83.3614C104.238 83.5174 104.417 83.727 104.558 83.9902C104.702 84.2503 104.812 84.541 104.889 84.8623C104.965 85.1805 105.016 85.5033 105.04 85.8307H105.38V86.7625H105.013C104.927 87.353 104.607 87.8502 104.053 88.2542C103.503 88.6581 102.761 88.9885 101.827 89.2456L101.451 88.3964C102.207 88.222 102.828 87.9956 103.314 87.7171C103.804 87.4417 104.101 87.1312 104.205 86.7854ZM104.219 85.8491C104.212 85.6594 104.191 85.4605 104.154 85.2524C104.118 85.0443 104.061 84.85 103.984 84.6695C103.908 84.4889 103.805 84.3421 103.677 84.2289C103.552 84.1156 103.395 84.059 103.209 84.059C103.016 84.059 102.855 84.1141 102.727 84.2243C102.598 84.3344 102.502 84.4752 102.438 84.6465C102.377 84.8179 102.346 84.9954 102.346 85.179C102.346 85.436 102.424 85.615 102.58 85.716C102.736 85.8139 102.944 85.8628 103.204 85.8628C103.369 85.8628 103.536 85.8628 103.705 85.8628C103.876 85.8598 104.047 85.8552 104.219 85.8491ZM110.126 81.3327L110.787 80.6717L111.448 81.3327L110.787 81.9982L110.126 81.3327ZM106.624 83.7882H107.514V84.4859C107.526 84.7674 107.566 84.9648 107.633 85.078C107.701 85.1912 107.791 85.283 107.904 85.3534C108.467 84.5333 108.989 83.9535 109.469 83.6138C109.953 83.2742 110.407 83.1043 110.833 83.1043C111.163 83.1043 111.449 83.1824 111.691 83.3384C111.936 83.4914 112.124 83.6995 112.255 83.9626C112.39 84.2258 112.457 84.5241 112.457 84.8577C112.457 85.0107 112.436 85.1514 112.393 85.2799C112.353 85.4054 112.298 85.5201 112.228 85.6242C112.454 85.7619 112.762 85.8307 113.15 85.8307H113.155V86.7625H113.15C112.535 86.7625 112.066 86.5911 111.741 86.2484C111.493 86.4289 111.194 86.5605 110.842 86.6431C110.49 86.7227 110.113 86.7625 109.713 86.7625C109.049 86.7625 108.51 86.6768 108.097 86.5054C107.687 86.331 107.398 86.0495 107.23 85.6609H107.188C107.084 86.025 106.875 86.3004 106.559 86.4871C106.247 86.6707 105.865 86.7625 105.412 86.7625H105.38C105.279 86.7625 105.228 86.6064 105.228 86.2943C105.228 85.9852 105.279 85.8307 105.38 85.8307H105.412C105.752 85.8307 106.007 85.7818 106.178 85.6838C106.353 85.5829 106.471 85.439 106.532 85.2524C106.593 85.0657 106.624 84.8408 106.624 84.5777V83.7882ZM110.732 84.0223C110.435 84.0223 110.101 84.1432 109.731 84.3849C109.364 84.6236 108.975 85.0474 108.565 85.6563C108.727 85.7206 108.909 85.7665 109.111 85.794C109.316 85.8185 109.535 85.8307 109.768 85.8307C110.086 85.8307 110.386 85.8032 110.667 85.7481C110.949 85.693 111.178 85.5951 111.356 85.4543C111.533 85.3105 111.622 85.107 111.622 84.8439C111.622 84.6052 111.541 84.4094 111.379 84.2564C111.22 84.1003 111.004 84.0223 110.732 84.0223ZM114.555 84.596C114.555 85.26 115.017 85.592 115.941 85.592C116.063 85.592 116.206 85.5859 116.368 85.5737C116.53 85.5614 116.717 85.54 116.928 85.5094L117.525 85.4268L117.626 86.3356L116.556 86.4641C115.91 86.5559 115.298 86.6293 114.72 86.6844C114.142 86.7364 113.681 86.7625 113.339 86.7625H113.155C113.054 86.7625 113.004 86.6064 113.004 86.2943C113.004 85.9852 113.054 85.8307 113.155 85.8307H113.306C113.493 85.8307 113.68 85.8277 113.866 85.8215C114.056 85.8124 114.237 85.8001 114.408 85.7848V85.7206C114.185 85.6196 114.009 85.4635 113.88 85.2524C113.755 85.0413 113.692 84.7919 113.692 84.5042C113.692 84.1309 113.781 83.7974 113.958 83.5037C114.139 83.2069 114.385 82.9728 114.697 82.8014C115.009 82.6301 115.363 82.5444 115.757 82.5444C116.342 82.5444 116.856 82.728 117.3 83.0952L116.882 83.7882C116.509 83.5649 116.135 83.4532 115.762 83.4532C115.41 83.4532 115.121 83.5603 114.895 83.7745C114.668 83.9887 114.555 84.2625 114.555 84.596ZM127.116 83.0447L126.817 83.8433C126.493 83.6964 126.176 83.623 125.867 83.623C125.607 83.623 125.372 83.6796 125.161 83.7928C124.949 83.903 124.781 84.0575 124.656 84.2564C124.533 84.4522 124.472 84.6771 124.472 84.9311C124.472 85.2126 124.591 85.3916 124.83 85.4681C125.072 85.5446 125.419 85.5997 125.872 85.6333C126.147 85.6548 126.392 85.7007 126.606 85.771C126.82 85.8414 126.989 85.9531 127.111 86.1061C127.234 86.2591 127.295 86.4764 127.295 86.7579C127.295 87.1709 127.156 87.532 126.877 87.8411C126.599 88.1532 126.215 88.3949 125.725 88.5663C125.235 88.7407 124.671 88.8279 124.031 88.8279C123.123 88.8279 122.42 88.6259 121.925 88.222C121.429 87.8212 121.181 87.2429 121.181 86.4871C121.181 85.973 121.25 85.3059 121.388 84.4859L122.246 84.6419C122.173 85.0611 122.119 85.4054 122.085 85.6747C122.055 85.9439 122.039 86.1933 122.039 86.4228C122.039 86.9277 122.205 87.2995 122.535 87.5381C122.869 87.7799 123.372 87.9007 124.045 87.9007C124.495 87.9007 124.903 87.8579 125.271 87.7722C125.638 87.6865 125.929 87.5687 126.143 87.4188C126.36 87.2719 126.469 87.1052 126.469 86.9185C126.469 86.7839 126.423 86.686 126.331 86.6248C126.239 86.5605 126.117 86.5177 125.964 86.4962C125.814 86.4718 125.649 86.4534 125.468 86.4412C125.116 86.4167 124.804 86.3631 124.532 86.2805C124.259 86.1948 124.045 86.0556 123.889 85.8628C123.736 85.667 123.66 85.3916 123.66 85.0367C123.66 84.6022 123.761 84.2136 123.963 83.8708C124.165 83.5251 124.435 83.2512 124.775 83.0493C125.115 82.8473 125.493 82.7463 125.909 82.7463C126.297 82.7463 126.7 82.8458 127.116 83.0447ZM128.442 80.5799H129.337V84.697C129.337 85.104 129.428 85.3947 129.608 85.5691C129.792 85.7435 130.114 85.8307 130.577 85.8307H130.581V86.7625H130.577C129.885 86.7625 129.356 86.5926 128.988 86.253C128.624 85.9103 128.442 85.3977 128.442 84.7154V80.5799ZM130.586 85.8307H130.857C131.08 85.8307 131.274 85.82 131.439 85.7986C131.605 85.7741 131.774 85.7343 131.949 85.6792C131.429 85.2692 131.169 84.8317 131.169 84.3666C131.169 84.0667 131.254 83.7913 131.426 83.5404C131.597 83.2895 131.831 83.1181 132.128 83.0263L132.137 82.9804L131.357 82.6454L131.724 81.833L134.189 82.8886C134.749 83.1242 135.195 83.3553 135.529 83.5817C135.862 83.8081 136.103 84.0514 136.25 84.3115C136.4 84.5716 136.474 84.8684 136.474 85.2019C136.474 85.7007 136.317 86.0939 136.002 86.3815C135.69 86.6691 135.263 86.8129 134.721 86.8129C134.085 86.8129 133.447 86.6324 132.807 86.2713C132.52 86.4396 132.226 86.5636 131.926 86.6431C131.626 86.7227 131.294 86.7625 130.93 86.7625H130.586C130.485 86.7625 130.434 86.6064 130.434 86.2943C130.434 85.9852 130.485 85.8307 130.586 85.8307ZM132.844 85.4819C133.116 85.3472 133.327 85.182 133.477 84.9862C133.627 84.7873 133.702 84.5762 133.702 84.3528C133.702 84.0529 133.627 83.8173 133.477 83.6459C133.33 83.4746 133.13 83.3889 132.876 83.3889C132.622 83.3889 132.402 83.4868 132.215 83.6827C132.028 83.8754 131.935 84.108 131.935 84.3803C131.935 84.5762 132.015 84.7705 132.174 84.9632C132.333 85.156 132.556 85.3289 132.844 85.4819ZM133.661 85.6517C133.851 85.7221 134.042 85.7787 134.235 85.8215C134.43 85.8613 134.613 85.8812 134.781 85.8812C135.411 85.8812 135.726 85.641 135.726 85.1606C135.726 84.9005 135.615 84.6725 135.391 84.4767C135.171 84.2778 134.792 84.0682 134.253 83.8479C134.378 84.2181 134.389 84.5578 134.285 84.8668C134.184 85.1728 133.976 85.4345 133.661 85.6517ZM146.979 83.0998C147.049 83.3537 147.105 83.6077 147.144 83.8617C147.187 84.1156 147.209 84.3528 147.209 84.5731C147.209 85.1239 147.085 85.5584 146.837 85.8766C146.592 86.1948 146.2 86.4228 145.662 86.5605C145.126 86.6951 144.421 86.7625 143.546 86.7625C142.677 86.7625 141.973 86.6951 141.435 86.5605C140.896 86.4259 140.503 86.2025 140.255 85.8904C140.01 85.5752 139.888 85.1499 139.888 84.6144C139.888 84.4033 139.908 84.1677 139.947 83.9076C139.99 83.6444 140.045 83.3751 140.113 83.0998L140.92 83.2879C140.868 83.5113 140.824 83.7316 140.787 83.9489C140.754 84.1661 140.737 84.3543 140.737 84.5134C140.737 84.8623 140.826 85.1315 141.003 85.3212C141.181 85.511 141.474 85.6441 141.884 85.7206C142.294 85.794 142.848 85.8307 143.546 85.8307C144.253 85.8307 144.811 85.7925 145.221 85.716C145.631 85.6364 145.922 85.5002 146.093 85.3075C146.268 85.1116 146.355 84.8378 146.355 84.4859C146.355 84.3207 146.338 84.1325 146.304 83.9213C146.274 83.7102 146.232 83.4991 146.18 83.2879L146.979 83.0998ZM142.077 82.7968L142.738 82.1359L143.404 82.7968L142.738 83.4624L142.077 82.7968ZM143.679 82.7968L144.34 82.1359L145.005 82.7968L144.34 83.4624L143.679 82.7968ZM148.517 83.9718L149.352 83.6781C149.523 84.186 149.658 84.6588 149.756 85.0963C149.857 85.5308 149.907 85.924 149.907 86.2759C149.907 86.9613 149.683 87.5412 149.233 88.0155C148.786 88.4928 148.078 88.9074 147.108 89.2593L146.713 88.4194C147.518 88.1379 148.105 87.8349 148.475 87.5106C148.846 87.1862 149.031 86.7823 149.031 86.2989C149.031 86.0174 148.983 85.6701 148.888 85.257C148.797 84.8439 148.673 84.4155 148.517 83.9718ZM151.096 80.5799H151.991V84.697C151.991 85.104 152.081 85.3947 152.262 85.5691C152.446 85.7435 152.768 85.8307 153.23 85.8307H153.235V86.7625H153.23C152.539 86.7625 152.01 86.5926 151.642 86.253C151.278 85.9103 151.096 85.3977 151.096 84.7154V80.5799ZM157.237 80.5111L157.375 81.4336C156.702 81.5958 156.125 81.7488 155.645 81.8926C155.167 82.0334 154.747 82.1757 154.383 82.3195L154.378 82.3562C154.895 82.7509 155.311 83.0982 155.626 83.3981C155.942 83.698 156.171 83.9749 156.315 84.2289C156.462 84.4798 156.535 84.7353 156.535 84.9954C156.535 85.5614 156.301 85.9975 155.833 86.3035C155.365 86.6095 154.696 86.7625 153.827 86.7625H153.24C153.188 86.7625 153.149 86.7273 153.125 86.6569C153.1 86.5834 153.088 86.4626 153.088 86.2943C153.088 86.1291 153.1 86.0112 153.125 85.9409C153.149 85.8674 153.188 85.8307 153.24 85.8307H153.809C155.033 85.8307 155.645 85.5354 155.645 84.9449C155.645 84.7705 155.567 84.5792 155.411 84.3711C155.258 84.1631 155.013 83.9183 154.676 83.6368C154.34 83.3553 153.896 83.0171 153.345 82.6224L153.419 81.7733C153.972 81.5193 154.569 81.2852 155.209 81.071C155.851 80.8569 156.527 80.6702 157.237 80.5111ZM100.245 103.239C100.245 103.08 100.3 102.947 100.411 102.84C100.524 102.73 100.661 102.675 100.824 102.675C100.986 102.675 101.123 102.73 101.237 102.84C101.35 102.947 101.407 103.08 101.407 103.239C101.407 103.398 101.35 103.534 101.237 103.648C101.123 103.758 100.986 103.813 100.824 103.813C100.661 103.813 100.524 103.758 100.411 103.648C100.3 103.534 100.245 103.398 100.245 103.239ZM105.579 99.0487L106.804 101.917C106.911 102.165 107.02 102.355 107.13 102.486C107.243 102.618 107.373 102.708 107.52 102.757C107.67 102.806 107.851 102.831 108.062 102.831H108.121V103.762H108.062C107.646 103.762 107.297 103.683 107.015 103.524C106.734 103.362 106.518 103.094 106.368 102.721H106.322C106.175 103.066 105.926 103.334 105.574 103.524C105.222 103.713 104.831 103.808 104.399 103.808C104.093 103.808 103.786 103.755 103.477 103.648C103.168 103.538 102.877 103.372 102.604 103.152L103.031 102.372C103.478 102.708 103.943 102.877 104.427 102.877C104.717 102.877 104.996 102.814 105.262 102.688C105.531 102.56 105.75 102.375 105.918 102.133L104.734 99.4526L105.579 99.0487ZM110.499 101.495C110.499 101.798 110.528 102.049 110.586 102.248C110.644 102.444 110.756 102.591 110.921 102.688C111.09 102.783 111.339 102.831 111.669 102.831H111.963V103.762H111.656C111.267 103.762 110.929 103.669 110.641 103.482C110.357 103.296 110.165 103.031 110.068 102.688H110.022C109.924 103.031 109.716 103.296 109.397 103.482C109.082 103.669 108.729 103.762 108.337 103.762H108.121C108.021 103.762 107.97 103.606 107.97 103.294C107.97 102.985 108.021 102.831 108.121 102.831H108.337C108.692 102.831 108.96 102.782 109.14 102.684C109.324 102.586 109.446 102.439 109.508 102.243C109.572 102.044 109.604 101.795 109.604 101.495V100.834H110.499V101.495ZM107.107 105.387L107.768 104.726L108.434 105.387L107.768 106.053L107.107 105.387ZM108.709 105.387L109.37 104.726L110.035 105.387L109.37 106.053L108.709 105.387ZM114.345 101.495C114.345 101.798 114.374 102.049 114.433 102.248C114.491 102.444 114.602 102.591 114.768 102.688C114.936 102.783 115.185 102.831 115.516 102.831H115.809V103.762H115.502C115.113 103.762 114.775 103.669 114.488 103.482C114.203 103.296 114.012 103.031 113.914 102.688H113.868C113.77 103.031 113.562 103.296 113.244 103.482C112.929 103.669 112.575 103.762 112.183 103.762H111.968C111.867 103.762 111.816 103.606 111.816 103.294C111.816 102.985 111.867 102.831 111.968 102.831H112.183C112.538 102.831 112.806 102.782 112.987 102.684C113.17 102.586 113.293 102.439 113.354 102.243C113.418 102.044 113.45 101.795 113.45 101.495V100.834H114.345V101.495ZM112.753 99.1129L113.414 98.452L114.075 99.1129L113.414 99.7785L112.753 99.1129ZM119.812 97.5111L119.95 98.4336C119.276 98.5958 118.7 98.7488 118.219 98.8926C117.742 99.0334 117.321 99.1757 116.957 99.3195L116.952 99.3562C117.469 99.7509 117.886 100.098 118.201 100.398C118.516 100.698 118.745 100.975 118.889 101.229C119.036 101.48 119.11 101.735 119.11 101.995C119.11 102.561 118.875 102.997 118.407 103.303C117.939 103.609 117.271 103.762 116.402 103.762H115.814C115.762 103.762 115.724 103.727 115.699 103.657C115.675 103.583 115.663 103.463 115.663 103.294C115.663 103.129 115.675 103.011 115.699 102.941C115.724 102.867 115.762 102.831 115.814 102.831H116.383C117.607 102.831 118.219 102.535 118.219 101.945C118.219 101.77 118.141 101.579 117.985 101.371C117.832 101.163 117.587 100.918 117.251 100.637C116.914 100.355 116.47 100.017 115.92 99.6224L115.993 98.7733C116.547 98.5193 117.144 98.2852 117.783 98.071C118.426 97.8569 119.102 97.6702 119.812 97.5111ZM129.478 100.706C129.438 100.938 129.405 101.146 129.377 101.33C129.353 101.513 129.34 101.685 129.34 101.844C129.34 102.135 129.421 102.372 129.584 102.555C129.746 102.739 130.059 102.831 130.525 102.831H130.529V103.762H130.525C130.026 103.762 129.617 103.661 129.299 103.46C128.984 103.255 128.774 102.932 128.67 102.491H128.624C128.324 102.975 127.879 103.308 127.289 103.492C126.701 103.672 125.996 103.762 125.173 103.762C124.068 103.762 123.26 103.568 122.749 103.18C122.241 102.788 121.987 102.22 121.987 101.477C121.987 101.021 122.076 100.51 122.254 99.9437L123.043 100.173C122.893 100.647 122.818 101.051 122.818 101.385C122.818 101.881 123.012 102.246 123.401 102.482C123.79 102.714 124.428 102.831 125.315 102.831C126.08 102.831 126.689 102.754 127.142 102.601C127.598 102.448 127.94 102.206 128.17 101.876C128.402 101.542 128.566 101.108 128.661 100.573L129.478 100.706ZM124.273 100.013L124.934 99.3516L125.6 100.013L124.934 100.678L124.273 100.013ZM125.875 100.013L126.536 99.3516L127.201 100.013L126.536 100.678L125.875 100.013ZM132.507 99.7004C132.666 99.7004 132.858 99.7372 133.081 99.8106C133.307 99.881 133.638 100.011 134.072 100.201C134.492 100.381 134.848 100.524 135.142 100.628C135.439 100.732 135.731 100.819 136.019 100.889V101.66L133.742 102.964C133.252 103.248 132.798 103.453 132.379 103.579C131.96 103.701 131.516 103.762 131.048 103.762H130.529C130.477 103.762 130.439 103.727 130.414 103.657C130.39 103.583 130.378 103.463 130.378 103.294C130.378 103.129 130.39 103.011 130.414 102.941C130.439 102.867 130.477 102.831 130.529 102.831H131.213C131.458 102.831 131.687 102.812 131.901 102.776C132.119 102.736 132.344 102.673 132.576 102.587C132.812 102.499 133.078 102.379 133.375 102.229L134.885 101.44V101.394C134.707 101.348 134.516 101.289 134.311 101.215C134.109 101.142 133.875 101.048 133.609 100.935C133.309 100.816 133.075 100.732 132.907 100.683C132.741 100.631 132.607 100.605 132.503 100.605C132.301 100.605 132.134 100.669 132.002 100.797C131.871 100.926 131.747 101.142 131.631 101.445L131.594 101.532L130.933 101.321L130.965 101.233C131.14 100.692 131.349 100.302 131.594 100.063C131.839 99.8213 132.143 99.7004 132.507 99.7004ZM132.673 97.9196L133.333 97.2586L133.994 97.9196L133.333 98.5851L132.673 97.9196ZM138.102 103.762H137.212V97.5799H138.102V103.762ZM143.11 101.968C143.11 102.393 142.998 102.74 142.775 103.01C142.551 103.279 142.255 103.478 141.884 103.606C141.514 103.732 141.109 103.795 140.668 103.795C140.451 103.795 140.224 103.779 139.989 103.749C139.756 103.718 139.516 103.671 139.268 103.606L139.475 102.73C139.692 102.779 139.897 102.815 140.09 102.84C140.286 102.861 140.472 102.872 140.65 102.872C141.142 102.872 141.528 102.796 141.806 102.643C142.088 102.486 142.229 102.257 142.229 101.954C142.229 101.669 142.091 101.33 141.816 100.935C141.543 100.54 141.162 100.126 140.673 99.6913L141.269 98.9844C141.881 99.5291 142.34 100.048 142.646 100.54C142.955 101.03 143.11 101.506 143.11 101.968ZM144.423 100.972L145.258 100.678L145.561 101.61C145.659 101.913 145.767 102.154 145.887 102.335C146.009 102.512 146.164 102.639 146.35 102.716C146.537 102.792 146.78 102.831 147.08 102.831H147.085V103.762H147.08C146.486 103.762 146.05 103.565 145.772 103.17L145.726 103.184C145.778 103.937 145.576 104.55 145.12 105.025C144.667 105.502 143.965 105.914 143.013 106.259L142.619 105.419C143.451 105.129 144.045 104.82 144.4 104.492C144.758 104.168 144.937 103.77 144.937 103.299C144.937 103.03 144.891 102.693 144.799 102.289C144.71 101.885 144.585 101.446 144.423 100.972ZM148.191 105.383L148.852 104.722L149.517 105.383L148.852 106.048L148.191 105.383ZM146.589 105.383L147.25 104.722L147.915 105.383L147.25 106.048L146.589 105.383ZM147.397 106.824L148.053 106.163L148.719 106.824L148.053 107.489L147.397 106.824ZM149.421 100.127C149.507 100.464 149.574 100.781 149.623 101.077C149.675 101.374 149.701 101.64 149.701 101.876C149.701 102.488 149.528 102.956 149.182 103.281C148.836 103.602 148.267 103.762 147.475 103.762H147.089C146.988 103.762 146.938 103.606 146.938 103.294C146.938 102.985 146.988 102.831 147.089 102.831H147.475C147.986 102.831 148.339 102.745 148.535 102.574C148.734 102.402 148.833 102.145 148.833 101.803C148.833 101.631 148.81 101.423 148.765 101.178C148.719 100.931 148.659 100.657 148.586 100.357L149.421 100.127ZM153.616 103.762H152.726V97.5799H153.616V103.762ZM155.264 100.972L156.099 100.678C156.27 101.186 156.405 101.659 156.503 102.096C156.604 102.531 156.654 102.924 156.654 103.276C156.654 103.961 156.43 104.541 155.98 105.015C155.533 105.493 154.825 105.907 153.855 106.259L153.46 105.419C154.265 105.138 154.852 104.835 155.222 104.511C155.593 104.186 155.778 103.782 155.778 103.299C155.778 103.017 155.73 102.67 155.636 102.257C155.544 101.844 155.42 101.416 155.264 100.972Z" fill="#5E5E5E"/>
<rect x="166.844" y="45.2249" width="46.4125" height="46.4125" rx="9.10625" fill="white"/>
<rect x="166.844" y="45.2249" width="46.4125" height="46.4125" rx="9.10625" stroke="#D7D7D7" stroke-width="0.5875"/>
<path d="M198.275 69.7356H178.3C177.981 69.7356 177.713 69.4676 177.713 69.1481C177.713 68.8286 177.981 68.5606 178.3 68.5606H198.275C198.595 68.5606 198.863 68.8286 198.863 69.1481C198.863 69.4676 198.595 69.7356 198.275 69.7356Z" fill="#494949" stroke="#494949" stroke-width="0.5875"/>
<path d="M181.848 62.6388L181.848 62.6387L181.842 62.639C180.8 62.7031 180.003 62.8448 179.506 63.4438C179.26 63.7405 179.108 64.1251 179.016 64.6052C178.924 65.0843 178.888 65.678 178.888 66.4102V74.6235C178.888 75.379 178.918 75.9981 179.018 76.4974C179.119 77.0001 179.296 77.4062 179.605 77.7115C179.915 78.0163 180.326 78.1897 180.835 78.2892C181.342 78.3882 181.972 78.4187 182.742 78.4187H193.834C194.595 78.4187 195.217 78.3896 195.718 78.2957C196.221 78.2013 196.629 78.0371 196.938 77.7475C197.249 77.4564 197.43 77.0681 197.536 76.5873C197.641 76.1108 197.679 75.5209 197.688 74.8034H197.688V74.7997V66.4102C197.688 65.6547 197.657 65.0356 197.557 64.5363C197.456 64.0336 197.28 63.6275 196.97 63.3223C196.661 63.0175 196.25 62.8441 195.74 62.7445C195.233 62.6456 194.604 62.615 193.834 62.615H182.742C182.418 62.615 182.118 62.627 181.848 62.6388ZM193.834 79.5937H182.742C180.74 79.5937 179.514 79.2714 178.776 78.5404C178.038 77.8103 177.713 76.6008 177.713 74.6235V66.4102C177.713 64.8363 177.895 63.6623 178.472 62.8547C179.034 62.0679 180.019 61.5666 181.792 61.4632C182.097 61.4514 182.408 61.44 182.742 61.44H193.834C195.836 61.44 197.061 61.7623 197.8 62.4933C198.538 63.2234 198.863 64.4329 198.863 66.4102V74.8098C198.839 76.7136 198.504 77.8757 197.768 78.5778C197.029 79.283 195.813 79.5937 193.834 79.5937Z" fill="#494949" stroke="#494949" stroke-width="0.5875"/>
<path d="M197.884 75.2501L197.884 75.25L197.876 75.2431C197.758 75.1328 197.688 74.975 197.688 74.8116V66.4103C197.688 65.6549 197.657 65.0357 197.557 64.5364C197.456 64.0338 197.28 63.6276 196.97 63.3224C196.661 63.0176 196.25 62.8442 195.74 62.7447C195.233 62.6457 194.604 62.6151 193.834 62.6151H182.742C182.418 62.6151 182.118 62.6271 181.848 62.6389L181.848 62.6389L181.846 62.639C181.698 62.6464 181.539 62.5866 181.415 62.4709C181.304 62.3674 181.238 62.2135 181.238 62.041C181.261 60.1433 181.596 58.9841 182.332 58.2835C183.071 57.5796 184.288 57.2688 186.267 57.2688H197.359C199.361 57.2688 200.586 57.5912 201.325 58.3222C202.063 59.0523 202.388 60.2618 202.388 62.2391V70.4523C202.388 72.0263 202.205 73.2002 201.629 74.0079C201.067 74.7939 200.084 75.2949 198.314 75.3991H198.275C198.119 75.3991 197.974 75.3406 197.884 75.2501ZM182.449 61.1245L182.425 61.4401H182.742H193.834C195.836 61.4401 197.061 61.7625 197.8 62.4935C198.538 63.2235 198.863 64.433 198.863 66.4103V73.8363V74.1881L199.209 74.1254C199.938 73.9933 200.48 73.7226 200.809 73.1012C201.116 72.519 201.213 71.6671 201.213 70.4523V62.2391C201.213 61.4836 201.182 60.8645 201.082 60.3652C200.981 59.8625 200.805 59.4564 200.495 59.1511C200.186 58.8463 199.775 58.6729 199.265 58.5734C198.758 58.4744 198.129 58.4438 197.359 58.4438H186.267C185.593 58.4438 185.03 58.4665 184.564 58.5359C184.098 58.6052 183.709 58.7239 183.396 58.9298C182.745 59.3573 182.526 60.0876 182.449 61.1245Z" fill="#494949" stroke="#494949" stroke-width="0.5875"/>
<path d="M184.128 75.8455H182.107C181.788 75.8455 181.52 75.5775 181.52 75.258C181.52 74.9384 181.788 74.6705 182.107 74.6705H184.128C184.448 74.6705 184.716 74.9384 184.716 75.258C184.716 75.58 184.457 75.8455 184.128 75.8455Z" fill="#494949" stroke="#494949" stroke-width="0.5875"/>
<path d="M190.696 75.8455H186.654C186.335 75.8455 186.067 75.5775 186.067 75.258C186.067 74.9384 186.335 74.6705 186.654 74.6705H190.696C191.016 74.6705 191.284 74.9384 191.284 75.258C191.284 75.58 191.025 75.8455 190.696 75.8455Z" fill="#494949" stroke="#494949" stroke-width="0.5875"/>
</svg>
