<svg width="216" height="94" viewBox="0 0 216 94" fill="none" xmlns="http://www.w3.org/2000/svg">
<mask id="path-1-outside-1_7546_1662" maskUnits="userSpaceOnUse" x="155.213" y="-0.112549" width="28" height="64" fill="black">
<rect fill="white" x="155.213" y="-0.112549" width="28" height="64"/>
<path d="M172.236 16.0137C171.131 17.5543 169.271 18.7026 166.655 19.4584C164.038 20.2141 160.623 20.592 156.408 20.592V12.8306C160.274 12.8306 163.37 12.5399 165.695 11.9585C168.021 11.3481 169.692 10.1999 170.71 8.51387C171.727 6.82787 172.236 4.34247 172.236 1.05767H181.959V62.8875H172.236V16.0137Z"/>
</mask>
<path d="M172.236 16.0137H172.823V14.186L171.758 15.6713L172.236 16.0137ZM156.408 20.592H155.82V21.1795H156.408V20.592ZM156.408 12.8306V12.2431H155.82V12.8306H156.408ZM165.695 11.9585L165.838 12.5285L165.844 12.5268L165.695 11.9585ZM172.236 1.05767V0.470169H171.648V1.05767H172.236ZM181.959 1.05767H182.547V0.470169H181.959V1.05767ZM181.959 62.8875V63.475H182.547V62.8875H181.959ZM172.236 62.8875H171.648V63.475H172.236V62.8875ZM171.758 15.6713C170.758 17.0667 169.035 18.1592 166.491 18.8939L166.818 20.0228C169.507 19.2459 171.504 18.0419 172.713 16.356L171.758 15.6713ZM166.491 18.8939C163.949 19.6285 160.594 20.0045 156.408 20.0045V21.1795C160.651 21.1795 164.128 20.7998 166.818 20.0228L166.491 18.8939ZM156.995 20.592V12.8306H155.82V20.592H156.995ZM156.408 13.4181C160.296 13.4181 163.446 13.1264 165.838 12.5285L165.553 11.3886C163.293 11.9534 160.251 12.2431 156.408 12.2431V13.4181ZM165.844 12.5268C168.283 11.8866 170.099 10.6621 171.213 8.81741L170.207 8.21033C169.285 9.73766 167.758 10.8096 165.546 11.3903L165.844 12.5268ZM171.213 8.81741C172.311 6.99746 172.823 4.38585 172.823 1.05767H171.648C171.648 4.29909 171.143 6.65828 170.207 8.21033L171.213 8.81741ZM172.236 1.64517H181.959V0.470169H172.236V1.64517ZM181.372 1.05767V62.8875H182.547V1.05767H181.372ZM181.959 62.3H172.236V63.475H181.959V62.3ZM172.823 62.8875V16.0137H171.648V62.8875H172.823Z" fill="#0B2FA6" mask="url(#path-1-outside-1_7546_1662)"/>
<path d="M1.62646 51.2687C1.62646 51.007 1.71826 50.789 1.90186 50.6146C2.09004 50.4356 2.31953 50.3461 2.59033 50.3461C2.85654 50.3461 3.08145 50.4356 3.26504 50.6146C3.45322 50.789 3.54731 51.007 3.54731 51.2687C3.54731 51.5349 3.45322 51.7621 3.26504 51.9502C3.08145 52.1338 2.85654 52.2256 2.59033 52.2256C2.31953 52.2256 2.09004 52.1338 1.90186 51.9502C1.71826 51.7621 1.62646 51.5349 1.62646 51.2687ZM9.75049 44.9278L11.5956 49.2308C11.8251 49.7632 12.0798 50.1258 12.3598 50.3186C12.6444 50.5067 13.0208 50.6008 13.4889 50.6008H13.5853V52.1499H13.4683C12.8899 52.1499 12.3736 52.0443 11.9192 51.8332C11.4648 51.6221 11.0976 51.2641 10.8176 50.7592C10.5285 51.2503 10.1246 51.6175 9.60591 51.8607C9.08726 52.0994 8.53418 52.2187 7.94668 52.2187C7.46475 52.2187 6.98052 52.1361 6.49399 51.9709C6.01206 51.8057 5.57373 51.5532 5.179 51.2136L5.88125 49.9812C6.19795 50.2153 6.53301 50.3874 6.88643 50.4976C7.23984 50.6077 7.58408 50.6628 7.91914 50.6628C8.35977 50.6628 8.76597 50.5779 9.13774 50.4081C9.50952 50.2382 9.82163 49.9789 10.0741 49.6301L8.31157 45.6163L9.75049 44.9278ZM17.248 48.6731C17.248 49.1229 17.287 49.4901 17.365 49.7747C17.4477 50.0592 17.6083 50.2681 17.847 50.4012C18.0902 50.5343 18.4505 50.6008 18.9279 50.6008H19.341V52.1499H18.9141C18.3358 52.1499 17.8194 52.0283 17.365 51.785C16.9106 51.5372 16.61 51.1883 16.4631 50.7385C16.3667 51.0369 16.19 51.2916 15.933 51.5027C15.676 51.7139 15.3708 51.8745 15.0173 51.9847C14.6639 52.0948 14.2921 52.1499 13.902 52.1499H13.5922C13.5096 52.1499 13.4499 52.0971 13.4132 51.9916C13.3719 51.8814 13.3512 51.6749 13.3512 51.3719C13.3512 51.0736 13.3719 50.8716 13.4132 50.7661C13.4499 50.6559 13.5096 50.6008 13.5922 50.6008H13.902C14.4115 50.6008 14.7947 50.5343 15.0518 50.4012C15.3088 50.2635 15.4809 50.0546 15.5681 49.7747C15.6553 49.4901 15.6989 49.1229 15.6989 48.6731V47.5715H17.248V48.6731ZM14.3289 54.5665L15.4511 53.4442L16.5664 54.5665L15.4511 55.6887L14.3289 54.5665ZM11.9261 54.5665L13.0483 53.4442L14.1636 54.5665L13.0483 55.6887L11.9261 54.5665ZM22.9899 48.6731C22.9899 49.1229 23.0289 49.4901 23.1069 49.7747C23.1896 50.0592 23.3502 50.2681 23.5889 50.4012C23.8321 50.5343 24.1924 50.6008 24.6698 50.6008H25.0829V52.1499H24.656C24.0777 52.1499 23.5613 52.0283 23.1069 51.785C22.6525 51.5372 22.3519 51.1883 22.205 50.7385C22.1086 51.0369 21.9319 51.2916 21.6749 51.5027C21.4179 51.7139 21.1126 51.8745 20.7592 51.9847C20.4058 52.0948 20.034 52.1499 19.6439 52.1499H19.3341C19.2515 52.1499 19.1918 52.0971 19.1551 51.9916C19.1138 51.8814 19.0931 51.6749 19.0931 51.3719C19.0931 51.0736 19.1138 50.8716 19.1551 50.7661C19.1918 50.6559 19.2515 50.6008 19.3341 50.6008H19.6439C20.1534 50.6008 20.5366 50.5343 20.7937 50.4012C21.0507 50.2635 21.2228 50.0546 21.31 49.7747C21.3972 49.4901 21.4408 49.1229 21.4408 48.6731V47.5715H22.9899V48.6731ZM20.3806 45.0861L21.5028 43.9639L22.6181 45.0861L21.5028 46.2083L20.3806 45.0861ZM31.2998 41.6851L31.6303 43.1997C30.7628 43.4476 29.9596 43.7138 29.2206 43.9983C28.4862 44.2829 27.7679 44.6065 27.0657 44.9691V45.0379C28.1305 45.8641 28.9131 46.6283 29.4134 47.3306C29.9183 48.0282 30.1707 48.719 30.1707 49.4029C30.1707 49.9766 30.0055 50.47 29.675 50.8831C29.3445 51.2916 28.8672 51.606 28.243 51.8263C27.6187 52.042 26.8637 52.1499 25.9779 52.1499H25.076C24.9934 52.1499 24.9337 52.0902 24.897 51.9709C24.8557 51.847 24.835 51.6473 24.835 51.3719C24.835 51.0919 24.8557 50.8946 24.897 50.7798C24.9337 50.6605 24.9934 50.6008 25.076 50.6008H25.9503C26.827 50.6008 27.4925 50.4907 27.9469 50.2704C28.4013 50.05 28.6285 49.7265 28.6285 49.2996C28.6285 48.8406 28.3554 48.3105 27.8092 47.7092C27.2676 47.108 26.4323 46.4034 25.3032 45.5956V44.2462C27.2401 43.0804 29.239 42.2267 31.2998 41.6851ZM38.9832 54.5665L40.1054 53.4442L41.2208 54.5665L40.1054 55.6887L38.9832 54.5665ZM45.3241 46.4975C45.4388 46.9152 45.526 47.3122 45.5857 47.6886C45.6454 48.0604 45.6752 48.4161 45.6752 48.7557C45.6752 49.5911 45.4893 50.2566 45.1175 50.7523C44.7503 51.248 44.1583 51.606 43.3413 51.8263C42.5243 52.042 41.4479 52.1499 40.1123 52.1499C38.7812 52.1499 37.7072 52.042 36.8902 51.8263C36.0778 51.606 35.4857 51.248 35.114 50.7523C34.7468 50.2566 34.5632 49.5911 34.5632 48.7557C34.5632 48.4161 34.593 48.0604 34.6527 47.6886C34.7169 47.3122 34.8041 46.9152 34.9143 46.4975L36.3119 46.8211C36.2293 47.1653 36.165 47.4866 36.1191 47.785C36.0732 48.0833 36.0503 48.3587 36.0503 48.6111C36.0503 49.1344 36.1719 49.5406 36.4152 49.8297C36.6584 50.1189 37.0761 50.3208 37.6682 50.4356C38.2603 50.5458 39.075 50.6008 40.1123 50.6008C41.1588 50.6008 41.9781 50.5458 42.5702 50.4356C43.1623 50.3208 43.5799 50.1189 43.8232 49.8297C44.0665 49.5406 44.1881 49.1344 44.1881 48.6111C44.1881 48.3587 44.1651 48.0833 44.1192 47.785C44.0779 47.4866 44.0137 47.1653 43.9265 46.8211L45.3241 46.4975ZM47.2656 42.5043H48.8215V48.976C48.8215 49.5589 48.9409 49.9766 49.1795 50.2291C49.4228 50.4769 49.8795 50.6008 50.5496 50.6008H50.5565V52.1499H50.5496C49.4939 52.1499 48.6815 51.8883 48.1124 51.365C47.5479 50.8372 47.2656 50.05 47.2656 49.0036V42.5043ZM53.8199 45.9398C54.1503 45.9398 54.4969 46.0087 54.8595 46.1464C55.2267 46.2795 55.6237 46.4424 56.0505 46.6352C56.482 46.828 56.9501 47.0253 57.455 47.2273C57.9645 47.4247 58.5268 47.583 59.1418 47.7023V49.0036L57.9576 49.7884C58.1779 50.0959 58.4143 50.3094 58.6667 50.4287C58.9238 50.5435 59.2841 50.6008 59.7477 50.6008H60.0712V52.1499H59.727C59.0798 52.1499 58.5245 52.0237 58.0609 51.7712C57.6019 51.5188 57.2255 51.0851 56.9318 50.47L56.2089 50.9657C55.5801 51.3788 54.9329 51.6794 54.2674 51.8676C53.6019 52.0558 52.8744 52.1499 52.0849 52.1499H50.5634C50.4808 52.1499 50.4211 52.0948 50.3844 51.9847C50.3431 51.8745 50.3224 51.6703 50.3224 51.3719C50.3224 51.0736 50.3431 50.8716 50.3844 50.7661C50.4211 50.6559 50.4808 50.6008 50.5634 50.6008H52.3603C52.7642 50.6008 53.1429 50.5733 53.4963 50.5182C53.8497 50.4631 54.1894 50.3736 54.5152 50.2497C54.8457 50.1212 55.1785 49.9537 55.5135 49.7471L57.3242 48.6042C56.902 48.5216 56.5233 48.4161 56.1882 48.2875C55.8532 48.1544 55.5457 48.0259 55.2657 47.902C55.0041 47.7827 54.7608 47.6817 54.5359 47.5991C54.3156 47.5165 54.0999 47.4751 53.8887 47.4751C53.5491 47.4751 53.2806 47.5922 53.0832 47.8263C52.8904 48.0558 52.7504 48.3771 52.6632 48.7901L52.615 49.0311L51.3758 48.8039L51.424 48.5079C51.5708 47.7276 51.8279 47.1057 52.1951 46.6421C52.5623 46.1739 53.1039 45.9398 53.8199 45.9398ZM53.9438 43.0551L55.066 41.9329L56.1813 43.0551L55.066 44.1773L53.9438 43.0551ZM63.7202 48.6731C63.7202 49.1229 63.7592 49.4901 63.8372 49.7747C63.9198 50.0592 64.0805 50.2681 64.3191 50.4012C64.5624 50.5343 64.9227 50.6008 65.4 50.6008H65.8131V52.1499H65.3863C64.808 52.1499 64.2916 52.0283 63.8372 51.785C63.3828 51.5372 63.0822 51.1883 62.9353 50.7385C62.8389 51.0369 62.6622 51.2916 62.4052 51.5027C62.1481 51.7139 61.8429 51.8745 61.4895 51.9847C61.1361 52.0948 60.7643 52.1499 60.3742 52.1499H60.0644C59.9817 52.1499 59.9221 52.0971 59.8854 51.9916C59.844 51.8814 59.8234 51.6749 59.8234 51.3719C59.8234 51.0736 59.844 50.8716 59.8854 50.7661C59.9221 50.6559 59.9817 50.6008 60.0644 50.6008H60.3742C60.8836 50.6008 61.2669 50.5343 61.5239 50.4012C61.781 50.2635 61.9531 50.0546 62.0403 49.7747C62.1275 49.4901 62.1711 49.1229 62.1711 48.6731V47.5715H63.7202V48.6731ZM62.3501 45.0861L63.4723 43.9639L64.5876 45.0861L63.4723 46.2083L62.3501 45.0861ZM59.9473 45.0861L61.0695 43.9639L62.1849 45.0861L61.0695 46.2083L59.9473 45.0861ZM68.8837 46.3805C69.0077 46.9037 69.1086 47.4017 69.1867 47.8745C69.2647 48.3472 69.3037 48.7855 69.3037 49.1895C69.3037 49.7861 69.1958 50.3071 68.9801 50.7523C68.769 51.1975 68.4293 51.5417 67.9612 51.785C67.493 52.0283 66.8803 52.1499 66.1229 52.1499H65.8062C65.7236 52.1499 65.664 52.0971 65.6272 51.9916C65.5859 51.8814 65.5653 51.6749 65.5653 51.3719C65.5653 51.0736 65.5859 50.8716 65.6272 50.7661C65.664 50.6559 65.7236 50.6008 65.8062 50.6008H66.1229C66.7196 50.6008 67.1465 50.47 67.4035 50.2084C67.6651 49.9468 67.7959 49.5589 67.7959 49.0449C67.7959 48.7557 67.7592 48.4207 67.6858 48.0397C67.6169 47.6587 67.5297 47.2388 67.4242 46.7798L68.8837 46.3805ZM66.3226 44.1154L67.4448 42.9932L68.5602 44.1154L67.4448 45.2376L66.3226 44.1154ZM72.5189 52.1499H70.9698V42.5043H72.5189V52.1499ZM78.9768 52.1499H77.4277V42.5043H78.9768V52.1499ZM81.8822 47.84L83.3555 47.3443C83.6034 48.1567 83.7915 48.8773 83.9201 49.5062C84.0486 50.1304 84.1128 50.7087 84.1128 51.2411C84.1128 52.0076 83.9637 52.6915 83.6653 53.2928C83.3716 53.894 82.9057 54.4311 82.2677 54.9038C81.6297 55.3812 80.799 55.8103 79.7754 56.1913L79.1076 54.7868C79.943 54.4838 80.6131 54.1671 81.118 53.8367C81.6228 53.5062 81.9877 53.1321 82.2126 52.7145C82.4421 52.2968 82.5569 51.8103 82.5569 51.2549C82.5569 50.8234 82.4995 50.3277 82.3848 49.7678C82.2746 49.2032 82.1071 48.5606 81.8822 47.84ZM93.9925 49.4511C93.9925 49.956 93.8846 50.3851 93.6689 50.7385C93.4578 51.0874 93.1732 51.3696 92.8152 51.5854C92.4572 51.8011 92.0579 51.9571 91.6172 52.0535C91.1766 52.1499 90.7291 52.1981 90.2747 52.1981C89.8892 52.1981 89.5059 52.1729 89.1249 52.1224C88.7486 52.0719 88.3929 51.9984 88.0578 51.9021L88.4089 50.4287C88.6568 50.493 88.9391 50.548 89.2558 50.5939C89.577 50.6353 89.9029 50.6559 90.2334 50.6559C90.6511 50.6559 91.0274 50.6123 91.3625 50.5251C91.7021 50.4379 91.9707 50.2979 92.168 50.1051C92.3654 49.9124 92.4641 49.6576 92.4641 49.3409C92.4641 48.937 92.269 48.4505 91.8789 47.8813C91.4887 47.3076 90.9104 46.6857 90.1439 46.0156L91.156 44.8245C91.7205 45.3202 92.2162 45.8205 92.6431 46.3254C93.0699 46.8257 93.4004 47.3352 93.6345 47.8538C93.8731 48.3725 93.9925 48.9049 93.9925 49.4511ZM99.3144 50.5871C99.2915 50.2566 99.2501 49.9376 99.1905 49.6301C99.1354 49.318 99.0551 49.038 98.9495 48.7901C98.8485 48.5377 98.7154 48.338 98.5502 48.1912C98.3895 48.0397 98.1899 47.964 97.9512 47.964C97.6896 47.964 97.4739 48.0489 97.304 48.2187C97.1342 48.3839 97.008 48.5997 96.9254 48.8659C96.8428 49.1275 96.8015 49.4052 96.8015 49.6989C96.8015 50.034 96.9024 50.2681 97.1044 50.4012C97.3063 50.5343 97.6047 50.6008 97.9994 50.6008C98.2197 50.6008 98.4423 50.5985 98.6672 50.5939C98.8921 50.5894 99.1079 50.5871 99.3144 50.5871ZM99.1285 52.1499C98.9082 52.1499 98.6879 52.1499 98.4676 52.1499C98.2519 52.1499 98.0361 52.1499 97.8204 52.1499C97.0814 52.1499 96.4985 51.9594 96.0717 51.5785C95.6448 51.1929 95.4314 50.61 95.4314 49.8297C95.4314 49.435 95.4819 49.0403 95.5829 48.6456C95.6838 48.2462 95.8376 47.8836 96.0441 47.5578C96.2553 47.2273 96.5215 46.9634 96.8428 46.766C97.1641 46.5641 97.5427 46.4631 97.9788 46.4631C98.4745 46.4631 98.8921 46.5801 99.2318 46.8142C99.5714 47.0483 99.8445 47.3627 100.051 47.7574C100.262 48.1521 100.421 48.5951 100.526 49.0862C100.632 49.5773 100.701 50.0822 100.733 50.6008H101.373V52.1499H100.678C100.531 53.1 100.044 53.9009 99.218 54.5527C98.3918 55.2044 97.2627 55.7415 95.8307 56.1637L95.1904 54.7455C96.2874 54.4425 97.1755 54.0708 97.8548 53.6301C98.5387 53.1941 98.9633 52.7007 99.1285 52.1499ZM104.629 45.9398C104.96 45.9398 105.306 46.0087 105.669 46.1464C106.036 46.2795 106.433 46.4424 106.86 46.6352C107.292 46.828 107.76 47.0253 108.265 47.2273C108.774 47.4247 109.336 47.583 109.951 47.7023V49.0036L107.018 50.9657C106.39 51.3788 105.742 51.6794 105.077 51.8676C104.411 52.0558 103.684 52.1499 102.894 52.1499H101.373C101.29 52.1499 101.231 52.0948 101.194 51.9847C101.153 51.8745 101.132 51.6703 101.132 51.3719C101.132 51.0736 101.153 50.8716 101.194 50.7661C101.231 50.6559 101.29 50.6008 101.373 50.6008H103.17C103.574 50.6008 103.952 50.5733 104.306 50.5182C104.659 50.4631 104.999 50.3736 105.325 50.2497C105.655 50.1212 105.988 49.9537 106.323 49.7471L108.134 48.6042C107.712 48.5216 107.333 48.4161 106.998 48.2875C106.663 48.1544 106.355 48.0259 106.075 47.902C105.814 47.7827 105.57 47.6817 105.345 47.5991C105.125 47.5165 104.909 47.4751 104.698 47.4751C104.359 47.4751 104.09 47.5922 103.893 47.8263C103.7 48.0558 103.56 48.3771 103.473 48.7901L103.425 49.0311L102.185 48.8039L102.234 48.5079C102.38 47.7276 102.637 47.1057 103.005 46.6421C103.372 46.1739 103.913 45.9398 104.629 45.9398ZM104.753 43.0551L105.876 41.9329L106.991 43.0551L105.876 44.1773L104.753 43.0551Z" fill="#212121"/>
<path d="M123.039 46.6352L122.571 48.0328C122.383 47.964 122.167 47.9089 121.924 47.8676C121.681 47.8263 121.451 47.8056 121.235 47.8056C120.822 47.8056 120.451 47.8813 120.12 48.0328C119.79 48.1797 119.53 48.3931 119.342 48.6731C119.154 48.9485 119.06 49.2744 119.06 49.6507C119.06 50.0087 119.195 50.2543 119.466 50.3874C119.742 50.5205 120.212 50.6123 120.877 50.6628C121.254 50.6857 121.594 50.7293 121.896 50.7936C122.204 50.8579 122.468 50.9588 122.688 51.0965C122.908 51.2342 123.078 51.4247 123.198 51.668C123.317 51.9066 123.377 52.2165 123.377 52.5974C123.377 53.1803 123.248 53.6829 122.991 54.1052C122.734 54.5274 122.378 54.8717 121.924 55.1379C121.474 55.4087 120.951 55.6083 120.354 55.7369C119.758 55.87 119.117 55.9365 118.433 55.9365C116.933 55.9365 115.81 55.6061 115.067 54.9451C114.328 54.2888 113.958 53.2446 113.958 51.8125C113.958 51.3719 113.984 50.929 114.034 50.4838C114.089 50.0386 114.165 49.5773 114.261 49.1L115.714 49.3753C115.631 49.8389 115.565 50.2681 115.514 50.6628C115.468 51.0529 115.445 51.4522 115.445 51.8607C115.445 52.4941 115.549 52.9944 115.755 53.3616C115.966 53.7288 116.292 53.9904 116.733 54.1465C117.173 54.3025 117.743 54.3806 118.44 54.3806C118.863 54.3806 119.278 54.3484 119.686 54.2842C120.095 54.2245 120.464 54.1304 120.795 54.0019C121.13 53.878 121.396 53.7219 121.594 53.5337C121.791 53.3501 121.89 53.139 121.89 52.9003C121.89 52.6571 121.798 52.485 121.614 52.384C121.431 52.2876 121.077 52.2187 120.554 52.1774C119.87 52.127 119.305 52.0237 118.86 51.8676C118.42 51.7116 118.091 51.4752 117.876 51.1585C117.665 50.8418 117.559 50.4126 117.559 49.871C117.559 49.1917 117.706 48.5813 118 48.0397C118.298 47.4935 118.713 47.0621 119.246 46.7454C119.783 46.4287 120.409 46.2703 121.125 46.2703C121.451 46.2703 121.782 46.3024 122.117 46.3667C122.452 46.431 122.759 46.5205 123.039 46.6352ZM128.492 52.0604C128.295 52.0971 128.088 52.127 127.872 52.1499C127.661 52.1774 127.434 52.1912 127.191 52.1912C126.447 52.1912 125.862 52.0007 125.435 51.6198C125.013 51.2342 124.802 50.6536 124.802 49.8779C124.802 49.4786 124.852 49.0793 124.953 48.68C125.054 48.2807 125.208 47.9135 125.415 47.5784C125.626 47.2434 125.89 46.9771 126.206 46.7798C126.528 46.5778 126.909 46.4769 127.349 46.4769C127.9 46.4769 128.354 46.6168 128.712 46.8968C129.075 47.1768 129.36 47.5532 129.566 48.0259C129.773 48.4941 129.917 49.0196 130 49.6025C130.087 50.1854 130.131 50.7798 130.131 51.3857C130.131 52.5561 129.711 53.5269 128.871 54.2979C128.035 55.069 126.812 55.6933 125.201 56.1706L124.561 54.7523C125.685 54.4402 126.585 54.0593 127.26 53.6095C127.939 53.1597 128.35 52.6433 128.492 52.0604ZM128.671 50.4907C128.648 50.1694 128.607 49.8596 128.547 49.5612C128.487 49.2583 128.405 48.9875 128.299 48.7488C128.194 48.5102 128.061 48.322 127.9 48.1843C127.744 48.042 127.551 47.9708 127.322 47.9708C127.055 47.9708 126.837 48.0581 126.668 48.2325C126.502 48.4023 126.378 48.6249 126.296 48.9003C126.213 49.1711 126.172 49.4511 126.172 49.7402C126.172 50.0799 126.273 50.314 126.475 50.4425C126.677 50.571 126.975 50.6353 127.37 50.6353C127.618 50.6353 127.854 50.6215 128.079 50.5939C128.304 50.5618 128.501 50.5274 128.671 50.4907ZM133.243 47.84L134.716 47.3443C134.964 48.1567 135.152 48.8773 135.28 49.5062C135.409 50.1304 135.473 50.7087 135.473 51.2411C135.473 52.0076 135.324 52.6915 135.026 53.2928C134.732 53.894 134.266 54.4311 133.628 54.9038C132.99 55.3812 132.159 55.8103 131.136 56.1913L130.468 54.7868C131.303 54.4838 131.973 54.1671 132.478 53.8367C132.983 53.5062 133.348 53.1321 133.573 52.7145C133.802 52.2968 133.917 51.8103 133.917 51.2549C133.917 50.8234 133.86 50.3277 133.745 49.7678C133.635 49.2032 133.467 48.5606 133.243 47.84ZM142.599 49.4511C142.599 49.956 142.491 50.3851 142.275 50.7385C142.064 51.0874 141.78 51.3696 141.422 51.5854C141.064 51.8011 140.664 51.9571 140.224 52.0535C139.783 52.1499 139.336 52.1981 138.881 52.1981C138.496 52.1981 138.112 52.1729 137.731 52.1224C137.355 52.0719 136.999 51.9984 136.664 51.9021L137.015 50.4287C137.263 50.493 137.545 50.548 137.862 50.5939C138.183 50.6353 138.509 50.6559 138.84 50.6559C139.258 50.6559 139.634 50.6123 139.969 50.5251C140.309 50.4379 140.577 50.2979 140.774 50.1051C140.972 49.9124 141.07 49.6576 141.07 49.3409C141.07 48.937 140.875 48.4505 140.485 47.8813C140.095 47.3076 139.517 46.6857 138.75 46.0156L139.762 44.8245C140.327 45.3202 140.823 45.8205 141.25 46.3254C141.676 46.8257 142.007 47.3352 142.241 47.8538C142.48 48.3725 142.599 48.9049 142.599 49.4511ZM147.921 50.5871C147.898 50.2566 147.857 49.9376 147.797 49.6301C147.742 49.318 147.662 49.038 147.556 48.7901C147.455 48.5377 147.322 48.338 147.157 48.1912C146.996 48.0397 146.796 47.964 146.558 47.964C146.296 47.964 146.08 48.0489 145.91 48.2187C145.741 48.3839 145.614 48.5997 145.532 48.8659C145.449 49.1275 145.408 49.4052 145.408 49.6989C145.408 50.034 145.509 50.2681 145.711 50.4012C145.913 50.5343 146.211 50.6008 146.606 50.6008C146.826 50.6008 147.049 50.5985 147.274 50.5939C147.499 50.5894 147.714 50.5871 147.921 50.5871ZM147.735 52.1499C147.515 52.1499 147.294 52.1499 147.074 52.1499C146.858 52.1499 146.643 52.1499 146.427 52.1499C145.688 52.1499 145.105 51.9594 144.678 51.5785C144.251 51.1929 144.038 50.61 144.038 49.8297C144.038 49.435 144.088 49.0403 144.189 48.6456C144.29 48.2462 144.444 47.8836 144.651 47.5578C144.862 47.2273 145.128 46.9634 145.449 46.766C145.77 46.5641 146.149 46.4631 146.585 46.4631C147.081 46.4631 147.499 46.5801 147.838 46.8142C148.178 47.0483 148.451 47.3627 148.658 47.7574C148.869 48.1521 149.027 48.5951 149.133 49.0862C149.238 49.5773 149.307 50.0822 149.339 50.6008H149.979V52.1499H149.284C149.137 53.1 148.651 53.9009 147.824 54.5527C146.998 55.2044 145.869 55.7415 144.437 56.1637L143.797 54.7455C144.894 54.4425 145.782 54.0708 146.461 53.6301C147.145 53.1941 147.57 52.7007 147.735 52.1499ZM153.236 45.9398C153.566 45.9398 153.913 46.0087 154.275 46.1464C154.643 46.2795 155.04 46.4424 155.467 46.6352C155.898 46.828 156.366 47.0253 156.871 47.2273C157.381 47.4247 157.943 47.583 158.558 47.7023V49.0036L155.625 50.9657C154.996 51.3788 154.349 51.6794 153.683 51.8676C153.018 52.0558 152.29 52.1499 151.501 52.1499H149.979C149.897 52.1499 149.837 52.0948 149.8 51.9847C149.759 51.8745 149.738 51.6703 149.738 51.3719C149.738 51.0736 149.759 50.8716 149.8 50.7661C149.837 50.6559 149.897 50.6008 149.979 50.6008H151.776C152.18 50.6008 152.559 50.5733 152.912 50.5182C153.266 50.4631 153.605 50.3736 153.931 50.2497C154.262 50.1212 154.594 49.9537 154.93 49.7471L156.74 48.6042C156.318 48.5216 155.939 48.4161 155.604 48.2875C155.269 48.1544 154.962 48.0259 154.682 47.902C154.42 47.7827 154.177 47.6817 153.952 47.5991C153.732 47.5165 153.516 47.4751 153.305 47.4751C152.965 47.4751 152.697 47.5922 152.499 47.8263C152.306 48.0558 152.166 48.3771 152.079 48.7901L152.031 49.0311L150.792 48.8039L150.84 48.5079C150.987 47.7276 151.244 47.1057 151.611 46.6421C151.978 46.1739 152.52 45.9398 153.236 45.9398ZM153.36 43.0551L154.482 41.9329L155.597 43.0551L154.482 44.1773L153.36 43.0551Z" fill="#D79C10"/>
<path d="M8.26802 67.6673H9.16304V71.7844C9.16304 72.1914 9.2533 72.4821 9.43384 72.6565C9.61743 72.8309 9.94025 72.9181 10.4023 72.9181H10.4069V73.8499H10.4023C9.71076 73.8499 9.1814 73.68 8.81421 73.3404C8.45008 72.9977 8.26802 72.4851 8.26802 71.8028V67.6673ZM12.4172 70.2147C12.506 70.5513 12.5748 70.868 12.6238 71.1648C12.6758 71.4616 12.7018 71.7278 12.7018 71.9634C12.7018 72.5754 12.5335 73.0436 12.1969 73.3679C11.8634 73.6892 11.3402 73.8499 10.6272 73.8499H10.4115C10.3105 73.8499 10.26 73.6938 10.26 73.3817C10.26 73.0726 10.3105 72.9181 10.4115 72.9181H10.6272C11.0586 72.9181 11.3677 72.8324 11.5543 72.6611C11.741 72.4897 11.8343 72.2327 11.8343 71.89C11.8343 71.7186 11.8114 71.5106 11.7655 71.2658C11.7196 71.0179 11.6599 70.7441 11.5865 70.4442L12.4172 70.2147ZM10.4023 75.4747L11.0632 74.8137L11.7242 75.4747L11.0632 76.1402L10.4023 75.4747ZM26.2587 70.793C26.2189 71.0256 26.1852 71.2336 26.1577 71.4172C26.1332 71.6008 26.121 71.7722 26.121 71.9313C26.121 72.222 26.2021 72.4591 26.3642 72.6427C26.5264 72.8263 26.8401 72.9181 27.3052 72.9181H27.3097V73.8499H27.3052C26.8064 73.8499 26.3979 73.7489 26.0797 73.5469C25.7645 73.3419 25.5549 73.0191 25.4509 72.5785H25.405C25.1051 73.0619 24.6599 73.3955 24.0693 73.5791C23.4818 73.7596 22.7765 73.8499 21.9534 73.8499C20.8488 73.8499 20.041 73.6556 19.53 73.2669C19.022 72.8753 18.7681 72.3077 18.7681 71.5641C18.7681 71.1082 18.8568 70.5972 19.0343 70.0311L19.8237 70.2606C19.6738 70.7349 19.5988 71.1388 19.5988 71.4723C19.5988 71.968 19.7931 72.3337 20.1817 72.5693C20.5703 72.8018 21.2083 72.9181 22.0957 72.9181C22.8607 72.9181 23.4696 72.8416 23.9224 72.6886C24.3784 72.5356 24.7211 72.2939 24.9506 71.9634C25.1831 71.6299 25.3468 71.1954 25.4417 70.6599L26.2587 70.793ZM21.6367 75.4747L22.2976 74.8137L22.9586 75.4747L22.2976 76.1402L21.6367 75.4747ZM30.5089 72.9181C30.772 72.9181 30.9648 72.8416 31.0872 72.6886C31.2096 72.5326 31.2861 72.2924 31.3167 71.968L31.3947 71.1143L32.1888 71.174L32.1245 71.9956C32.0939 72.3015 32.149 72.5326 32.2897 72.6886C32.4305 72.8416 32.637 72.9181 32.9094 72.9181C33.4142 72.9181 33.6667 72.629 33.6667 72.0506C33.6667 71.9588 33.659 71.838 33.6437 71.688C33.6315 71.535 33.6147 71.3775 33.5932 71.2153C33.5718 71.05 33.5489 70.9047 33.5244 70.7792L34.3873 70.5727C34.4301 70.7869 34.4684 71.0302 34.502 71.3025C34.5357 71.5748 34.5525 71.8196 34.5525 72.0369C34.5525 72.6488 34.424 73.1048 34.167 73.4046C33.9099 73.7014 33.5366 73.8499 33.0471 73.8499C32.6737 73.8499 32.3815 73.7626 32.1704 73.5882C31.9623 73.4108 31.8246 73.1751 31.7573 72.8814H31.7114C31.5584 73.527 31.1407 73.8499 30.4584 73.8499C30.0881 73.8499 29.799 73.7581 29.5909 73.5745C29.3859 73.3909 29.2513 73.1323 29.187 72.7988H29.1411C29.0309 73.1139 28.8351 73.3679 28.5536 73.5607C28.2721 73.7535 27.9294 73.8499 27.5255 73.8499H27.3097C27.2088 73.8499 27.1583 73.6923 27.1583 73.3771C27.1583 73.0711 27.2088 72.9181 27.3097 72.9181H27.5255C27.9477 72.9181 28.2583 72.8187 28.4572 72.6198C28.6561 72.4178 28.78 72.0935 28.829 71.6467L28.9024 70.8894L29.7929 70.9537L29.7056 71.9267C29.672 72.2388 29.724 72.4821 29.8617 72.6565C30.0025 72.8309 30.2182 72.9181 30.5089 72.9181ZM35.6679 67.6673H36.5629V71.7844C36.5629 72.1914 36.6531 72.4821 36.8337 72.6565C37.0173 72.8309 37.3401 72.9181 37.8021 72.9181H37.8067V73.8499H37.8021C37.1106 73.8499 36.5812 73.68 36.214 73.3404C35.8499 72.9977 35.6679 72.4851 35.6679 71.8028V67.6673ZM40.1888 71.5825C40.1888 71.8854 40.2179 72.1363 40.2761 72.3352C40.3342 72.531 40.4459 72.6779 40.6111 72.7758C40.7794 72.8707 41.0288 72.9181 41.3593 72.9181H41.653V73.8499H41.3455C40.9569 73.8499 40.6188 73.7565 40.3311 73.5699C40.0466 73.3832 39.8553 73.1185 39.7574 72.7758H39.7115C39.6136 73.1185 39.4055 73.3832 39.0873 73.5699C38.7721 73.7565 38.4187 73.8499 38.027 73.8499H37.8113C37.7103 73.8499 37.6598 73.6938 37.6598 73.3817C37.6598 73.0726 37.7103 72.9181 37.8113 72.9181H38.027C38.382 72.9181 38.6497 72.8692 38.8303 72.7712C39.0138 72.6733 39.1362 72.5264 39.1974 72.3306C39.2617 72.1317 39.2938 71.8823 39.2938 71.5825V70.9215H40.1888V71.5825ZM38.5962 69.2003L39.2571 68.5394L39.918 69.2003L39.2571 69.8659L38.5962 69.2003ZM44.0351 71.5825C44.0351 71.8854 44.0642 72.1363 44.1223 72.3352C44.1805 72.531 44.2922 72.6779 44.4574 72.7758C44.6257 72.8707 44.8751 72.9181 45.2055 72.9181H45.4993V73.8499H45.1918C44.8032 73.8499 44.4651 73.7565 44.1774 73.5699C43.8929 73.3832 43.7016 73.1185 43.6037 72.7758H43.5578C43.4599 73.1185 43.2518 73.3832 42.9336 73.5699C42.6184 73.7565 42.265 73.8499 41.8733 73.8499H41.6576C41.5566 73.8499 41.5061 73.6938 41.5061 73.3817C41.5061 73.0726 41.5566 72.9181 41.6576 72.9181H41.8733C42.2283 72.9181 42.496 72.8692 42.6765 72.7712C42.8601 72.6733 42.9825 72.5264 43.0437 72.3306C43.108 72.1317 43.1401 71.8823 43.1401 71.5825V70.9215H44.0351V71.5825ZM41.6668 69.2003L42.3277 68.5394L42.9932 69.2003L42.3277 69.8659L41.6668 69.2003ZM43.2686 69.2003L43.9296 68.5394L44.5951 69.2003L43.9296 69.8659L43.2686 69.2003ZM45.5039 72.9181C45.7579 72.9181 45.9659 72.8646 46.1281 72.7575C46.2933 72.6473 46.4372 72.4928 46.5596 72.2939C46.685 72.095 46.8135 71.864 46.9451 71.6008C47.092 71.3071 47.2389 71.0531 47.3857 70.8389C47.5326 70.6217 47.6994 70.4534 47.886 70.334C48.0757 70.2147 48.3052 70.155 48.5745 70.155C48.8988 70.155 49.1849 70.2514 49.4328 70.4442C49.6806 70.637 49.8734 70.8879 50.0111 71.1969C50.1519 71.506 50.2223 71.8349 50.2223 72.1837C50.2223 72.71 50.0815 73.1277 49.8 73.4368C49.5185 73.7458 49.139 73.9003 48.6617 73.9003C48.3159 73.9003 48.0038 73.8193 47.7254 73.6571C47.4469 73.4918 47.2037 73.2669 46.9956 72.9824C46.8181 73.2516 46.6177 73.4643 46.3943 73.6204C46.1709 73.7734 45.8741 73.8499 45.5039 73.8499C45.4029 73.8499 45.3524 73.6938 45.3524 73.3817C45.3524 73.0726 45.4029 72.9181 45.5039 72.9181ZM47.4454 72.3398C47.6443 72.5448 47.8417 72.7024 48.0375 72.8125C48.2333 72.9196 48.4429 72.9732 48.6663 72.9732C48.9019 72.9732 49.0886 72.8998 49.2263 72.7529C49.367 72.606 49.4374 72.4117 49.4374 72.17C49.4374 72.0017 49.3991 71.8334 49.3226 71.6651C49.2461 71.4968 49.1421 71.3576 49.0105 71.2474C48.879 71.1342 48.729 71.0776 48.5607 71.0776C48.3159 71.0776 48.1232 71.1709 47.9824 71.3576C47.8447 71.5442 47.7131 71.7707 47.5877 72.0369L47.4454 72.3398ZM57.5736 70.9583L57.9087 71.3025C57.465 71.7462 57.2248 72.222 57.1881 72.7299L57.2478 72.7483C57.3457 72.6718 57.4543 72.6335 57.5736 72.6335C57.7297 72.6335 57.8628 72.6886 57.973 72.7988C58.0831 72.9089 58.1382 73.0528 58.1382 73.2302C58.1382 73.4352 58.0739 73.5944 57.9454 73.7076C57.82 73.8208 57.6532 73.8774 57.4451 73.8774C57.2095 73.8774 57.0244 73.7963 56.8898 73.6341C56.7582 73.4689 56.6924 73.2363 56.6924 72.9365C56.6924 72.1684 56.9861 71.509 57.5736 70.9583ZM60.4928 73.8499H59.6024V67.6673H60.4928V73.8499ZM62.1405 71.0592L62.9759 70.7655C63.1472 71.2734 63.2819 71.7462 63.3798 72.1837C63.4808 72.6182 63.5313 73.0114 63.5313 73.3633C63.5313 74.0487 63.3064 74.6286 62.8566 75.1029C62.4098 75.5802 61.7014 75.9948 60.7315 76.3467L60.3367 75.5068C61.1415 75.2253 61.729 74.9223 62.0992 74.598C62.4695 74.2736 62.6546 73.8697 62.6546 73.3863C62.6546 73.1048 62.6072 72.7575 62.5123 72.3444C62.4205 71.9313 62.2966 71.5029 62.1405 71.0592ZM73.4943 72.0552C73.4943 72.4806 73.3826 72.8278 73.1592 73.0971C72.9359 73.3664 72.639 73.5653 72.2688 73.6938C71.8985 73.8193 71.4931 73.882 71.0525 73.882C70.8352 73.882 70.6088 73.8667 70.3732 73.8361C70.1406 73.8055 69.9004 73.7581 69.6526 73.6938L69.8591 72.8171C70.0764 72.8661 70.2814 72.9028 70.4742 72.9273C70.67 72.9487 70.8567 72.9594 71.0341 72.9594C71.5268 72.9594 71.9123 72.8829 72.1908 72.7299C72.4723 72.5739 72.613 72.3444 72.613 72.0415C72.613 71.7569 72.4753 71.4172 72.1999 71.0225C71.9276 70.6278 71.5467 70.2132 71.0571 69.7787L71.6538 69.0718C72.2657 69.6165 72.7247 70.1351 73.0307 70.6278C73.3398 71.1174 73.4943 71.5932 73.4943 72.0552ZM77.0422 73.8728L77.0147 73.8223C76.8433 73.8346 76.672 73.8422 76.5006 73.8453C76.3293 73.8483 76.1625 73.8499 76.0003 73.8499C75.5169 73.8499 75.1359 73.732 74.8575 73.4964C74.579 73.2578 74.4398 72.889 74.4398 72.3903C74.4398 72.02 74.4995 71.6697 74.6188 71.3392C74.7381 71.0057 74.9187 70.7349 75.1604 70.5268C75.4021 70.3157 75.7051 70.2101 76.0692 70.2101C76.3782 70.2101 76.6414 70.2897 76.8586 70.4488C77.0759 70.6048 77.2549 70.8144 77.3957 71.0776C77.5395 71.3377 77.6496 71.6284 77.7261 71.9497C77.8026 72.2679 77.8531 72.5907 77.8776 72.9181H78.2172V73.8499H77.85C77.7644 74.4404 77.4446 74.9376 76.8908 75.3416C76.34 75.7455 75.598 76.0759 74.6647 76.333L74.2883 75.4838C75.0441 75.3094 75.6653 75.083 76.1518 74.8045C76.6414 74.5292 76.9382 74.2186 77.0422 73.8728ZM77.056 72.9365C77.0499 72.7468 77.0285 72.5479 76.9917 72.3398C76.955 72.1317 76.8984 71.9374 76.8219 71.7569C76.7454 71.5764 76.6429 71.4295 76.5144 71.3163C76.3889 71.203 76.2329 71.1464 76.0462 71.1464C75.8535 71.1464 75.6928 71.2015 75.5643 71.3117C75.4358 71.4218 75.3394 71.5626 75.2751 71.7339C75.2139 71.9053 75.1833 72.0828 75.1833 72.2664C75.1833 72.5234 75.2614 72.7024 75.4174 72.8034C75.5735 72.9013 75.7816 72.9502 76.0417 72.9502C76.2069 72.9502 76.3736 72.9502 76.5419 72.9502C76.7133 72.9472 76.8847 72.9426 77.056 72.9365ZM80.1955 69.7878C80.3546 69.7878 80.5458 69.8246 80.7692 69.898C80.9956 69.9684 81.3261 70.0984 81.7606 70.2881C82.1798 70.4687 82.5363 70.611 82.83 70.715C83.1268 70.819 83.4191 70.9062 83.7067 70.9766V71.7477L81.4301 73.0512C80.9405 73.3358 80.4862 73.5408 80.0669 73.6663C79.6477 73.7887 79.2041 73.8499 78.7359 73.8499H78.2172C78.1652 73.8499 78.127 73.8147 78.1025 73.7443C78.078 73.6708 78.0658 73.55 78.0658 73.3817C78.0658 73.2165 78.078 73.0986 78.1025 73.0283C78.127 72.9548 78.1652 72.9181 78.2172 72.9181H78.9011C79.1459 72.9181 79.3754 72.8998 79.5896 72.863C79.8069 72.8233 80.0318 72.7605 80.2643 72.6749C80.4999 72.5861 80.7661 72.4668 81.0629 72.3168L82.573 71.5274V71.4815C82.3955 71.4356 82.2043 71.3759 81.9993 71.3025C81.7973 71.2291 81.5632 71.1357 81.297 71.0225C80.9972 70.9032 80.7631 70.819 80.5948 70.7701C80.4295 70.7181 80.2949 70.692 80.1909 70.692C79.9889 70.692 79.8222 70.7563 79.6906 70.8848C79.559 71.0133 79.4351 71.2291 79.3188 71.532L79.2821 71.6192L78.6211 71.4081L78.6533 71.3208C78.8277 70.7792 79.0373 70.3891 79.2821 70.1504C79.5269 69.9087 79.8313 69.7878 80.1955 69.7878ZM80.3607 68.007L81.0216 67.346L81.6826 68.007L81.0216 68.6725L80.3607 68.007ZM90.2365 71.0592L91.0719 70.7655L91.3748 71.6972C91.4727 72.0001 91.5813 72.2419 91.7007 72.4224C91.8231 72.5999 91.9776 72.7269 92.1642 72.8034C92.3509 72.8799 92.5942 72.9181 92.894 72.9181H92.8986V73.8499H92.894C92.3004 73.8499 91.8644 73.6525 91.5859 73.2578L91.54 73.2715C91.592 74.0243 91.3901 74.6378 90.9342 75.1121C90.4813 75.5894 89.779 76.001 88.8274 76.3467L88.4327 75.5068C89.265 75.2161 89.8586 74.907 90.2136 74.5796C90.5716 74.2553 90.7506 73.8575 90.7506 73.3863C90.7506 73.117 90.7047 72.7804 90.6129 72.3765C90.5241 71.9726 90.3987 71.5335 90.2365 71.0592ZM96.3456 68.4201L97.0065 67.7591L97.6675 68.4201L97.0065 69.0856L96.3456 68.4201ZM92.9032 73.8499C92.8022 73.8499 92.7517 73.6938 92.7517 73.3817C92.7517 73.0726 92.8022 72.9181 92.9032 72.9181H93.5687C93.6116 72.8569 93.6513 72.7972 93.6881 72.7391C93.7248 72.6779 93.763 72.6182 93.8028 72.5601V67.6673H94.6932V70.5589C94.6932 70.7854 94.6779 71.0011 94.6473 71.2061C94.6167 71.4081 94.5647 71.6177 94.4913 71.8349L94.5326 71.867C95.4077 70.7502 96.2477 70.1917 97.0524 70.1917C97.389 70.1917 97.6766 70.2667 97.9153 70.4167C98.157 70.5635 98.3422 70.7655 98.4707 71.0225C98.5992 71.2795 98.6635 71.5718 98.6635 71.8992C98.6635 72.0216 98.6512 72.144 98.6267 72.2664C98.6023 72.3857 98.5594 72.5004 98.4982 72.6106C98.6084 72.7085 98.7399 72.785 98.8929 72.8401C99.0459 72.8921 99.2249 72.9181 99.43 72.9181H99.4345V73.8499H99.43C99.1117 73.8499 98.844 73.7963 98.6267 73.6892C98.4125 73.5791 98.2244 73.4352 98.0622 73.2578C97.8419 73.4414 97.5481 73.5867 97.1809 73.6938C96.8137 73.7978 96.3532 73.8499 95.7994 73.8499H92.9032ZM94.5647 72.9181H95.9876C96.2997 72.9181 96.5965 72.8936 96.878 72.8447C97.1595 72.7927 97.389 72.6978 97.5665 72.5601C97.744 72.4194 97.8327 72.2143 97.8327 71.9451C97.8327 71.7033 97.7501 71.5044 97.5848 71.3484C97.4196 71.1893 97.2008 71.1097 96.9285 71.1097C96.7388 71.1097 96.5261 71.1602 96.2905 71.2612C96.0549 71.3622 95.7948 71.5442 95.5102 71.8074C95.2257 72.0675 94.9105 72.4377 94.5647 72.9181ZM101.445 70.2147C101.534 70.5513 101.602 70.868 101.651 71.1648C101.703 71.4616 101.729 71.7278 101.729 71.9634C101.729 72.5754 101.561 73.0436 101.225 73.3679C100.891 73.6892 100.368 73.8499 99.6549 73.8499H99.4391C99.3382 73.8499 99.2877 73.6938 99.2877 73.3817C99.2877 73.0726 99.3382 72.9181 99.4391 72.9181H99.6549C100.086 72.9181 100.395 72.8324 100.582 72.6611C100.769 72.4897 100.862 72.2327 100.862 71.89C100.862 71.7186 100.839 71.5106 100.793 71.2658C100.747 71.0179 100.688 70.7441 100.614 70.4442L101.445 70.2147ZM99.866 68.5302L100.527 67.8693L101.188 68.5302L100.527 69.1958L99.866 68.5302ZM111.614 72.0552C111.614 72.4806 111.503 72.8278 111.279 73.0971C111.056 73.3664 110.759 73.5653 110.389 73.6938C110.019 73.8193 109.613 73.882 109.173 73.882C108.955 73.882 108.729 73.8667 108.493 73.8361C108.261 73.8055 108.021 73.7581 107.773 73.6938L107.979 72.8171C108.197 72.8661 108.402 72.9028 108.594 72.9273C108.79 72.9487 108.977 72.9594 109.154 72.9594C109.647 72.9594 110.033 72.8829 110.311 72.7299C110.592 72.5739 110.733 72.3444 110.733 72.0415C110.733 71.7569 110.596 71.4172 110.32 71.0225C110.048 70.6278 109.667 70.2132 109.177 69.7787L109.774 69.0718C110.386 69.6165 110.845 70.1351 111.151 70.6278C111.46 71.1174 111.614 71.5932 111.614 72.0552ZM112.927 71.0592L113.763 70.7655C113.934 71.2734 114.069 71.7462 114.166 72.1837C114.267 72.6182 114.318 73.0114 114.318 73.3633C114.318 74.0487 114.093 74.6286 113.643 75.1029C113.196 75.5802 112.488 75.9948 111.518 76.3467L111.123 75.5068C111.928 75.2253 112.516 74.9223 112.886 74.598C113.256 74.2736 113.441 73.8697 113.441 73.3863C113.441 73.1048 113.394 72.7575 113.299 72.3444C113.207 71.9313 113.083 71.5029 112.927 71.0592ZM117.935 73.8728L117.907 73.8223C117.736 73.8346 117.564 73.8422 117.393 73.8453C117.222 73.8483 117.055 73.8499 116.893 73.8499C116.409 73.8499 116.028 73.732 115.75 73.4964C115.471 73.2578 115.332 72.889 115.332 72.3903C115.332 72.02 115.392 71.6697 115.511 71.3392C115.631 71.0057 115.811 70.7349 116.053 70.5268C116.295 70.3157 116.598 70.2101 116.962 70.2101C117.271 70.2101 117.534 70.2897 117.751 70.4488C117.968 70.6048 118.147 70.8144 118.288 71.0776C118.432 71.3377 118.542 71.6284 118.619 71.9497C118.695 72.2679 118.746 72.5907 118.77 72.9181H119.11V73.8499H118.742C118.657 74.4404 118.337 74.9376 117.783 75.3416C117.232 75.7455 116.49 76.0759 115.557 76.333L115.181 75.4838C115.937 75.3094 116.558 75.083 117.044 74.8045C117.534 74.5292 117.831 74.2186 117.935 73.8728ZM117.948 72.9365C117.942 72.7468 117.921 72.5479 117.884 72.3398C117.847 72.1317 117.791 71.9374 117.714 71.7569C117.638 71.5764 117.535 71.4295 117.407 71.3163C117.281 71.203 117.125 71.1464 116.939 71.1464C116.746 71.1464 116.585 71.2015 116.457 71.3117C116.328 71.4218 116.232 71.5626 116.168 71.7339C116.106 71.9053 116.076 72.0828 116.076 72.2664C116.076 72.5234 116.154 72.7024 116.31 72.8034C116.466 72.9013 116.674 72.9502 116.934 72.9502C117.099 72.9502 117.266 72.9502 117.434 72.9502C117.606 72.9472 117.777 72.9426 117.948 72.9365ZM119.11 72.9181C119.364 72.9181 119.572 72.8646 119.734 72.7575C119.899 72.6473 120.043 72.4928 120.165 72.2939C120.291 72.095 120.419 71.864 120.551 71.6008C120.698 71.3071 120.845 71.0531 120.992 70.8389C121.138 70.6217 121.305 70.4534 121.492 70.334C121.682 70.2147 121.911 70.155 122.18 70.155C122.505 70.155 122.791 70.2514 123.039 70.4442C123.286 70.637 123.479 70.8879 123.617 71.1969C123.758 71.506 123.828 71.8349 123.828 72.1837C123.828 72.71 123.687 73.1277 123.406 73.4368C123.124 73.7458 122.745 73.9003 122.268 73.9003C121.922 73.9003 121.61 73.8193 121.331 73.6571C121.053 73.4918 120.809 73.2669 120.601 72.9824C120.424 73.2516 120.223 73.4643 120 73.6204C119.777 73.7734 119.48 73.8499 119.11 73.8499C119.009 73.8499 118.958 73.6938 118.958 73.3817C118.958 73.0726 119.009 72.9181 119.11 72.9181ZM121.051 72.3398C121.25 72.5448 121.447 72.7024 121.643 72.8125C121.839 72.9196 122.049 72.9732 122.272 72.9732C122.508 72.9732 122.694 72.8998 122.832 72.7529C122.973 72.606 123.043 72.4117 123.043 72.17C123.043 72.0017 123.005 71.8334 122.928 71.6651C122.852 71.4968 122.748 71.3576 122.616 71.2474C122.485 71.1342 122.335 71.0776 122.167 71.0776C121.922 71.0776 121.729 71.1709 121.588 71.3576C121.451 71.5442 121.319 71.7707 121.193 72.0369L121.051 72.3398ZM135.999 70.1321L135.7 70.9307C135.376 70.7838 135.059 70.7104 134.75 70.7104C134.49 70.7104 134.255 70.767 134.044 70.8802C133.832 70.9904 133.664 71.1449 133.539 71.3438C133.416 71.5396 133.355 71.7645 133.355 72.0185C133.355 72.3 133.474 72.479 133.713 72.5555C133.955 72.632 134.302 72.6871 134.755 72.7208C135.03 72.7422 135.275 72.7881 135.489 72.8584C135.703 72.9288 135.872 73.0405 135.994 73.1935C136.117 73.3465 136.178 73.5638 136.178 73.8453C136.178 74.2583 136.039 74.6194 135.76 74.9285C135.482 75.2406 135.098 75.4823 134.608 75.6537C134.118 75.8281 133.554 75.9153 132.914 75.9153C132.006 75.9153 131.303 75.7133 130.808 75.3094C130.312 74.9086 130.064 74.3303 130.064 73.5745C130.064 73.0604 130.133 72.3933 130.271 71.5733L131.129 71.7293C131.056 72.1486 131.002 72.4928 130.968 72.7621C130.938 73.0313 130.922 73.2807 130.922 73.5102C130.922 74.0151 131.088 74.3869 131.418 74.6255C131.752 74.8673 132.255 74.9881 132.928 74.9881C133.378 74.9881 133.786 74.9453 134.154 74.8596C134.521 74.7739 134.812 74.6561 135.026 74.5062C135.243 74.3593 135.352 74.1926 135.352 74.0059C135.352 73.8713 135.306 73.7734 135.214 73.7122C135.122 73.6479 135 73.6051 134.847 73.5836C134.697 73.5592 134.532 73.5408 134.351 73.5286C133.999 73.5041 133.687 73.4505 133.415 73.3679C133.142 73.2822 132.928 73.143 132.772 72.9502C132.619 72.7544 132.543 72.479 132.543 72.1241C132.543 71.6896 132.644 71.301 132.846 70.9583C133.048 70.6125 133.318 70.3386 133.658 70.1367C133.998 69.9347 134.375 69.8337 134.792 69.8337C135.18 69.8337 135.583 69.9332 135.999 70.1321ZM139.749 73.7948L139.717 73.7489C139.576 73.7887 139.42 73.8223 139.248 73.8499C139.08 73.8743 138.904 73.8866 138.721 73.8866C138.231 73.8866 137.847 73.7672 137.568 73.5286C137.29 73.2868 137.151 72.9181 137.151 72.4224C137.151 72.0491 137.21 71.6942 137.33 71.3576C137.449 71.021 137.628 70.7456 137.867 70.5314C138.109 70.3172 138.413 70.2101 138.78 70.2101C139.117 70.2101 139.401 70.3034 139.634 70.4901C139.87 70.6767 140.059 70.9261 140.203 71.2382C140.347 71.5473 140.451 71.89 140.515 72.2664C140.582 72.6427 140.616 73.0191 140.616 73.3955C140.616 74.1115 140.336 74.7066 139.776 75.1809C139.216 75.6583 138.416 76.0423 137.376 76.333L136.999 75.4838C137.777 75.3033 138.407 75.0677 138.89 74.777C139.374 74.4863 139.66 74.1589 139.749 73.7948ZM139.758 72.8584C139.749 72.6718 139.726 72.479 139.689 72.2801C139.652 72.0812 139.596 71.8961 139.519 71.7248C139.443 71.5534 139.342 71.4142 139.216 71.3071C139.091 71.2 138.938 71.1464 138.757 71.1464C138.564 71.1464 138.404 71.2046 138.275 71.3208C138.147 71.4371 138.05 71.584 137.986 71.7615C137.925 71.9389 137.894 72.1195 137.894 72.3031C137.894 72.557 137.971 72.733 138.124 72.8309C138.28 72.9288 138.49 72.9778 138.753 72.9778C138.942 72.9778 139.121 72.9655 139.29 72.9411C139.458 72.9166 139.614 72.889 139.758 72.8584ZM142.383 71.0592L143.219 70.7655C143.39 71.2734 143.525 71.7462 143.623 72.1837C143.723 72.6182 143.774 73.0114 143.774 73.3633C143.774 74.0487 143.549 74.6286 143.099 75.1029C142.653 75.5802 141.944 75.9948 140.974 76.3467L140.579 75.5068C141.384 75.2253 141.972 74.9223 142.342 74.598C142.712 74.2736 142.897 73.8697 142.897 73.3863C142.897 73.1048 142.85 72.7575 142.755 72.3444C142.663 71.9313 142.539 71.5029 142.383 71.0592ZM148.515 72.0552C148.515 72.4806 148.404 72.8278 148.18 73.0971C147.957 73.3664 147.66 73.5653 147.29 73.6938C146.92 73.8193 146.514 73.882 146.073 73.882C145.856 73.882 145.63 73.8667 145.394 73.8361C145.162 73.8055 144.921 73.7581 144.674 73.6938L144.88 72.8171C145.097 72.8661 145.302 72.9028 145.495 72.9273C145.691 72.9487 145.878 72.9594 146.055 72.9594C146.548 72.9594 146.933 72.8829 147.212 72.7299C147.493 72.5739 147.634 72.3444 147.634 72.0415C147.634 71.7569 147.496 71.4172 147.221 71.0225C146.949 70.6278 146.568 70.2132 146.078 69.7787L146.675 69.0718C147.287 69.6165 147.746 70.1351 148.052 70.6278C148.361 71.1174 148.515 71.5932 148.515 72.0552ZM152.063 73.8728L152.036 73.8223C151.864 73.8346 151.693 73.8422 151.522 73.8453C151.35 73.8483 151.184 73.8499 151.021 73.8499C150.538 73.8499 150.157 73.732 149.878 73.4964C149.6 73.2578 149.461 72.889 149.461 72.3903C149.461 72.02 149.52 71.6697 149.64 71.3392C149.759 71.0057 149.94 70.7349 150.181 70.5268C150.423 70.3157 150.726 70.2101 151.09 70.2101C151.399 70.2101 151.662 70.2897 151.88 70.4488C152.097 70.6048 152.276 70.8144 152.417 71.0776C152.56 71.3377 152.671 71.6284 152.747 71.9497C152.824 72.2679 152.874 72.5907 152.899 72.9181H153.238V73.8499H152.871C152.785 74.4404 152.466 74.9376 151.912 75.3416C151.361 75.7455 150.619 76.0759 149.686 76.333L149.309 75.4838C150.065 75.3094 150.686 75.083 151.173 74.8045C151.662 74.5292 151.959 74.2186 152.063 73.8728ZM152.077 72.9365C152.071 72.7468 152.049 72.5479 152.013 72.3398C151.976 72.1317 151.919 71.9374 151.843 71.7569C151.766 71.5764 151.664 71.4295 151.535 71.3163C151.41 71.203 151.254 71.1464 151.067 71.1464C150.874 71.1464 150.714 71.2015 150.585 71.3117C150.457 71.4218 150.36 71.5626 150.296 71.7339C150.235 71.9053 150.204 72.0828 150.204 72.2664C150.204 72.5234 150.282 72.7024 150.438 72.8034C150.594 72.9013 150.803 72.9502 151.063 72.9502C151.228 72.9502 151.395 72.9502 151.563 72.9502C151.734 72.9472 151.906 72.9426 152.077 72.9365ZM155.216 69.7878C155.376 69.7878 155.567 69.8246 155.79 69.898C156.017 69.9684 156.347 70.0984 156.782 70.2881C157.201 70.4687 157.557 70.611 157.851 70.715C158.148 70.819 158.44 70.9062 158.728 70.9766V71.7477L156.451 73.0512C155.962 73.3358 155.507 73.5408 155.088 73.6663C154.669 73.7887 154.225 73.8499 153.757 73.8499H153.238C153.186 73.8499 153.148 73.8147 153.123 73.7443C153.099 73.6708 153.087 73.55 153.087 73.3817C153.087 73.2165 153.099 73.0986 153.123 73.0283C153.148 72.9548 153.186 72.9181 153.238 72.9181H153.922C154.167 72.9181 154.396 72.8998 154.611 72.863C154.828 72.8233 155.053 72.7605 155.285 72.6749C155.521 72.5861 155.787 72.4668 156.084 72.3168L157.594 71.5274V71.4815C157.417 71.4356 157.225 71.3759 157.02 71.3025C156.818 71.2291 156.584 71.1357 156.318 71.0225C156.018 70.9032 155.784 70.819 155.616 70.7701C155.451 70.7181 155.316 70.692 155.212 70.692C155.01 70.692 154.843 70.7563 154.712 70.8848C154.58 71.0133 154.456 71.2291 154.34 71.532L154.303 71.6192L153.642 71.4081L153.674 71.3208C153.849 70.7792 154.058 70.3891 154.303 70.1504C154.548 69.9087 154.852 69.7878 155.216 69.7878ZM155.382 68.007L156.043 67.346L156.704 68.007L156.043 68.6725L155.382 68.007ZM56.4476 90.3266C56.4476 90.1675 56.5027 90.0344 56.6128 89.9273C56.7261 89.8171 56.8638 89.7621 57.0259 89.7621C57.1881 89.7621 57.3258 89.8171 57.439 89.9273C57.5522 90.0344 57.6088 90.1675 57.6088 90.3266C57.6088 90.4857 57.5522 90.6219 57.439 90.7351C57.3258 90.8453 57.1881 90.9003 57.0259 90.9003C56.8638 90.9003 56.7261 90.8453 56.6128 90.7351C56.5027 90.6219 56.4476 90.4857 56.4476 90.3266ZM61.781 86.1361L63.0065 89.0047C63.1136 89.2526 63.2222 89.4423 63.3324 89.5739C63.4456 89.7055 63.5756 89.7957 63.7225 89.8447C63.8724 89.8936 64.053 89.9181 64.2641 89.9181H64.3238V90.8499H64.2641C63.848 90.8499 63.4991 90.7703 63.2176 90.6112C62.9361 90.449 62.7204 90.1813 62.5705 89.808H62.5246C62.3777 90.1537 62.1283 90.4215 61.7764 90.6112C61.4245 90.8009 61.0329 90.8958 60.6014 90.8958C60.2954 90.8958 59.9879 90.8422 59.6789 90.7351C59.3698 90.625 59.0791 90.4597 58.8068 90.2394L59.2336 89.4591C59.6804 89.7957 60.1455 89.964 60.629 89.964C60.9196 89.964 61.1981 89.9013 61.4643 89.7758C61.7336 89.6473 61.9524 89.4622 62.1207 89.2205L60.9365 86.54L61.781 86.1361ZM66.7013 88.5825C66.7013 88.8854 66.7304 89.1363 66.7885 89.3352C66.8467 89.531 66.9584 89.6779 67.1236 89.7758C67.2919 89.8707 67.5413 89.9181 67.8717 89.9181H68.1655V90.8499H67.858C67.4694 90.8499 67.1312 90.7565 66.8436 90.5699C66.559 90.3832 66.3678 90.1185 66.2699 89.7758H66.224C66.1261 90.1185 65.918 90.3832 65.5998 90.5699C65.2846 90.7565 64.9312 90.8499 64.5395 90.8499H64.3238C64.2228 90.8499 64.1723 90.6938 64.1723 90.3817C64.1723 90.0726 64.2228 89.9181 64.3238 89.9181H64.5395C64.8945 89.9181 65.1622 89.8692 65.3427 89.7712C65.5263 89.6733 65.6487 89.5264 65.7099 89.3306C65.7742 89.1317 65.8063 88.8823 65.8063 88.5825V87.9215H66.7013V88.5825ZM63.3094 92.4747L63.9704 91.8137L64.6359 92.4747L63.9704 93.1402L63.3094 92.4747ZM64.9113 92.4747L65.5722 91.8137L66.2377 92.4747L65.5722 93.1402L64.9113 92.4747ZM70.5476 88.5825C70.5476 88.8854 70.5767 89.1363 70.6348 89.3352C70.693 89.531 70.8046 89.6779 70.9699 89.7758C71.1382 89.8707 71.3876 89.9181 71.718 89.9181H72.0118V90.8499H71.7043C71.3156 90.8499 70.9775 90.7565 70.6899 90.5699C70.4053 90.3832 70.2141 90.1185 70.1162 89.7758H70.0703C69.9723 90.1185 69.7643 90.3832 69.446 90.5699C69.1309 90.7565 68.7775 90.8499 68.3858 90.8499H68.1701C68.0691 90.8499 68.0186 90.6938 68.0186 90.3817C68.0186 90.0726 68.0691 89.9181 68.1701 89.9181H68.3858C68.7407 89.9181 69.0085 89.8692 69.189 89.7712C69.3726 89.6733 69.495 89.5264 69.5562 89.3306C69.6205 89.1317 69.6526 88.8823 69.6526 88.5825V87.9215H70.5476V88.5825ZM68.9549 86.2003L69.6159 85.5394L70.2768 86.2003L69.6159 86.8659L68.9549 86.2003ZM76.0141 84.5985L76.1518 85.521C75.4786 85.6832 74.9018 85.8362 74.4214 85.98C73.9441 86.1208 73.5234 86.2631 73.1592 86.4069L73.1546 86.4436C73.6718 86.8383 74.0879 87.1856 74.4031 87.4855C74.7182 87.7854 74.9477 88.0623 75.0916 88.3163C75.2384 88.5672 75.3119 88.8227 75.3119 89.0828C75.3119 89.6488 75.0778 90.0849 74.6096 90.3909C74.1415 90.6969 73.4729 90.8499 72.6039 90.8499H72.0164C71.9643 90.8499 71.9261 90.8147 71.9016 90.7443C71.8771 90.6708 71.8649 90.55 71.8649 90.3817C71.8649 90.2165 71.8771 90.0986 71.9016 90.0283C71.9261 89.9548 71.9643 89.9181 72.0164 89.9181H72.5855C73.8095 89.9181 74.4214 89.6228 74.4214 89.0323C74.4214 88.8579 74.3434 88.6666 74.1874 88.4585C74.0344 88.2505 73.7896 88.0057 73.453 87.7242C73.1164 87.4427 72.6727 87.1045 72.1219 86.7098L72.1954 85.8607C72.7492 85.6067 73.3459 85.3726 73.9854 85.1584C74.628 84.9443 75.3042 84.7576 76.0141 84.5985ZM81.1823 92.4747L81.8432 91.8137L82.5042 92.4747L81.8432 93.1402L81.1823 92.4747ZM85.281 87.1872C85.3514 87.4411 85.4065 87.6951 85.4462 87.9491C85.4891 88.203 85.5105 88.4402 85.5105 88.6605C85.5105 89.2113 85.3866 89.6458 85.1387 89.964C84.8939 90.2822 84.5023 90.5102 83.9637 90.6479C83.4282 90.7825 82.7229 90.8499 81.8478 90.8499C80.9788 90.8499 80.275 90.7825 79.7365 90.6479C79.1979 90.5133 78.8047 90.2899 78.5569 89.9778C78.3121 89.6626 78.1897 89.2373 78.1897 88.7018C78.1897 88.4907 78.2096 88.2551 78.2494 87.995C78.2922 87.7318 78.3473 87.4625 78.4146 87.1872L79.2224 87.3753C79.1704 87.5987 79.126 87.819 79.0893 88.0363C79.0557 88.2535 79.0388 88.4417 79.0388 88.6008C79.0388 88.9497 79.1276 89.2189 79.305 89.4086C79.4825 89.5984 79.7763 89.7315 80.1863 89.808C80.5963 89.8814 81.1502 89.9181 81.8478 89.9181C82.5546 89.9181 83.1131 89.8799 83.5231 89.8034C83.9331 89.7238 84.2238 89.5876 84.3952 89.3949C84.5696 89.199 84.6568 88.9252 84.6568 88.5733C84.6568 88.4081 84.64 88.2199 84.6063 88.0087C84.5757 87.7976 84.5344 87.5865 84.4824 87.3753L85.281 87.1872ZM86.6258 84.6673H87.5209V88.7844C87.5209 89.1914 87.6111 89.4821 87.7917 89.6565C87.9753 89.8309 88.2981 89.9181 88.7601 89.9181H88.7647V90.8499H88.7601C88.0686 90.8499 87.5392 90.68 87.172 90.3404C86.8079 89.9977 86.6258 89.4851 86.6258 88.8028V84.6673ZM90.7475 86.7878C90.9066 86.7878 91.0979 86.823 91.3212 86.8934C91.5477 86.9607 91.8781 87.0923 92.3126 87.2881C92.7319 87.4687 93.0883 87.611 93.3821 87.715C93.6789 87.819 93.9711 87.9062 94.2587 87.9766V88.7477L93.2352 89.3031V89.349C93.4402 89.5662 93.6605 89.7162 93.8961 89.7988C94.1348 89.8783 94.3827 89.9181 94.6397 89.9181H94.9059V90.8499H94.6259C94.2373 90.8499 93.8732 90.7626 93.5335 90.5882C93.197 90.4138 92.8879 90.1185 92.6064 89.7024L91.9822 90.0512C91.4926 90.3358 91.0382 90.5408 90.619 90.6663C90.1998 90.7887 89.7561 90.8499 89.2879 90.8499H88.7693C88.7173 90.8499 88.679 90.8147 88.6545 90.7443C88.6301 90.6708 88.6178 90.55 88.6178 90.3817C88.6178 90.2165 88.6301 90.0986 88.6545 90.0283C88.679 89.9548 88.7173 89.9181 88.7693 89.9181H89.4532C89.698 89.9181 89.9275 89.8998 90.1417 89.863C90.3589 89.8233 90.5838 89.7605 90.8164 89.6749C91.052 89.5861 91.3182 89.4668 91.615 89.3168L93.125 88.5274V88.4815C92.9476 88.4356 92.7563 88.3759 92.5513 88.3025C92.3494 88.2291 92.1153 88.1357 91.8491 88.0225C91.5492 87.9032 91.3151 87.819 91.1468 87.7701C90.9816 87.7181 90.847 87.692 90.7429 87.692C90.541 87.692 90.3742 87.7563 90.2426 87.8848C90.1111 88.0133 89.9871 88.2291 89.8708 88.532L89.8341 88.6192L89.1732 88.4081L89.2053 88.3208C89.3828 87.7792 89.5924 87.3891 89.8341 87.1504C90.0789 86.9087 90.3834 86.7878 90.7475 86.7878ZM90.9127 85.007L91.5737 84.346L92.2346 85.007L91.5737 85.6725L90.9127 85.007ZM97.288 88.5825C97.288 88.8854 97.3171 89.1363 97.3752 89.3352C97.4334 89.531 97.5451 89.6779 97.7103 89.7758C97.8786 89.8707 98.128 89.9181 98.4584 89.9181H98.7522V90.8499H98.4447C98.0561 90.8499 97.718 90.7565 97.4303 90.5699C97.1458 90.3832 96.9545 90.1185 96.8566 89.7758H96.8107C96.7128 90.1185 96.5047 90.3832 96.1865 90.5699C95.8713 90.7565 95.5179 90.8499 95.1262 90.8499H94.9105C94.8095 90.8499 94.759 90.6938 94.759 90.3817C94.759 90.0726 94.8095 89.9181 94.9105 89.9181H95.1262C95.4812 89.9181 95.7489 89.8692 95.9294 89.7712C96.113 89.6733 96.2354 89.5264 96.2966 89.3306C96.3609 89.1317 96.393 88.8823 96.393 88.5825V87.9215H97.288V88.5825ZM94.9197 86.2003L95.5806 85.5394L96.2461 86.2003L95.5806 86.8659L94.9197 86.2003ZM96.5215 86.2003L97.1825 85.5394L97.848 86.2003L97.1825 86.8659L96.5215 86.2003ZM100.763 87.2147C100.851 87.5513 100.92 87.868 100.969 88.1648C101.021 88.4616 101.047 88.7278 101.047 88.9634C101.047 89.5754 100.879 90.0436 100.542 90.3679C100.209 90.6892 99.6855 90.8499 98.9725 90.8499H98.7568C98.6558 90.8499 98.6053 90.6938 98.6053 90.3817C98.6053 90.0726 98.6558 89.9181 98.7568 89.9181H98.9725C99.404 89.9181 99.713 89.8324 99.8997 89.6611C100.086 89.4897 100.18 89.2327 100.18 88.89C100.18 88.7186 100.157 88.5106 100.111 88.2658C100.065 88.0179 100.005 87.7441 99.9318 87.4442L100.763 87.2147ZM99.1836 85.5302L99.8446 84.8693L100.506 85.5302L99.8446 86.1958L99.1836 85.5302ZM103.126 90.8499H102.236V84.6673H103.126V90.8499ZM109.97 89.0552C109.97 89.4806 109.858 89.8278 109.635 90.0971C109.411 90.3664 109.115 90.5653 108.744 90.6938C108.374 90.8193 107.969 90.882 107.528 90.882C107.311 90.882 107.084 90.8667 106.849 90.8361C106.616 90.8055 106.376 90.7581 106.128 90.6938L106.335 89.8171C106.552 89.8661 106.757 89.9028 106.95 89.9273C107.145 89.9487 107.332 89.9594 107.51 89.9594C108.002 89.9594 108.388 89.8829 108.666 89.7299C108.948 89.5739 109.089 89.3444 109.089 89.0415C109.089 88.7569 108.951 88.4172 108.675 88.0225C108.403 87.6278 108.022 87.2132 107.533 86.7787L108.129 86.0718C108.741 86.6165 109.2 87.1351 109.506 87.6278C109.815 88.1174 109.97 88.5932 109.97 89.0552ZM113.518 90.8728L113.49 90.8223C113.319 90.8346 113.147 90.8422 112.976 90.8453C112.805 90.8483 112.638 90.8499 112.476 90.8499C111.992 90.8499 111.611 90.732 111.333 90.4964C111.055 90.2578 110.915 89.889 110.915 89.3903C110.915 89.02 110.975 88.6697 111.094 88.3392C111.214 88.0057 111.394 87.7349 111.636 87.5268C111.878 87.3157 112.181 87.2101 112.545 87.2101C112.854 87.2101 113.117 87.2897 113.334 87.4488C113.551 87.6048 113.73 87.8144 113.871 88.0776C114.015 88.3377 114.125 88.6284 114.202 88.9497C114.278 89.2679 114.329 89.5907 114.353 89.9181H114.693V90.8499H114.326C114.24 91.4404 113.92 91.9376 113.366 92.3416C112.815 92.7455 112.073 93.0759 111.14 93.333L110.764 92.4838C111.52 92.3094 112.141 92.083 112.627 91.8045C113.117 91.5292 113.414 91.2186 113.518 90.8728ZM113.532 89.9365C113.525 89.7468 113.504 89.5479 113.467 89.3398C113.431 89.1317 113.374 88.9374 113.297 88.7569C113.221 88.5764 113.118 88.4295 112.99 88.3163C112.864 88.203 112.708 88.1464 112.522 88.1464C112.329 88.1464 112.168 88.2015 112.04 88.3117C111.911 88.4218 111.815 88.5626 111.751 88.7339C111.689 88.9053 111.659 89.0828 111.659 89.2664C111.659 89.5234 111.737 89.7024 111.893 89.8034C112.049 89.9013 112.257 89.9502 112.517 89.9502C112.682 89.9502 112.849 89.9502 113.017 89.9502C113.189 89.9472 113.36 89.9426 113.532 89.9365ZM116.671 86.7878C116.83 86.7878 117.021 86.8246 117.245 86.898C117.471 86.9684 117.802 87.0984 118.236 87.2881C118.655 87.4687 119.012 87.611 119.306 87.715C119.602 87.819 119.895 87.9062 120.182 87.9766V88.7477L117.906 90.0512C117.416 90.3358 116.962 90.5408 116.542 90.6663C116.123 90.7887 115.68 90.8499 115.211 90.8499H114.693C114.641 90.8499 114.602 90.8147 114.578 90.7443C114.554 90.6708 114.541 90.55 114.541 90.3817C114.541 90.2165 114.554 90.0986 114.578 90.0283C114.602 89.9548 114.641 89.9181 114.693 89.9181H115.377C115.621 89.9181 115.851 89.8998 116.065 89.863C116.282 89.8233 116.507 89.7605 116.74 89.6749C116.975 89.5861 117.242 89.4668 117.538 89.3168L119.048 88.5274V88.4815C118.871 88.4356 118.68 88.3759 118.475 88.3025C118.273 88.2291 118.039 88.1357 117.773 88.0225C117.473 87.9032 117.239 87.819 117.07 87.7701C116.905 87.7181 116.77 87.692 116.666 87.692C116.464 87.692 116.298 87.7563 116.166 87.8848C116.034 88.0133 115.911 88.2291 115.794 88.532L115.758 88.6192L115.097 88.4081L115.129 88.3208C115.303 87.7792 115.513 87.3891 115.758 87.1504C116.002 86.9087 116.307 86.7878 116.671 86.7878ZM116.836 85.007L117.497 84.346L118.158 85.007L117.497 85.6725L116.836 85.007ZM130.358 87.793C130.318 88.0256 130.284 88.2336 130.257 88.4172C130.232 88.6008 130.22 88.7722 130.22 88.9313C130.22 89.222 130.301 89.4591 130.463 89.6427C130.626 89.8263 130.939 89.9181 131.404 89.9181H131.409V90.8499H131.404C130.906 90.8499 130.497 90.7489 130.179 90.5469C129.864 90.3419 129.654 90.0191 129.55 89.5785H129.504C129.204 90.0619 128.759 90.3955 128.169 90.5791C127.581 90.7596 126.876 90.8499 126.053 90.8499C124.948 90.8499 124.14 90.6556 123.629 90.2669C123.121 89.8753 122.867 89.3077 122.867 88.5641C122.867 88.1082 122.956 87.5972 123.133 87.0311L123.923 87.2606C123.773 87.7349 123.698 88.1388 123.698 88.4723C123.698 88.968 123.892 89.3337 124.281 89.5693C124.67 89.8018 125.308 89.9181 126.195 89.9181C126.96 89.9181 127.569 89.8416 128.022 89.6886C128.478 89.5356 128.82 89.2939 129.05 88.9634C129.282 88.6299 129.446 88.1954 129.541 87.6599L130.358 87.793ZM125.153 87.1L125.814 86.439L126.479 87.1L125.814 87.7655L125.153 87.1ZM126.755 87.1L127.416 86.439L128.081 87.1L127.416 87.7655L126.755 87.1ZM134.608 89.9181C134.871 89.9181 135.064 89.8416 135.186 89.6886C135.309 89.5326 135.385 89.2924 135.416 88.968L135.494 88.1143L136.288 88.174L136.224 88.9956C136.193 89.3015 136.248 89.5326 136.389 89.6886C136.53 89.8416 136.736 89.9181 137.009 89.9181C137.513 89.9181 137.766 89.629 137.766 89.0506C137.766 88.9588 137.758 88.838 137.743 88.688C137.731 88.535 137.714 88.3775 137.692 88.2153C137.671 88.05 137.648 87.9047 137.624 87.7792L138.486 87.5727C138.529 87.7869 138.568 88.0302 138.601 88.3025C138.635 88.5748 138.652 88.8196 138.652 89.0369C138.652 89.6488 138.523 90.1048 138.266 90.4046C138.009 90.7014 137.636 90.8499 137.146 90.8499C136.773 90.8499 136.481 90.7626 136.27 90.5882C136.062 90.4108 135.924 90.1751 135.856 89.8814H135.811C135.658 90.527 135.24 90.8499 134.558 90.8499C134.187 90.8499 133.898 90.7581 133.69 90.5745C133.485 90.3909 133.35 90.1323 133.286 89.7988H133.24C133.13 90.1139 132.934 90.3679 132.653 90.5607C132.371 90.7535 132.029 90.8499 131.625 90.8499H131.409C131.308 90.8499 131.257 90.6923 131.257 90.3771C131.257 90.0711 131.308 89.9181 131.409 89.9181H131.625C132.047 89.9181 132.358 89.8187 132.556 89.6198C132.755 89.4178 132.879 89.0935 132.928 88.6467L133.002 87.8894L133.892 87.9537L133.805 88.9267C133.771 89.2388 133.823 89.4821 133.961 89.6565C134.102 89.8309 134.317 89.9181 134.608 89.9181ZM140.735 90.8499H139.845V84.6673H140.735V90.8499ZM144.618 90.8728L144.591 90.8223C144.42 90.8346 144.248 90.8422 144.077 90.8453C143.906 90.8483 143.739 90.8499 143.577 90.8499C143.093 90.8499 142.712 90.732 142.434 90.4964C142.155 90.2578 142.016 89.889 142.016 89.3903C142.016 89.02 142.076 88.6697 142.195 88.3392C142.314 88.0057 142.495 87.7349 142.737 87.5268C142.978 87.3157 143.281 87.2101 143.645 87.2101C143.955 87.2101 144.218 87.2897 144.435 87.4488C144.652 87.6048 144.831 87.8144 144.972 88.0776C145.116 88.3377 145.226 88.6284 145.302 88.9497C145.379 89.2679 145.429 89.5907 145.454 89.9181H145.793V90.8499H145.426C145.341 91.4404 145.021 91.9376 144.467 92.3416C143.916 92.7455 143.174 93.0759 142.241 93.333L141.865 92.4838C142.62 92.3094 143.242 92.083 143.728 91.8045C144.218 91.5292 144.514 91.2186 144.618 90.8728ZM144.632 89.9365C144.626 89.7468 144.605 89.5479 144.568 89.3398C144.531 89.1317 144.475 88.9374 144.398 88.7569C144.322 88.5764 144.219 88.4295 144.091 88.3163C143.965 88.203 143.809 88.1464 143.623 88.1464C143.43 88.1464 143.269 88.2015 143.141 88.3117C143.012 88.4218 142.916 88.5626 142.851 88.7339C142.79 88.9053 142.76 89.0828 142.76 89.2664C142.76 89.5234 142.838 89.7024 142.994 89.8034C143.15 89.9013 143.358 89.9502 143.618 89.9502C143.783 89.9502 143.95 89.9502 144.118 89.9502C144.29 89.9472 144.461 89.9426 144.632 89.9365ZM147.772 86.7878C147.931 86.7878 148.122 86.8246 148.345 86.898C148.572 86.9684 148.902 87.0984 149.337 87.2881C149.756 87.4687 150.113 87.611 150.406 87.715C150.703 87.819 150.995 87.9062 151.283 87.9766V88.7477L149.006 90.0512C148.517 90.3358 148.062 90.5408 147.643 90.6663C147.224 90.7887 146.78 90.8499 146.312 90.8499H145.794C145.741 90.8499 145.703 90.8147 145.679 90.7443C145.654 90.6708 145.642 90.55 145.642 90.3817C145.642 90.2165 145.654 90.0986 145.679 90.0283C145.703 89.9548 145.741 89.9181 145.794 89.9181H146.477C146.722 89.9181 146.952 89.8998 147.166 89.863C147.383 89.8233 147.608 89.7605 147.841 89.6749C148.076 89.5861 148.342 89.4668 148.639 89.3168L150.149 88.5274V88.4815C149.972 88.4356 149.781 88.3759 149.576 88.3025C149.374 88.2291 149.139 88.1357 148.873 88.0225C148.573 87.9032 148.339 87.819 148.171 87.7701C148.006 87.7181 147.871 87.692 147.767 87.692C147.565 87.692 147.398 87.7563 147.267 87.8848C147.135 88.0133 147.011 88.2291 146.895 88.532L146.858 88.6192L146.197 88.4081L146.23 88.3208C146.404 87.7792 146.614 87.3891 146.858 87.1504C147.103 86.9087 147.408 86.7878 147.772 86.7878ZM147.937 85.007L148.598 84.346L149.259 85.007L148.598 85.6725L147.937 85.007ZM152.591 88.0592L153.426 87.7655C153.598 88.2734 153.732 88.7462 153.83 89.1837C153.931 89.6182 153.982 90.0114 153.982 90.3633C153.982 91.0487 153.757 91.6286 153.307 92.1029C152.86 92.5802 152.152 92.9948 151.182 93.3467L150.787 92.5068C151.592 92.2253 152.18 91.9223 152.55 91.598C152.92 91.2736 153.105 90.8697 153.105 90.3863C153.105 90.1048 153.058 89.7575 152.963 89.3444C152.871 88.9313 152.747 88.5029 152.591 88.0592ZM158.723 89.0552C158.723 89.4806 158.611 89.8278 158.388 90.0971C158.165 90.3664 157.868 90.5653 157.498 90.6938C157.127 90.8193 156.722 90.882 156.281 90.882C156.064 90.882 155.838 90.8667 155.602 90.8361C155.369 90.8055 155.129 90.7581 154.881 90.6938L155.088 89.8171C155.305 89.8661 155.51 89.9028 155.703 89.9273C155.899 89.9487 156.085 89.9594 156.263 89.9594C156.756 89.9594 157.141 89.8829 157.42 89.7299C157.701 89.5739 157.842 89.3444 157.842 89.0415C157.842 88.7569 157.704 88.4172 157.429 88.0225C157.156 87.6278 156.775 87.2132 156.286 86.7787L156.883 86.0718C157.495 86.6165 157.954 87.1351 158.26 87.6278C158.569 88.1174 158.723 88.5932 158.723 89.0552Z" fill="#5E5E5E"/>
<rect x="168.844" y="41.9688" width="46.4125" height="46.4125" rx="9.10625" fill="white"/>
<rect x="168.844" y="41.9688" width="46.4125" height="46.4125" rx="9.10625" stroke="#D7D7D7" stroke-width="0.5875"/>
<path d="M182.2 64.3719L182.2 64.3719L182.195 64.3656C182.087 64.2346 182.04 64.0452 182.078 63.8771L182.078 63.8772L182.079 63.8722L183.407 57.5278C183.407 57.5277 183.407 57.5276 183.407 57.5275C183.621 56.5133 183.936 55.5951 184.587 54.9269C185.228 54.2688 186.236 53.8128 187.925 53.8128H196.185C197.874 53.8128 198.882 54.2714 199.523 54.9311C200.174 55.6009 200.489 56.5192 200.704 57.5275C200.704 57.5277 200.704 57.5279 200.704 57.5281L202.031 63.8839L202.031 63.8839L202.033 63.8889C202.069 64.0503 202.028 64.2286 201.916 64.3765C201.794 64.5118 201.628 64.5875 201.449 64.5875H182.649C182.467 64.5875 182.307 64.5097 182.2 64.3719ZM183.443 63.0581L183.368 63.4125H183.73H200.357H200.718L200.644 63.0587L199.54 57.7712L199.539 57.7699C199.376 57.0064 199.185 56.2874 198.686 55.7743C198.173 55.2476 197.391 54.9878 196.174 54.9878H187.925C186.708 54.9878 185.926 55.2476 185.413 55.7743C184.914 56.2874 184.723 57.0064 184.559 57.7699L184.559 57.7706L183.443 63.0581Z" fill="#494949" stroke="#494949" stroke-width="0.5875"/>
<path d="M196.97 75.9054L196.969 75.904L196.734 75.199L196.734 75.1968L196.726 75.1739C196.655 74.9659 196.592 74.7825 196.524 74.6346C196.452 74.4775 196.362 74.3321 196.22 74.2209C196.078 74.1087 195.911 74.0532 195.725 74.0236C195.544 73.9947 195.323 73.9876 195.057 73.9876H189.041C188.52 73.9876 188.135 74.03 187.86 74.2559C187.722 74.3702 187.631 74.5145 187.56 74.6691C187.491 74.8184 187.431 74.9984 187.366 75.1943L187.365 75.199L187.13 75.9027C187.13 75.9029 187.13 75.9031 187.13 75.9033C187.004 76.2752 186.871 76.6623 186.569 76.9684C186.279 77.262 185.797 77.5126 184.905 77.5126H182.696C181.849 77.5126 181.036 77.1585 180.469 76.5392C179.915 75.9311 179.648 75.12 179.722 74.3083L179.722 74.3083L180.38 67.1525L180.38 67.1522C180.468 66.1871 180.638 65.2663 181.199 64.5815C181.747 63.9131 182.72 63.4126 184.553 63.4126H199.546C201.378 63.4126 202.348 63.913 202.895 64.5813C203.455 65.2662 203.625 66.1869 203.719 67.1533C203.719 67.1535 203.719 67.1538 203.719 67.154L204.376 74.3083L204.376 74.3083C204.451 75.1199 204.184 75.9309 203.63 76.539C203.064 77.1585 202.25 77.5126 201.402 77.5126H199.193C198.303 77.5126 197.817 77.2595 197.525 76.964C197.222 76.6566 197.089 76.2685 196.97 75.9054ZM202.769 75.7617L202.77 75.7614C203.109 75.3941 203.265 74.9246 203.223 74.4326L203.222 74.4307L202.564 67.275L202.564 67.2737C202.49 66.5026 202.405 65.7951 201.968 65.3068C201.518 64.8033 200.765 64.5994 199.569 64.5994H184.553C183.352 64.5994 182.596 64.803 182.146 65.3068C181.708 65.7959 181.626 66.5043 181.558 67.2755C181.558 67.2756 181.558 67.2758 181.558 67.2759L180.9 74.4307L180.9 74.4326C180.858 74.9237 181.013 75.3924 181.351 75.7594C181.693 76.1434 182.198 76.3494 182.708 76.3494H184.917C185.071 76.3494 185.208 76.349 185.32 76.3366C185.435 76.3237 185.559 76.295 185.671 76.2133C185.782 76.1319 185.847 76.0226 185.894 75.9193C185.937 75.8241 185.978 75.7041 186.023 75.5716L186.03 75.551L186.03 75.551L186.031 75.5479L186.266 74.8312L186.266 74.8312L186.267 74.8273C186.415 74.3538 186.58 73.8649 186.96 73.4841C187.328 73.1149 187.935 72.8126 189.041 72.8126H195.057C196.084 72.8126 196.665 73.0407 197.04 73.3708C197.423 73.7088 197.636 74.1909 197.846 74.8106L198.092 75.5375L198.093 75.5389L198.099 75.5582C198.144 75.6936 198.185 75.8157 198.228 75.9124C198.274 76.0168 198.339 76.1275 198.449 76.2103C198.561 76.2937 198.686 76.3232 198.802 76.3363C198.914 76.3491 199.052 76.3494 199.205 76.3494H201.414C201.929 76.3494 202.419 76.1404 202.769 75.7617Z" fill="#494949" stroke="#494949" stroke-width="0.5875"/>
<path d="M182.649 61.0625H181.474C181.155 61.0625 180.887 60.7945 180.887 60.475C180.887 60.1555 181.155 59.8875 181.474 59.8875H182.649C182.969 59.8875 183.237 60.1555 183.237 60.475C183.237 60.7945 182.969 61.0625 182.649 61.0625Z" fill="#494949" stroke="#494949" stroke-width="0.5875"/>
<path d="M202.624 61.0625H201.449C201.13 61.0625 200.862 60.7945 200.862 60.475C200.862 60.1555 201.13 59.8875 201.449 59.8875H202.624C202.944 59.8875 203.212 60.1555 203.212 60.475C203.212 60.7945 202.944 61.0625 202.624 61.0625Z" fill="#494949" stroke="#494949" stroke-width="0.5875"/>
<path d="M192.049 57.5375C191.73 57.5375 191.462 57.2695 191.462 56.95V54.6C191.462 54.2805 191.73 54.0125 192.049 54.0125C192.369 54.0125 192.637 54.2805 192.637 54.6V56.95C192.637 57.2695 192.369 57.5375 192.049 57.5375Z" fill="#494949" stroke="#494949" stroke-width="0.5875"/>
<path d="M193.812 57.5376H190.287C189.967 57.5376 189.699 57.2696 189.699 56.9501C189.699 56.6306 189.967 56.3626 190.287 56.3626H193.812C194.131 56.3626 194.399 56.6306 194.399 56.9501C194.399 57.2696 194.131 57.5376 193.812 57.5376Z" fill="#494949" stroke="#494949" stroke-width="0.5875"/>
<path d="M188.524 69.2876H184.999C184.68 69.2876 184.412 69.0196 184.412 68.7001C184.412 68.3806 184.68 68.1126 184.999 68.1126H188.524C188.844 68.1126 189.112 68.3806 189.112 68.7001C189.112 69.0196 188.844 69.2876 188.524 69.2876Z" fill="#494949" stroke="#494949" stroke-width="0.5875"/>
<path d="M199.099 69.2876H195.574C195.255 69.2876 194.987 69.0196 194.987 68.7001C194.987 68.3806 195.255 68.1126 195.574 68.1126H199.099C199.419 68.1126 199.687 68.3806 199.687 68.7001C199.687 69.0196 199.419 69.2876 199.099 69.2876Z" fill="#494949" stroke="#494949" stroke-width="0.5875"/>
</svg>
